<?xml version="1.0" encoding="UTF-8" standalone="no"?>
<!-- Created with Inkscape (http://www.inkscape.org/) -->

<svg
   xmlns:dc="http://purl.org/dc/elements/1.1/"
   xmlns:cc="http://creativecommons.org/ns#"
   xmlns:rdf="http://www.w3.org/1999/02/22-rdf-syntax-ns#"
   xmlns:svg="http://www.w3.org/2000/svg"
   xmlns="http://www.w3.org/2000/svg"
   xmlns:xlink="http://www.w3.org/1999/xlink"
   xmlns:sodipodi="http://sodipodi.sourceforge.net/DTD/sodipodi-0.dtd"
   xmlns:inkscape="http://www.inkscape.org/namespaces/inkscape"
   width="800"
   height="600"
   id="svg2"
   sodipodi:version="0.32"
   inkscape:version="1.2.2 (b0a8486541, 2022-12-01)"
   sodipodi:docname="back.svg"
   inkscape:output_extension="org.inkscape.output.svg.inkscape"
   version="1.0"
   inkscape:export-filename="/home/bgray/tmp/gfxboot-aether.png"
   inkscape:export-xdpi="90"
   inkscape:export-ydpi="90"
   style="display:inline">
  <defs
     id="defs4">
    <linearGradient
       id="linearGradient3962">
      <stop
         style="stop-color:#000000;stop-opacity:0.40112993;"
         offset="0"
         id="stop3964" />
      <stop
         id="stop3966"
         offset="0.5"
         style="stop-color:#000000;stop-opacity:1;" />
      <stop
         style="stop-color:#000000;stop-opacity:0.50282484;"
         offset="1"
         id="stop3968" />
    </linearGradient>
    <linearGradient
       id="linearGradient3946">
      <stop
         id="stop3948"
         offset="0"
         style="stop-color:#ffffff;stop-opacity:0;" />
      <stop
         style="stop-color:#ffffff;stop-opacity:1;"
         offset="0.5"
         id="stop3952" />
      <stop
         id="stop3950"
         offset="1"
         style="stop-color:#ffffff;stop-opacity:0;" />
    </linearGradient>
    <clipPath
       id="clipPath3697"
       clipPathUnits="userSpaceOnUse">
      <path
         style="fill:#800000;fill-opacity:1;stroke:none"
         d="M -17.03125,-23.8125 L -19.0625,-21.3125 L -19.0625,1219.0625 L 1947.625,1219.0625 L 1947.625,-23.8125 L -17.03125,-23.8125 L -17.03125,-23.8125 z"
         id="path3699" />
    </clipPath>
    <filter
       height="1.4232129"
       y="-0.21160644"
       width="1.2688282"
       x="-0.13441409"
       id="filter3830"
       inkscape:collect="always">
      <feGaussianBlur
         id="feGaussianBlur3832"
         stdDeviation="113.06121"
         inkscape:collect="always" />
    </filter>
    <linearGradient
       inkscape:collect="always"
       xlink:href="#linearGradient3946"
       id="linearGradient3944"
       x1="242"
       y1="162.50485"
       x2="778.28485"
       y2="162.50485"
       gradientUnits="userSpaceOnUse"
       gradientTransform="matrix(1,0,0,0.1917442,0,447.41409)" />
    <linearGradient
       inkscape:collect="always"
       xlink:href="#linearGradient3962"
       id="linearGradient3960"
       gradientUnits="userSpaceOnUse"
       gradientTransform="matrix(1,0,0,0.1917442,-0.8003805,132.43396)"
       x1="242"
       y1="162.50485"
       x2="778.28485"
       y2="162.50485" />
    <linearGradient
       inkscape:collect="always"
       xlink:href="#linearGradient3946"
       id="linearGradient3972"
       gradientUnits="userSpaceOnUse"
       gradientTransform="matrix(0.5728889,0,0,0.1917442,-611.36334,183.4273)"
       x1="242"
       y1="162.50485"
       x2="778.28485"
       y2="162.50485" />
    <filter
       inkscape:collect="always"
       id="filter4000">
      <feGaussianBlur
         inkscape:collect="always"
         stdDeviation="15.787843"
         id="feGaussianBlur4002" />
    </filter>
    <filter
       inkscape:collect="always"
       id="filter4018">
      <feGaussianBlur
         inkscape:collect="always"
         stdDeviation="9.1001513"
         id="feGaussianBlur4020" />
    </filter>
    <filter
       inkscape:collect="always"
       id="filter4036">
      <feGaussianBlur
         inkscape:collect="always"
         stdDeviation="9.3609052"
         id="feGaussianBlur4038" />
    </filter>
    <filter
       inkscape:collect="always"
       id="filter4046">
      <feGaussianBlur
         inkscape:collect="always"
         stdDeviation="6.0477165"
         id="feGaussianBlur4048" />
    </filter>
    <filter
       inkscape:collect="always"
       id="filter4070">
      <feGaussianBlur
         inkscape:collect="always"
         stdDeviation="2.7575764"
         id="feGaussianBlur4072" />
    </filter>
  </defs>
  <sodipodi:namedview
     id="base"
     pagecolor="#ffffff"
     bordercolor="#666666"
     borderopacity="1.0"
     gridtolerance="10000"
     guidetolerance="10"
     objecttolerance="10"
     inkscape:pageopacity="0.0"
     inkscape:pageshadow="2"
     inkscape:zoom="0.82950152"
     inkscape:cx="464.19712"
     inkscape:cy="277.60388"
     inkscape:document-units="px"
     inkscape:current-layer="layer2"
     showgrid="false"
     inkscape:window-width="1912"
     inkscape:window-height="1153"
     inkscape:window-x="0"
     inkscape:window-y="0"
     borderlayer="true"
     showguides="true"
     inkscape:guide-bbox="true"
     inkscape:snap-global="false"
     inkscape:window-maximized="1">
    <sodipodi:guide
       orientation="0,1"
       position="-286.68718,440"
       id="guide6571" />
    <sodipodi:guide
       orientation="1,0"
       position="242,350.94465"
       id="guide6575" />
    <sodipodi:guide
       orientation="0,1"
       position="-36.247804,434.99029"
       id="guide6579" />
    <sodipodi:guide
       orientation="0,1"
       position="-130.16257,123"
       id="guide6581" />
  </sodipodi:namedview>
  <metadata
     id="metadata7">
    <rdf:RDF>
      <cc:Work
         rdf:about="">
        <dc:format>image/svg+xml</dc:format>
        <dc:type
           rdf:resource="http://purl.org/dc/dcmitype/StillImage" />
        <dc:title />
      </cc:Work>
    </rdf:RDF>
  </metadata>
  <g
     inkscape:groupmode="layer"
     id="layer2"
     inkscape:label="logo"
     style="opacity:1;display:inline">
    <rect
       style="opacity:1"
       id="rect4836"
       width="813.68585"
       height="609.33124"
       x="-3.7325039"
       y="-1.8662332"
       rx="10.958494"
       ry="17.025898" />
    <rect
       style="fill:#630d0d;fill-opacity:1;stroke:#2c2e2a;stroke-width:1.99999988000000006;stroke-miterlimit:4;stroke-opacity:1;stroke-dasharray:none"
       id="rect4876"
       width="811.12207"
       height="623.59393"
       x="-3.7960665"
       y="-3.8335533" />
    <path
       clip-path="url(#clipPath3697)"
       sodipodi:nodetypes="ccccccccccccc"
       id="rect6306"
       d="m -34.975959,-33.747547 522.675949,14.046417 549.85261,-58.298289 429.7898,88.941283 497.0342,-61.764585 -33.4325,348.887041 62.8209,288.03859 -19.386,315.2153 -0.1402,352.01489 L 439.65675,1170.8374 -69.704022,1246.5988 9.3750342,400.56986 -34.975959,-33.747547 z"
       style="fill:none;stroke:#000000;stroke-width:169.81791687000000479;stroke-miterlimit:4;stroke-opacity:1;filter:url(#filter3830)"
       transform="matrix(0.41691361,0,0,0.51008263,0.9015608,-0.00194446)" />
    <rect
       style="opacity:0.41447371;fill:url(#linearGradient3944);fill-opacity:1;stroke:none;stroke-width:12.69999981;stroke-linecap:round;stroke-linejoin:round;stroke-miterlimit:4;stroke-dasharray:none;stroke-opacity:1"
       id="rect3936"
       width="536.28485"
       height="0.96058255"
       x="242"
       y="478.09317" />
    <rect
       style="opacity:0.41447371;fill:url(#linearGradient3960);fill-opacity:1;stroke:none;stroke-width:12.69999981;stroke-linecap:round;stroke-linejoin:round;stroke-miterlimit:4;stroke-dasharray:none;stroke-opacity:1;display:inline"
       id="rect3958"
       width="536.28485"
       height="0.96058255"
       x="241.19962"
       y="163.11302" />
    <rect
       style="opacity:0.41447371;fill:url(#linearGradient3972);fill-opacity:1;stroke:none;stroke-width:12.69999981;stroke-linecap:round;stroke-linejoin:round;stroke-miterlimit:4;stroke-dasharray:none;stroke-opacity:1;display:inline"
       id="rect3970"
       width="307.2316"
       height="0.96058255"
       x="-472.72424"
       y="214.10638"
       transform="matrix(0,-1,1,0,0,0)" />
    <path
       style="opacity:0.32565789;fill:none;fill-opacity:1;stroke:#ffffff;stroke-width:12.69999980999999956;stroke-linecap:round;stroke-linejoin:round;stroke-miterlimit:4;stroke-dasharray:none;stroke-opacity:1;filter:url(#filter4000)"
       d="M -34.960756,525.25632 L 423.1457,-28.08806 L 431.5845,-35.321319"
       id="path3974" />
    <path
       style="opacity:0.32565791999999999;fill:none;fill-opacity:1;stroke:#ffffff;stroke-width:2;stroke-linecap:round;stroke-linejoin:round;stroke-miterlimit:4;stroke-dasharray:none;stroke-opacity:1;filter:url(#filter4018)"
       d="M -36.166299,571.06696 L 597.94948,-36.526863"
       id="path4004" />
    <path
       style="opacity:0.32565791999999999;fill:none;fill-opacity:1;stroke:#ffffff;stroke-width:2;stroke-linecap:round;stroke-linejoin:round;stroke-miterlimit:4;stroke-dasharray:none;stroke-opacity:1;filter:url(#filter4036)"
       d="M -67.510425,591.5612 L 554.54992,-30.499146"
       id="path4022" />
    <path
       style="opacity:0.32565791999999999;fill:none;fill-opacity:1;stroke:#ffffff;stroke-width:2;stroke-linecap:round;stroke-linejoin:round;stroke-miterlimit:4;stroke-dasharray:none;stroke-opacity:1;filter:url(#filter4046)"
       d="M -89.210204,589.15011 L 491.86167,-26.882516 L 500.30047,-25.676973"
       id="path4040" />
    <rect
       style="fill:#2c0909;fill-opacity:1;stroke:none"
       id="rect6583"
       width="544.74213"
       height="311.9903"
       x="242"
       y="165.0097" />
    <path
       style="font-size:medium;font-style:normal;font-variant:normal;font-weight:normal;font-stretch:normal;text-indent:0;text-align:start;text-decoration:none;line-height:normal;letter-spacing:normal;word-spacing:normal;text-transform:none;direction:ltr;block-progression:tb;writing-mode:lr-tb;text-anchor:start;opacity:0.03618421000000000;fill:#ffffff;fill-opacity:1;stroke:none;stroke-width:7;marker:none;visibility:visible;display:inline;overflow:visible;enable-background:accumulate;font-family:Bitstream Vera Sans;-inkscape-font-specification:Bitstream Vera Sans;filter:url(#filter4070)"
       d="M 514.21138,178.23033 C 497.59755,178.52729 482.2384,198.3732 482.2384,198.3732 C 456.9171,177.47602 457.0758,226.41347 457.0758,226.41347 C 433.51973,237.28492 439.6186,275.84343 439.6186,275.84343 L 446.97235,277.4743 C 441.06829,289.03946 437.73219,302.09436 437.73219,315.90568 C 437.73219,319.98307 438.03474,323.96879 438.59543,327.89552 C 426.13625,330.00618 402.15914,335.53788 406.30282,346.31194 L 404.09664,350.75603 C 404.09664,350.75603 392.98454,355.20166 395.20825,362.42607 C 396.54173,366.75855 407.23458,375.44449 415.60693,381.73774 C 412.55375,382.94315 402.89356,387.30669 405.27971,393.8558 C 408.10185,401.59705 444.06289,422.4393 444.06289,422.4393 L 426.44581,395.64612 C 426.44581,395.64612 458.04055,391.92378 469.16159,381.80195 C 470.56914,382.9587 471.99767,384.09003 473.47798,385.15899 C 467.35681,388.06957 463.32584,391.91312 465.22885,396.86114 L 462.99082,401.3052 C 462.99082,401.3052 451.8787,405.75085 454.10225,412.97527 C 456.32604,420.19996 484.66857,439.64105 484.66839,439.64105 L 470.76023,414.63796 C 470.76023,414.63796 486.47261,412.46332 497.32964,406.83662 C 496.18935,422.37926 508.76653,441.41689 529.62244,453.42127 C 549.8275,465.05118 571.79473,466.56989 584.83954,458.66496 C 578.35507,457.68536 571.24302,455.23104 564.37695,451.27899 C 546.06694,440.74004 536.16032,423.59009 542.25163,413.00739 C 548.32262,402.46014 568.01958,402.41403 586.2784,412.84688 C 580.76738,405.7144 573.17339,399.06125 563.96124,393.759 C 563.5984,393.54926 563.23829,393.35398 562.87427,393.15149 C 568.07821,390.65807 572.98374,387.65352 577.54974,384.23096 C 578.65392,389.30224 580.58102,394.55889 583.40076,399.6742 C 587.12505,406.42963 591.85563,412.01386 596.95727,416.10809 C 589.6309,402.71968 589.89407,388.43111 597.62874,384.16701 C 605.3894,379.88863 617.72335,387.33398 625.12545,400.76098 C 627.90136,405.79623 629.58533,410.97416 630.20915,415.69224 C 634.28176,409.2436 635.12977,399.65579 632.60712,389.47469 C 636.88117,386.77075 658.52434,372.83204 660.74336,366.29436 C 663.19546,359.06965 650.92754,354.62426 650.92754,354.62426 L 648.49755,350.18 C 650.81134,344.72574 645.1561,340.61542 637.2431,337.61447 C 641.51776,334.3481 645.17325,331.08639 645.8439,329.10958 C 647.6275,323.85058 638.68195,320.63703 638.68195,320.63703 L 636.92348,317.40754 C 640.23052,309.61218 621.23003,305.59766 611.18529,304.04295 C 605.30182,262.26726 568.8125,230.05765 524.89046,230.05765 C 503.80203,230.05765 484.42458,237.47081 469.32133,249.81673 C 472.14242,241.7989 474.11746,235.26899 474.11746,235.26899 C 484.55916,237.56744 494.99568,209.94663 494.99568,209.94663 C 504.0456,211.93848 539.21433,200.70632 539.21433,200.70632 C 539.21433,200.70632 550.82365,212.72335 556.44757,203.74378 C 562.07283,194.76655 573.68098,203.90434 573.68098,203.90434 C 546.85804,166.61984 539.50203,193.44927 539.50203,193.44927 L 532.0524,187.43805 C 526.39133,180.57046 520.22063,178.12261 514.21138,178.23007 L 514.21138,178.23033 L 514.21138,178.23033 z M 514.46723,182.19509 C 526.00943,181.83328 530.23,192.77807 530.23,192.77807 C 524.93415,196.1646 489.84827,195.27174 489.84827,195.27174 C 500.37421,185.6588 508.42154,182.38438 514.46723,182.19509 L 514.46723,182.19509 L 514.46723,182.19509 z M 474.98076,198.3732 C 477.5066,198.29574 479.297,199.23653 479.297,199.23653 L 466.50792,218.61212 C 463.42033,221.96241 465.18403,225.76117 467.14734,228.332 C 468.68169,229.55556 469.89633,230.69417 469.96095,231.30551 C 469.96095,231.30551 468.5106,230.11644 467.14734,228.332 C 464.29429,226.05687 460.30529,223.50419 460.30529,223.50419 C 462.71459,202.37885 470.15875,198.52365 474.98076,198.3732 L 474.98076,198.3732 z M 457.55548,230.8578 C 451.8998,235.87183 455.82901,264.58899 455.82901,264.58926 L 443.16776,270.34437 C 441.36876,244.91561 457.55548,230.8578 457.55548,230.8578 L 457.55548,230.8578 L 457.55548,230.8578 z M 524.89057,241.72847 C 566.67523,241.72847 600.34647,274.94643 600.34665,315.90568 C 600.34665,316.49708 600.32875,317.0761 600.31495,317.66417 C 579.80669,347.98476 525.22596,329.00769 493.52538,306.72953 C 463.44295,285.58845 452.17922,308.46941 449.4028,316.06566 C 449.40268,316.01333 449.4028,315.95948 449.4028,315.90512 C 449.4028,274.94593 483.1061,241.72793 524.8909,241.72793 L 524.89057,241.72847 L 524.89057,241.72847 z M 515.74614,289.62416 L 556.63953,320.8296 C 565.75454,305.36175 515.74614,289.62416 515.74614,289.62416 L 515.74614,289.62416 L 515.74614,289.62416 z M 584.3921,292.14967 C 577.30353,291.92182 574.57631,321.43706 574.57631,321.43706 L 586.72606,293.2686 C 585.89764,292.544 585.12536,292.17325 584.3921,292.14967 L 584.3921,292.14967 z M 611.18538,306.12203 C 625.51506,306.06281 634.68545,316.19334 634.68545,316.19334 L 634.46176,321.24492 C 629.77925,321.24492 607.25282,311.94087 607.25282,311.94087 L 606.58136,306.47369 C 608.17003,306.22513 609.703,306.12774 611.18544,306.1221 L 611.18538,306.12203 z M 482.27064,322.10853 C 487.66113,321.97386 495.28356,327.2243 495.28356,327.2243 C 562.26155,353.93515 597.72469,328.15135 597.72469,328.15135 C 587.87481,353.01876 491.34694,348.41668 485.43583,347.49485 C 479.52481,346.57323 474.61671,333.65918 477.57069,325.36971 C 478.40178,323.03815 480.16123,322.1608 482.27064,322.10853 z M 638.01063,323.06764 C 638.01063,323.06764 648.2846,325.69317 642.48681,327.51201 L 638.01063,323.06764 L 638.01063,323.06764 z M 611.53701,324.8583 C 620.23057,328.80935 632.44745,330.32548 632.44745,330.32548 L 629.47387,335.18517 C 622.45359,333.31091 615.40963,332.15053 610.60991,331.47651 C 611.01627,329.30133 611.30126,327.08707 611.53701,324.8583 L 611.53701,324.8583 L 611.53701,324.8583 z M 438.37174,330.80505 C 440.21891,330.80505 442.11538,330.97592 444.09492,331.31666 L 443.26362,338.79821 C 443.26362,338.79821 415.20667,351.58719 409.37241,351.58719 L 409.08442,344.64942 C 409.08442,344.64942 420.51683,330.72626 438.37166,330.80498 L 438.37174,330.80505 L 438.37174,330.80505 z M 613.13578,334.67375 C 632.82915,334.59634 645.42833,348.51819 645.42833,348.51819 L 645.10868,355.45621 C 638.6725,355.45621 607.73227,342.69883 607.73227,342.69883 L 606.80502,335.18517 C 608.98843,334.84671 611.09844,334.68197 613.13578,334.67369 L 613.13578,334.67375 L 613.13578,334.67375 z M 594.33566,342.57117 C 583.32212,356.74008 513.86057,378.41052 512.16522,379.24406 C 510.46986,380.07735 499.47201,375.07082 499.47201,369.23646 C 499.47201,363.4023 505.38694,359.22883 505.38694,359.22883 C 519.78783,366.73031 594.33566,342.57117 594.33566,342.57117 L 594.33566,342.57117 L 594.33566,342.57117 z M 445.46979,351.26768 C 446.64936,353.82612 447.9827,356.30038 449.4024,358.71739 C 433.70508,361.76448 415.18213,367.37926 419.37991,376.5901 L 419.09222,377.06988 L 411.86633,364.08875 C 411.86633,364.08875 436.64645,360.65716 445.46988,351.26768 L 445.46979,351.26768 L 445.46979,351.26768 z M 603.47981,352.96228 C 603.55091,353.06585 603.59742,353.17718 603.67198,353.28205 C 603.57355,353.2435 603.48206,353.1914 603.38426,353.15255 C 603.41596,353.08783 603.44836,353.02569 603.48057,352.96095 L 603.47981,352.96228 z M 404.92816,354.08114 L 399.36478,360.18826 C 392.14023,357.68783 404.92816,354.08114 404.92816,354.08114 z M 650.03235,357.98201 C 650.03235,357.98201 664.10734,361.58839 656.13931,364.08878 L 650.03235,357.98201 z M 460.0495,359.96453 C 462.3939,359.96453 464.82655,360.14579 467.33924,360.5078 L 466.28418,368.565 C 466.28418,368.565 430.68701,382.24944 423.28047,382.24944 L 422.92887,374.79967 C 422.92887,374.79967 437.38601,359.87955 460.0495,359.96447 L 460.0495,359.96453 z M 584.0084,359.99618 C 579.15122,372.77429 591.23427,407.06046 591.23427,407.06046 C 591.23427,407.06046 584.95352,398.12774 580.29957,382.56906 C 575.6455,367.01088 584.0084,359.99618 584.0084,359.99618 L 584.0084,359.99618 L 584.0084,359.99618 z M 616.4289,361.62706 C 628.03229,366.18378 642.3589,367.95758 642.3589,367.95758 L 632.22355,388.0365 C 631.07424,383.89728 629.41678,379.69685 627.13975,375.56689 C 624.12558,370.09916 620.42949,365.39563 616.4289,361.62685 L 616.4289,361.62706 L 616.4289,361.62706 z M 497.26592,381.35406 C 499.11296,381.35406 501.00953,381.53011 502.98901,381.86607 L 502.15772,389.37978 C 502.15772,389.37978 474.10078,402.13659 468.26649,402.13659 L 468.01058,395.19858 C 468.01058,395.19858 479.4108,381.27542 497.26592,381.35412 L 497.26592,381.35406 L 497.26592,381.35406 z M 621.51251,382.34531 C 621.77755,382.34531 622.03599,382.34531 622.31185,382.34531 C 623.33073,382.37424 624.40841,382.52665 625.54119,382.8889 C 630.10708,393.17457 628.57859,402.87221 628.57859,402.87221 C 628.57859,402.87221 626.5611,394.27592 622.72761,389.92319 C 618.8939,385.5703 615.30991,384.39155 615.30991,384.39155 C 614.83163,384.75542 617.5364,382.55432 621.51251,382.34534 L 621.51251,382.34531 L 621.51251,382.34531 z M 417.62138,384.93466 L 410.58738,391.45735 C 401.41739,388.77694 417.62138,384.93466 417.62138,384.93466 z M 548.71028,397.08453 C 549.0883,397.08453 549.47876,397.0556 549.89321,397.08453 C 563.16581,397.57604 566.61507,403.9907 566.61507,403.9907 C 566.61507,403.9907 555.79232,401.51281 549.89321,403.47923 C 543.99446,405.44542 542.02804,408.88244 542.02804,408.88244 C 542.5041,409.83486 536.98932,397.41489 548.71028,397.08447 L 548.71028,397.08453 z M 501.23062,399.54664 C 508.21775,427.00971 566.10351,461.50998 566.10351,461.50998 C 566.10351,461.50998 546.16801,457.417 521.21355,440.47193 C 496.25922,423.52635 501.23062,399.54664 501.23062,399.54664 z M 463.82216,404.66213 L 458.25895,410.76871 C 451.03429,408.26851 463.82216,404.66213 463.82216,404.66213 z"
       id="path5810" />
  </g>
</svg>
