<?xml version="1.0" encoding="UTF-8" standalone="no"?>
<!-- Created with Inkscape (http://www.inkscape.org/) -->

<svg
   xmlns:dc="http://purl.org/dc/elements/1.1/"
   xmlns:cc="http://creativecommons.org/ns#"
   xmlns:rdf="http://www.w3.org/1999/02/22-rdf-syntax-ns#"
   xmlns:svg="http://www.w3.org/2000/svg"
   xmlns="http://www.w3.org/2000/svg"
   xmlns:xlink="http://www.w3.org/1999/xlink"
   xmlns:sodipodi="http://sodipodi.sourceforge.net/DTD/sodipodi-0.dtd"
   xmlns:inkscape="http://www.inkscape.org/namespaces/inkscape"
   width="800"
   height="600"
   id="svg2"
   sodipodi:version="0.32"
   inkscape:version="0.47pre4 r22446"
   sodipodi:docname="welcome.svg"
   inkscape:output_extension="org.inkscape.output.svg.inkscape"
   version="1.0"
   inkscape:export-filename="/home/bgray/tmp/gfxboot-aether.png"
   inkscape:export-xdpi="90"
   inkscape:export-ydpi="90"
   style="display:inline">
  <defs
     id="defs4">
    <inkscape:perspective
       sodipodi:type="inkscape:persp3d"
       inkscape:vp_x="0 : 300 : 1"
       inkscape:vp_y="0 : 1000 : 0"
       inkscape:vp_z="800 : 300 : 1"
       inkscape:persp3d-origin="400 : 200 : 1"
       id="perspective3035" />
    <linearGradient
       id="linearGradient3962">
      <stop
         style="stop-color:#000000;stop-opacity:0.40112993;"
         offset="0"
         id="stop3964" />
      <stop
         id="stop3966"
         offset="0.5"
         style="stop-color:#000000;stop-opacity:1;" />
      <stop
         style="stop-color:#000000;stop-opacity:0.50282484;"
         offset="1"
         id="stop3968" />
    </linearGradient>
    <linearGradient
       id="linearGradient3946">
      <stop
         id="stop3948"
         offset="0"
         style="stop-color:#ffffff;stop-opacity:0;" />
      <stop
         style="stop-color:#ffffff;stop-opacity:1;"
         offset="0.5"
         id="stop3952" />
      <stop
         id="stop3950"
         offset="1"
         style="stop-color:#ffffff;stop-opacity:0;" />
    </linearGradient>
    <clipPath
       id="clipPath3697"
       clipPathUnits="userSpaceOnUse">
      <path
         style="fill:#800000;fill-opacity:1;stroke:none"
         d="M -17.03125,-23.8125 L -19.0625,-21.3125 L -19.0625,1219.0625 L 1947.625,1219.0625 L 1947.625,-23.8125 L -17.03125,-23.8125 L -17.03125,-23.8125 z"
         id="path3699" />
    </clipPath>
    <filter
       height="1.4232129"
       y="-0.21160644"
       width="1.2688282"
       x="-0.13441409"
       id="filter3830"
       inkscape:collect="always">
      <feGaussianBlur
         id="feGaussianBlur3832"
         stdDeviation="113.06121"
         inkscape:collect="always" />
    </filter>
    <linearGradient
       inkscape:collect="always"
       xlink:href="#linearGradient3946"
       id="linearGradient3944"
       x1="242"
       y1="162.50485"
       x2="778.28485"
       y2="162.50485"
       gradientUnits="userSpaceOnUse"
       gradientTransform="matrix(1,0,0,0.1917442,0,447.41409)" />
    <linearGradient
       inkscape:collect="always"
       xlink:href="#linearGradient3946"
       id="linearGradient3956"
       gradientUnits="userSpaceOnUse"
       gradientTransform="matrix(0.5728889,0,0,0.1917442,-612.56891,755.26595)"
       x1="242"
       y1="162.50485"
       x2="778.28485"
       y2="162.50485" />
    <linearGradient
       inkscape:collect="always"
       xlink:href="#linearGradient3962"
       id="linearGradient3960"
       gradientUnits="userSpaceOnUse"
       gradientTransform="matrix(1,0,0,0.1917442,-0.8003805,132.43396)"
       x1="242"
       y1="162.50485"
       x2="778.28485"
       y2="162.50485" />
    <linearGradient
       inkscape:collect="always"
       xlink:href="#linearGradient3946"
       id="linearGradient3972"
       gradientUnits="userSpaceOnUse"
       gradientTransform="matrix(0.5728889,0,0,0.1917442,-611.36334,183.4273)"
       x1="242"
       y1="162.50485"
       x2="778.28485"
       y2="162.50485" />
    <filter
       inkscape:collect="always"
       id="filter4000">
      <feGaussianBlur
         inkscape:collect="always"
         stdDeviation="15.787843"
         id="feGaussianBlur4002" />
    </filter>
    <filter
       inkscape:collect="always"
       id="filter4018">
      <feGaussianBlur
         inkscape:collect="always"
         stdDeviation="9.1001513"
         id="feGaussianBlur4020" />
    </filter>
    <filter
       inkscape:collect="always"
       id="filter4036">
      <feGaussianBlur
         inkscape:collect="always"
         stdDeviation="9.3609052"
         id="feGaussianBlur4038" />
    </filter>
    <filter
       inkscape:collect="always"
       id="filter4046">
      <feGaussianBlur
         inkscape:collect="always"
         stdDeviation="6.0477165"
         id="feGaussianBlur4048" />
    </filter>
    <filter
       inkscape:collect="always"
       id="filter4070">
      <feGaussianBlur
         inkscape:collect="always"
         stdDeviation="2.7575764"
         id="feGaussianBlur4072" />
    </filter>
    <inkscape:perspective
       id="perspective3045"
       inkscape:persp3d-origin="0.5 : 0.33333333 : 1"
       inkscape:vp_z="1 : 0.5 : 1"
       inkscape:vp_y="0 : 1000 : 0"
       inkscape:vp_x="0 : 0.5 : 1"
       sodipodi:type="inkscape:persp3d" />
    <inkscape:perspective
       id="perspective3118"
       inkscape:persp3d-origin="0.5 : 0.33333333 : 1"
       inkscape:vp_z="1 : 0.5 : 1"
       inkscape:vp_y="0 : 1000 : 0"
       inkscape:vp_x="0 : 0.5 : 1"
       sodipodi:type="inkscape:persp3d" />
    <filter
       color-interpolation-filters="sRGB"
       inkscape:collect="always"
       id="filter3864-2"
       x="-0.39403412"
       width="1.7880683"
       y="-1.4914641"
       height="3.9829283">
      <feGaussianBlur
         inkscape:collect="always"
         stdDeviation="51.766234"
         id="feGaussianBlur3866-9" />
    </filter>
  </defs>
  <sodipodi:namedview
     id="base"
     pagecolor="#ffffff"
     bordercolor="#666666"
     borderopacity="1.0"
     gridtolerance="10000"
     guidetolerance="10"
     objecttolerance="10"
     inkscape:pageopacity="0.0"
     inkscape:pageshadow="2"
     inkscape:zoom="1"
     inkscape:cx="248"
     inkscape:cy="240"
     inkscape:document-units="px"
     inkscape:current-layer="layer2"
     showgrid="false"
     inkscape:window-width="1592"
     inkscape:window-height="1150"
     inkscape:window-x="0"
     inkscape:window-y="0"
     borderlayer="true"
     showguides="true"
     inkscape:guide-bbox="true"
     inkscape:snap-global="false"
     inkscape:window-maximized="1">
    <sodipodi:guide
       orientation="0,1"
       position="-286.68718,440"
       id="guide6571" />
    <sodipodi:guide
       orientation="1,0"
       position="242,350.94465"
       id="guide6575" />
    <sodipodi:guide
       orientation="0,1"
       position="-36.247804,434.99029"
       id="guide6579" />
    <sodipodi:guide
       orientation="0,1"
       position="-130.16257,123"
       id="guide6581" />
  </sodipodi:namedview>
  <metadata
     id="metadata7">
    <rdf:RDF>
      <cc:Work
         rdf:about="">
        <dc:format>image/svg+xml</dc:format>
        <dc:type
           rdf:resource="http://purl.org/dc/dcmitype/StillImage" />
        <dc:title />
      </cc:Work>
    </rdf:RDF>
  </metadata>
  <g
     inkscape:groupmode="layer"
     id="layer2"
     inkscape:label="logo"
     style="opacity:1;display:inline">
    <rect
       style="opacity:1"
       id="rect4836"
       width="813.68585"
       height="609.33124"
       x="-3.7325039"
       y="-1.8662332"
       rx="10.958494"
       ry="17.025898" />
    <rect
       style="fill:#630d0d;fill-opacity:1;stroke:#2c2e2a;stroke-width:1.99999988000000006;stroke-miterlimit:4;stroke-opacity:1;stroke-dasharray:none"
       id="rect4876"
       width="811.12207"
       height="623.59393"
       x="-3.7960665"
       y="-3.8335533" />
    <path
       clip-path="url(#clipPath3697)"
       sodipodi:nodetypes="ccccccccccccc"
       id="rect6306"
       d="m -34.975959,-33.747547 522.675949,14.046417 549.85261,-58.298289 429.7898,88.941283 497.0342,-61.764585 -33.4325,348.887041 62.8209,288.03859 -19.386,315.2153 -0.1402,352.01489 L 439.65675,1170.8374 -69.704022,1246.5988 9.3750342,400.56986 -34.975959,-33.747547 z"
       style="fill:none;stroke:#000000;stroke-width:169.81791687000000479;stroke-miterlimit:4;stroke-opacity:1;filter:url(#filter3830)"
       transform="matrix(0.41691361,0,0,0.51008263,0.9015608,-0.00194446)" />
    <path
       style="opacity:0.32565789;fill:none;fill-opacity:1;stroke:#ffffff;stroke-width:12.69999980999999956;stroke-linecap:round;stroke-linejoin:round;stroke-miterlimit:4;stroke-dasharray:none;stroke-opacity:1;filter:url(#filter4000)"
       d="M -34.960756,525.25632 L 423.1457,-28.08806 L 431.5845,-35.321319"
       id="path3974" />
    <path
       style="opacity:0.32565791999999999;fill:none;fill-opacity:1;stroke:#ffffff;stroke-width:2;stroke-linecap:round;stroke-linejoin:round;stroke-miterlimit:4;stroke-dasharray:none;stroke-opacity:1;filter:url(#filter4018)"
       d="M -36.166299,571.06696 L 597.94948,-36.526863"
       id="path4004" />
    <path
       style="opacity:0.32565791999999999;fill:none;fill-opacity:1;stroke:#ffffff;stroke-width:2;stroke-linecap:round;stroke-linejoin:round;stroke-miterlimit:4;stroke-dasharray:none;stroke-opacity:1;filter:url(#filter4036)"
       d="M -67.510425,591.5612 L 554.54992,-30.499146"
       id="path4022" />
    <path
       style="opacity:0.32565791999999999;fill:none;fill-opacity:1;stroke:#ffffff;stroke-width:2;stroke-linecap:round;stroke-linejoin:round;stroke-miterlimit:4;stroke-dasharray:none;stroke-opacity:1;filter:url(#filter4046)"
       d="M -89.210204,589.15011 L 491.86167,-26.882516 L 500.30047,-25.676973"
       id="path4040" />
    <path
       style="font-size:medium;font-style:normal;font-variant:normal;font-weight:normal;font-stretch:normal;text-indent:0;text-align:start;text-decoration:none;line-height:normal;letter-spacing:normal;word-spacing:normal;text-transform:none;direction:ltr;block-progression:tb;writing-mode:lr-tb;text-anchor:start;opacity:0.03618421000000000;fill:#ffffff;fill-opacity:1;stroke:none;stroke-width:7;marker:none;visibility:visible;display:inline;overflow:visible;enable-background:accumulate;font-family:Bitstream Vera Sans;-inkscape-font-specification:Bitstream Vera Sans;filter:url(#filter4070)"
       d="M 514.21138,178.23033 C 497.59755,178.52729 482.2384,198.3732 482.2384,198.3732 C 456.9171,177.47602 457.0758,226.41347 457.0758,226.41347 C 433.51973,237.28492 439.6186,275.84343 439.6186,275.84343 L 446.97235,277.4743 C 441.06829,289.03946 437.73219,302.09436 437.73219,315.90568 C 437.73219,319.98307 438.03474,323.96879 438.59543,327.89552 C 426.13625,330.00618 402.15914,335.53788 406.30282,346.31194 L 404.09664,350.75603 C 404.09664,350.75603 392.98454,355.20166 395.20825,362.42607 C 396.54173,366.75855 407.23458,375.44449 415.60693,381.73774 C 412.55375,382.94315 402.89356,387.30669 405.27971,393.8558 C 408.10185,401.59705 444.06289,422.4393 444.06289,422.4393 L 426.44581,395.64612 C 426.44581,395.64612 458.04055,391.92378 469.16159,381.80195 C 470.56914,382.9587 471.99767,384.09003 473.47798,385.15899 C 467.35681,388.06957 463.32584,391.91312 465.22885,396.86114 L 462.99082,401.3052 C 462.99082,401.3052 451.8787,405.75085 454.10225,412.97527 C 456.32604,420.19996 484.66857,439.64105 484.66839,439.64105 L 470.76023,414.63796 C 470.76023,414.63796 486.47261,412.46332 497.32964,406.83662 C 496.18935,422.37926 508.76653,441.41689 529.62244,453.42127 C 549.8275,465.05118 571.79473,466.56989 584.83954,458.66496 C 578.35507,457.68536 571.24302,455.23104 564.37695,451.27899 C 546.06694,440.74004 536.16032,423.59009 542.25163,413.00739 C 548.32262,402.46014 568.01958,402.41403 586.2784,412.84688 C 580.76738,405.7144 573.17339,399.06125 563.96124,393.759 C 563.5984,393.54926 563.23829,393.35398 562.87427,393.15149 C 568.07821,390.65807 572.98374,387.65352 577.54974,384.23096 C 578.65392,389.30224 580.58102,394.55889 583.40076,399.6742 C 587.12505,406.42963 591.85563,412.01386 596.95727,416.10809 C 589.6309,402.71968 589.89407,388.43111 597.62874,384.16701 C 605.3894,379.88863 617.72335,387.33398 625.12545,400.76098 C 627.90136,405.79623 629.58533,410.97416 630.20915,415.69224 C 634.28176,409.2436 635.12977,399.65579 632.60712,389.47469 C 636.88117,386.77075 658.52434,372.83204 660.74336,366.29436 C 663.19546,359.06965 650.92754,354.62426 650.92754,354.62426 L 648.49755,350.18 C 650.81134,344.72574 645.1561,340.61542 637.2431,337.61447 C 641.51776,334.3481 645.17325,331.08639 645.8439,329.10958 C 647.6275,323.85058 638.68195,320.63703 638.68195,320.63703 L 636.92348,317.40754 C 640.23052,309.61218 621.23003,305.59766 611.18529,304.04295 C 605.30182,262.26726 568.8125,230.05765 524.89046,230.05765 C 503.80203,230.05765 484.42458,237.47081 469.32133,249.81673 C 472.14242,241.7989 474.11746,235.26899 474.11746,235.26899 C 484.55916,237.56744 494.99568,209.94663 494.99568,209.94663 C 504.0456,211.93848 539.21433,200.70632 539.21433,200.70632 C 539.21433,200.70632 550.82365,212.72335 556.44757,203.74378 C 562.07283,194.76655 573.68098,203.90434 573.68098,203.90434 C 546.85804,166.61984 539.50203,193.44927 539.50203,193.44927 L 532.0524,187.43805 C 526.39133,180.57046 520.22063,178.12261 514.21138,178.23007 L 514.21138,178.23033 L 514.21138,178.23033 z M 514.46723,182.19509 C 526.00943,181.83328 530.23,192.77807 530.23,192.77807 C 524.93415,196.1646 489.84827,195.27174 489.84827,195.27174 C 500.37421,185.6588 508.42154,182.38438 514.46723,182.19509 L 514.46723,182.19509 L 514.46723,182.19509 z M 474.98076,198.3732 C 477.5066,198.29574 479.297,199.23653 479.297,199.23653 L 466.50792,218.61212 C 463.42033,221.96241 465.18403,225.76117 467.14734,228.332 C 468.68169,229.55556 469.89633,230.69417 469.96095,231.30551 C 469.96095,231.30551 468.5106,230.11644 467.14734,228.332 C 464.29429,226.05687 460.30529,223.50419 460.30529,223.50419 C 462.71459,202.37885 470.15875,198.52365 474.98076,198.3732 L 474.98076,198.3732 z M 457.55548,230.8578 C 451.8998,235.87183 455.82901,264.58899 455.82901,264.58926 L 443.16776,270.34437 C 441.36876,244.91561 457.55548,230.8578 457.55548,230.8578 L 457.55548,230.8578 L 457.55548,230.8578 z M 524.89057,241.72847 C 566.67523,241.72847 600.34647,274.94643 600.34665,315.90568 C 600.34665,316.49708 600.32875,317.0761 600.31495,317.66417 C 579.80669,347.98476 525.22596,329.00769 493.52538,306.72953 C 463.44295,285.58845 452.17922,308.46941 449.4028,316.06566 C 449.40268,316.01333 449.4028,315.95948 449.4028,315.90512 C 449.4028,274.94593 483.1061,241.72793 524.8909,241.72793 L 524.89057,241.72847 L 524.89057,241.72847 z M 515.74614,289.62416 L 556.63953,320.8296 C 565.75454,305.36175 515.74614,289.62416 515.74614,289.62416 L 515.74614,289.62416 L 515.74614,289.62416 z M 584.3921,292.14967 C 577.30353,291.92182 574.57631,321.43706 574.57631,321.43706 L 586.72606,293.2686 C 585.89764,292.544 585.12536,292.17325 584.3921,292.14967 L 584.3921,292.14967 z M 611.18538,306.12203 C 625.51506,306.06281 634.68545,316.19334 634.68545,316.19334 L 634.46176,321.24492 C 629.77925,321.24492 607.25282,311.94087 607.25282,311.94087 L 606.58136,306.47369 C 608.17003,306.22513 609.703,306.12774 611.18544,306.1221 L 611.18538,306.12203 z M 482.27064,322.10853 C 487.66113,321.97386 495.28356,327.2243 495.28356,327.2243 C 562.26155,353.93515 597.72469,328.15135 597.72469,328.15135 C 587.87481,353.01876 491.34694,348.41668 485.43583,347.49485 C 479.52481,346.57323 474.61671,333.65918 477.57069,325.36971 C 478.40178,323.03815 480.16123,322.1608 482.27064,322.10853 z M 638.01063,323.06764 C 638.01063,323.06764 648.2846,325.69317 642.48681,327.51201 L 638.01063,323.06764 L 638.01063,323.06764 z M 611.53701,324.8583 C 620.23057,328.80935 632.44745,330.32548 632.44745,330.32548 L 629.47387,335.18517 C 622.45359,333.31091 615.40963,332.15053 610.60991,331.47651 C 611.01627,329.30133 611.30126,327.08707 611.53701,324.8583 L 611.53701,324.8583 L 611.53701,324.8583 z M 438.37174,330.80505 C 440.21891,330.80505 442.11538,330.97592 444.09492,331.31666 L 443.26362,338.79821 C 443.26362,338.79821 415.20667,351.58719 409.37241,351.58719 L 409.08442,344.64942 C 409.08442,344.64942 420.51683,330.72626 438.37166,330.80498 L 438.37174,330.80505 L 438.37174,330.80505 z M 613.13578,334.67375 C 632.82915,334.59634 645.42833,348.51819 645.42833,348.51819 L 645.10868,355.45621 C 638.6725,355.45621 607.73227,342.69883 607.73227,342.69883 L 606.80502,335.18517 C 608.98843,334.84671 611.09844,334.68197 613.13578,334.67369 L 613.13578,334.67375 L 613.13578,334.67375 z M 594.33566,342.57117 C 583.32212,356.74008 513.86057,378.41052 512.16522,379.24406 C 510.46986,380.07735 499.47201,375.07082 499.47201,369.23646 C 499.47201,363.4023 505.38694,359.22883 505.38694,359.22883 C 519.78783,366.73031 594.33566,342.57117 594.33566,342.57117 L 594.33566,342.57117 L 594.33566,342.57117 z M 445.46979,351.26768 C 446.64936,353.82612 447.9827,356.30038 449.4024,358.71739 C 433.70508,361.76448 415.18213,367.37926 419.37991,376.5901 L 419.09222,377.06988 L 411.86633,364.08875 C 411.86633,364.08875 436.64645,360.65716 445.46988,351.26768 L 445.46979,351.26768 L 445.46979,351.26768 z M 603.47981,352.96228 C 603.55091,353.06585 603.59742,353.17718 603.67198,353.28205 C 603.57355,353.2435 603.48206,353.1914 603.38426,353.15255 C 603.41596,353.08783 603.44836,353.02569 603.48057,352.96095 L 603.47981,352.96228 z M 404.92816,354.08114 L 399.36478,360.18826 C 392.14023,357.68783 404.92816,354.08114 404.92816,354.08114 z M 650.03235,357.98201 C 650.03235,357.98201 664.10734,361.58839 656.13931,364.08878 L 650.03235,357.98201 z M 460.0495,359.96453 C 462.3939,359.96453 464.82655,360.14579 467.33924,360.5078 L 466.28418,368.565 C 466.28418,368.565 430.68701,382.24944 423.28047,382.24944 L 422.92887,374.79967 C 422.92887,374.79967 437.38601,359.87955 460.0495,359.96447 L 460.0495,359.96453 z M 584.0084,359.99618 C 579.15122,372.77429 591.23427,407.06046 591.23427,407.06046 C 591.23427,407.06046 584.95352,398.12774 580.29957,382.56906 C 575.6455,367.01088 584.0084,359.99618 584.0084,359.99618 L 584.0084,359.99618 L 584.0084,359.99618 z M 616.4289,361.62706 C 628.03229,366.18378 642.3589,367.95758 642.3589,367.95758 L 632.22355,388.0365 C 631.07424,383.89728 629.41678,379.69685 627.13975,375.56689 C 624.12558,370.09916 620.42949,365.39563 616.4289,361.62685 L 616.4289,361.62706 L 616.4289,361.62706 z M 497.26592,381.35406 C 499.11296,381.35406 501.00953,381.53011 502.98901,381.86607 L 502.15772,389.37978 C 502.15772,389.37978 474.10078,402.13659 468.26649,402.13659 L 468.01058,395.19858 C 468.01058,395.19858 479.4108,381.27542 497.26592,381.35412 L 497.26592,381.35406 L 497.26592,381.35406 z M 621.51251,382.34531 C 621.77755,382.34531 622.03599,382.34531 622.31185,382.34531 C 623.33073,382.37424 624.40841,382.52665 625.54119,382.8889 C 630.10708,393.17457 628.57859,402.87221 628.57859,402.87221 C 628.57859,402.87221 626.5611,394.27592 622.72761,389.92319 C 618.8939,385.5703 615.30991,384.39155 615.30991,384.39155 C 614.83163,384.75542 617.5364,382.55432 621.51251,382.34534 L 621.51251,382.34531 L 621.51251,382.34531 z M 417.62138,384.93466 L 410.58738,391.45735 C 401.41739,388.77694 417.62138,384.93466 417.62138,384.93466 z M 548.71028,397.08453 C 549.0883,397.08453 549.47876,397.0556 549.89321,397.08453 C 563.16581,397.57604 566.61507,403.9907 566.61507,403.9907 C 566.61507,403.9907 555.79232,401.51281 549.89321,403.47923 C 543.99446,405.44542 542.02804,408.88244 542.02804,408.88244 C 542.5041,409.83486 536.98932,397.41489 548.71028,397.08447 L 548.71028,397.08453 z M 501.23062,399.54664 C 508.21775,427.00971 566.10351,461.50998 566.10351,461.50998 C 566.10351,461.50998 546.16801,457.417 521.21355,440.47193 C 496.25922,423.52635 501.23062,399.54664 501.23062,399.54664 z M 463.82216,404.66213 L 458.25895,410.76871 C 451.03429,408.26851 463.82216,404.66213 463.82216,404.66213 z"
       id="path5810" />
    <g
       id="g2547"
       transform="matrix(0.64952507,0,0,0.64952507,-285.3563,-438.50173)">
      <g
         inkscape:label="Layer 1"
         id="g3777"
         transform="matrix(0.4893022,0,0,0.4893022,311.5719,532.64749)">
        <g
           inkscape:label="Layer 1"
           id="g2615"
           transform="translate(630.2208,290.34831)" />
        <g
           id="layer2-3"
           inkscape:label="rhs"
           transform="translate(630.2208,290.34831)" />
        <path
           style="font-size:medium;font-style:normal;font-variant:normal;font-weight:normal;font-stretch:normal;text-indent:0;text-align:start;text-decoration:none;line-height:normal;letter-spacing:normal;word-spacing:normal;text-transform:none;direction:ltr;block-progression:tb;writing-mode:lr-tb;text-anchor:start;fill:#ffffff;fill-opacity:1;stroke:none;stroke-width:7;marker:none;visibility:visible;display:inline;overflow:visible;enable-background:accumulate;font-family:Bitstream Vera Sans;-inkscape-font-specification:Bitstream Vera Sans"
           d="m 466.94711,399.35761 c -11.17214,0.19971 -21.50053,13.54526 -21.50053,13.54526 -17.02757,-14.05251 -16.92082,18.85595 -16.92082,18.85595 -15.84052,7.3106 -11.73928,33.23965 -11.73928,33.23965 l 4.94511,1.09668 c -3.97024,7.77711 -6.21365,16.55601 -6.21365,25.84355 0,2.74189 0.20347,5.42214 0.5805,8.06269 -8.37829,1.41935 -24.50194,5.13917 -21.71546,12.38431 l -1.48358,2.98846 c 0,0 -7.47243,2.98952 -5.97708,7.84763 0.89673,2.91342 8.08722,8.75436 13.7173,12.9863 -2.05314,0.81058 -8.54924,3.7449 -6.94466,8.14889 1.89779,5.20569 26.08012,19.22127 26.08012,19.22127 l -11.84677,-18.01732 c 0,0 21.24618,-2.50316 28.72463,-9.30965 0.94652,0.77784 1.90715,1.53863 2.9026,2.25746 -4.11624,1.95724 -6.82691,4.5419 -5.54721,7.86923 l -1.50497,2.98845 c 0,0 -7.47245,2.98952 -5.97721,7.84764 1.49542,4.8583 20.55462,17.93164 20.5545,17.93164 l -9.35268,-16.81354 c 0,0 10.56593,-1.46236 17.86685,-5.24609 -0.7668,10.45178 7.69086,23.25385 21.7156,31.32628 13.58708,7.82064 28.35915,8.84194 37.13127,3.52619 -4.36055,-0.65874 -9.14312,-2.30917 -13.76026,-4.96678 -12.31275,-7.08702 -18.97455,-18.61966 -14.87838,-25.73611 4.08248,-7.09259 17.32787,-7.12358 29.60622,-0.10791 -3.70595,-4.79631 -8.81261,-9.2703 -15.0074,-12.83585 -0.24399,-0.14102 -0.48615,-0.27234 -0.73094,-0.40851 3.49946,-1.67673 6.79822,-3.69717 9.86867,-5.9987 0.7425,3.41022 2.0384,6.94512 3.93457,10.38494 2.50442,4.54277 5.68555,8.29795 9.11619,11.05114 -4.92669,-9.00317 -4.74971,-18.61164 0.45155,-21.47908 5.21872,-2.87702 13.51281,2.12965 18.4904,11.15875 1.86669,3.38604 2.99911,6.86798 3.41859,10.04068 2.73867,-4.33643 3.30892,-10.78386 1.61255,-17.63024 2.87411,-1.81828 17.42827,-11.19151 18.92046,-15.58783 1.64897,-4.8583 -6.60072,-7.84763 -6.60072,-7.84763 l -1.63407,-2.98862 c 1.5559,-3.66775 -2.247,-6.43176 -7.56817,-8.44978 2.87455,-2.19652 5.3327,-4.38988 5.7837,-5.71922 1.19941,-3.53645 -4.81612,-5.69744 -4.81612,-5.69744 l -1.18251,-2.17169 c 2.22387,-5.24208 -10.55319,-7.94166 -17.30789,-8.98715 -3.95638,-28.09247 -28.49397,-49.75214 -58.02978,-49.75214 -14.18111,0 -27.21167,4.98508 -37.36796,13.2872 1.89705,-5.39166 3.22517,-9.78277 3.22517,-9.78277 7.02162,1.54559 14.03976,-17.02825 14.03976,-17.02825 6.08571,1.33942 29.73525,-6.21375 29.73525,-6.21375 0,0 7.80681,8.08096 11.58867,2.04257 3.78274,-6.03684 11.58874,0.10796 11.58874,0.10796 -18.03733,-25.07231 -22.98395,-7.03059 -22.98395,-7.03059 l -5.00957,-4.04231 c -3.80682,-4.61818 -7.95639,-6.26426 -11.99735,-6.19199 l 0,1.7e-4 z m 0.17206,2.66614 c 7.76163,-0.2433 10.59981,7.11663 10.59981,7.11663 -3.56125,2.2773 -27.15508,1.67689 -27.15508,1.67689 7.07828,-6.46432 12.48979,-8.66624 16.55527,-8.79352 l 0,0 z m -26.55306,10.87912 c 1.69852,-0.0521 2.9025,0.58056 2.9025,0.58056 l -8.60016,13.0293 c -2.07628,2.25292 -0.89025,4.80745 0.43,6.53623 1.03179,0.82278 1.84859,1.58844 1.89205,1.99957 0,0 -0.97533,-0.79961 -1.89205,-1.99957 -1.91855,-1.52993 -4.60102,-3.24652 -4.60102,-3.24652 1.62017,-14.20592 6.62608,-16.79841 9.86868,-16.89957 l 0,0 z m -11.7178,21.84458 c -3.80322,3.37174 -1.16097,22.68286 -1.16097,22.68303 l -8.51419,3.8701 c -1.20976,-17.09981 9.67516,-26.55313 9.67516,-26.55313 l 0,0 z m 45.28013,7.31009 c 28.09848,0 50.74101,22.33773 50.74113,49.88116 0,0.39771 -0.012,0.78708 -0.0213,1.18253 -13.79098,20.38936 -50.4943,7.62805 -71.81164,-7.3531 -20.22924,-14.21653 -27.80363,1.17 -29.67068,6.27819 -7e-5,-0.0352 0,-0.0714 0,-0.10797 0,-27.54343 22.66412,-49.88116 50.76272,-49.88116 l -2.3e-4,3.5e-4 z m -6.14927,32.20791 27.49916,20.98438 c 6.12946,-10.40147 -27.49916,-20.98438 -27.49916,-20.98438 l 0,0 z m 46.16164,1.69832 c -4.76679,-0.15322 -6.60072,19.69458 -6.60072,19.69458 l 8.17021,-18.94215 c -0.55709,-0.48724 -1.07641,-0.73658 -1.5695,-0.75243 l 10e-6,0 z m 18.01738,9.39584 c 9.63612,-0.0398 15.80285,6.77255 15.80285,6.77255 l -0.15044,3.39697 c -3.14878,0 -18.29689,-6.25658 -18.29689,-6.25658 l -0.45154,-3.67646 c 1.06831,-0.16716 2.09916,-0.23265 3.09605,-0.23644 l -3e-5,-4e-5 z m -86.68995,10.75027 c 3.6249,-0.0906 8.75067,3.44016 8.75067,3.44016 45.03999,17.96195 68.88752,0.6234 68.88752,0.6234 -6.62365,16.7223 -71.53474,13.62761 -75.50972,13.0077 -3.97492,-0.61974 -7.27543,-9.30391 -5.28899,-14.87825 0.55889,-1.56788 1.74205,-2.15784 3.16052,-2.19301 z m 104.72885,0.64498 c 0,0 6.90881,1.76553 3.01003,2.98864 l -3.01003,-2.98864 0,0 z m -17.80245,1.20413 c 5.84609,2.65692 14.06142,3.67646 14.06142,3.67646 l -1.99961,3.26795 c -4.72084,-1.26038 -9.45763,-2.04067 -12.68525,-2.49393 0.27326,-1.46271 0.46491,-2.95172 0.62344,-4.45048 l 0,0 z m -116.44661,3.99895 c 1.24213,0 2.51742,0.11491 3.84859,0.34404 l -0.55902,5.03104 c 0,0 -18.86716,8.60006 -22.79047,8.60006 l -0.19365,-4.66535 c 0,0 7.68784,-9.36278 19.6945,-9.30983 l 5e-5,4e-5 z m 117.52173,2.60155 c 13.24299,-0.0521 21.71543,9.30983 21.71543,9.30983 l -0.21496,4.66552 c -4.32805,0 -25.13413,-8.57882 -25.13413,-8.57882 l -0.62354,-5.05262 c 1.46827,-0.22761 2.88716,-0.33839 4.2572,-0.34396 l 0,5e-5 z m -12.64231,5.31069 c -7.40617,9.52801 -54.11625,24.10049 -55.25631,24.66101 -1.14006,0.56035 -8.53568,-2.80633 -8.53568,-6.7297 0,-3.9232 3.97756,-6.72971 3.97756,-6.72971 9.68401,5.04445 59.81443,-11.2016 59.81443,-11.2016 l 0,0 z m -100.10629,5.84807 c 0.79323,1.72043 1.68985,3.38426 2.64454,5.00963 -10.55581,2.04901 -23.01175,5.82472 -20.18892,12.01863 l -0.19346,0.32264 -4.85911,-8.72927 c 0,0 16.66361,-2.3076 22.59702,-8.62165 l -7e-5,2e-5 z m 106.25534,1.13953 c 0.0478,0.0696 0.0791,0.1445 0.12923,0.21505 -0.0662,-0.0259 -0.12769,-0.061 -0.19347,-0.0871 0.0213,-0.0435 0.0431,-0.0853 0.0648,-0.12885 l -5.1e-4,8.8e-4 z m -133.51792,0.75242 -3.74115,4.10675 c -4.85822,-1.68142 3.74115,-4.10675 3.74115,-4.10675 z m 164.82263,2.62313 c 0,0 9.46485,2.42515 4.10668,4.10657 l -4.10668,-4.10657 z m -127.75577,1.33316 c 1.5765,0 3.21237,0.1219 4.90206,0.36535 l -0.7095,5.41812 c 0,0 -23.93766,9.20223 -28.91824,9.20223 l -0.23645,-5.00965 c 0,0 9.72185,-10.03318 24.96213,-9.97606 l 0,1e-5 z m 83.35733,0.0213 c -3.26627,8.59274 4.85911,31.64879 4.85911,31.64879 0,0 -4.22355,-6.00689 -7.35314,-16.46947 -3.12966,-10.46225 2.49403,-15.17932 2.49403,-15.17932 l 0,0 z m 21.80148,1.0967 c 7.80282,3.06421 17.43686,4.25701 17.43686,4.25701 l -6.8156,13.50224 c -0.77288,-2.78346 -1.88743,-5.60807 -3.41866,-8.3853 -2.02689,-3.67681 -4.51239,-6.83975 -7.2026,-9.37408 l 0,1.3e-4 z m -80.13228,13.26558 c 1.24207,0 2.51743,0.11838 3.84856,0.34431 l -0.55902,5.05264 c 0,0 -18.86716,8.57847 -22.79049,8.57847 l -0.17207,-4.66553 c 0,0 7.66618,-9.36276 19.67301,-9.30985 l 10e-6,-4e-5 z m 83.5508,0.66658 c 0.17823,0 0.35201,0 0.53754,0 0.68514,0.0195 1.40985,0.12195 2.17158,0.36552 3.07039,6.91671 2.04254,13.43799 2.04254,13.43799 0,0 -1.35669,-5.78068 -3.93457,-8.70768 -2.57799,-2.92717 -4.9881,-3.71982 -4.9881,-3.71982 -0.32162,0.2447 1.49725,-1.23547 4.17101,-1.376 l 0,-10e-6 z m -137.10853,1.74122 -4.73009,4.38624 c -6.16642,-1.80246 4.73009,-4.38624 4.73009,-4.38624 z m 88.15197,8.1703 c 0.25422,0 0.51677,-0.0195 0.79548,0 8.92529,0.33051 11.24478,4.64412 11.24478,4.64412 0,0 -7.27786,-1.66627 -11.24478,-0.34394 -3.96668,1.32218 -5.28901,3.63343 -5.28901,3.63343 0.32014,0.64048 -3.38832,-7.71146 4.49353,-7.93364 l 0,3e-5 z m -31.92814,1.65566 c 4.69855,18.4678 43.62441,41.66785 43.62441,41.66785 0,0 -13.40584,-2.75235 -30.18668,-14.14723 -16.7808,-11.39524 -13.43773,-27.52062 -13.43773,-27.52062 z m -25.15567,3.43999 -3.74104,4.10639 c -4.85828,-1.68126 3.74104,-4.10639 3.74104,-4.10639 z"
           id="path5810-1" />
      </g>
      <path
         transform="translate(-222.843,242.34315)"
         d="m 1048,548 c 0,22.09139 -69.84358,40 -156,40 -86.15642,0 -156,-17.90861 -156,-40 0,-22.09139 69.84358,-40 156,-40 86.15642,0 156,17.90861 156,40 z"
         sodipodi:ry="40"
         sodipodi:rx="156"
         sodipodi:cy="548"
         sodipodi:cx="892"
         id="path3782"
         style="opacity:0.37828944;fill:#ffffff;fill-opacity:1;stroke:#ffffff;stroke-width:3.29999995;stroke-linecap:round;stroke-linejoin:round;stroke-miterlimit:4;stroke-opacity:1;stroke-dasharray:none;filter:url(#filter3864-2)"
         sodipodi:type="arc" />
      <text
         sodipodi:linespacing="125%"
         id="text3366"
         y="803.20758"
         x="595.66583"
         style="font-size:93.10431671px;font-style:normal;font-variant:normal;font-weight:normal;font-stretch:normal;text-align:start;line-height:125%;writing-mode:lr-tb;text-anchor:start;fill:#ffffff;fill-opacity:1;stroke:#ffffff;stroke-width:0.87827474;stroke-miterlimit:4;stroke-opacity:1;stroke-dasharray:none;display:inline;font-family:Dustismo;-inkscape-font-specification:Dustismo"
         xml:space="preserve"><tspan
           dx="0 -3.0112276 1.1792498 -4.0149698 -4.0149698"
           y="803.20758"
           x="595.66583"
           id="tspan3368"
           sodipodi:role="line"
           style="letter-spacing:-0.66258842;fill:#ffffff;fill-opacity:1;stroke:#ffffff;stroke-width:0.87827474;stroke-opacity:1">sidux Μόρος</tspan></text>
    </g>
  </g>
</svg>
