<?xml version="1.0" encoding="UTF-8" standalone="no"?>
<!-- Created with Inkscape (http://www.inkscape.org/) -->

<svg
   xmlns:dc="http://purl.org/dc/elements/1.1/"
   xmlns:cc="http://creativecommons.org/ns#"
   xmlns:rdf="http://www.w3.org/1999/02/22-rdf-syntax-ns#"
   xmlns:svg="http://www.w3.org/2000/svg"
   xmlns="http://www.w3.org/2000/svg"
   xmlns:xlink="http://www.w3.org/1999/xlink"
   xmlns:sodipodi="http://sodipodi.sourceforge.net/DTD/sodipodi-0.dtd"
   xmlns:inkscape="http://www.inkscape.org/namespaces/inkscape"
   width="800"
   height="600"
   id="svg2"
   sodipodi:version="0.32"
   inkscape:version="1.2.2 (b0a8486541, 2022-12-01)"
   sodipodi:docname="welcome.svg"
   inkscape:output_extension="org.inkscape.output.svg.inkscape"
   version="1.0"
   inkscape:export-filename="/home/bernie/tmp/gfxboot-pontos.png"
   inkscape:export-xdpi="90"
   inkscape:export-ydpi="90">
  <defs
     id="defs4">
    <linearGradient
       id="linearGradient92350">
      <stop
         style="stop-color:#ffffff;stop-opacity:1;"
         offset="0"
         id="stop92352" />
      <stop
         id="stop92354"
         offset="0.74921137"
         style="stop-color:#e5e5e5;stop-opacity:0.54109591;" />
      <stop
         style="stop-color:#999999;stop-opacity:0.29452056;"
         offset="1"
         id="stop92356" />
    </linearGradient>
    <linearGradient
       id="linearGradient92301">
      <stop
         id="stop92303"
         offset="0"
         style="stop-color:#ffffff;stop-opacity:1;" />
      <stop
         style="stop-color:#ffffff;stop-opacity:1;"
         offset="0.18814027"
         id="stop92305" />
      <stop
         id="stop92307"
         offset="1"
         style="stop-color:#000000;stop-opacity:1;" />
    </linearGradient>
    <linearGradient
       id="linearGradient2781">
      <stop
         style="stop-color:#ffffff;stop-opacity:1;"
         offset="0"
         id="stop2783" />
      <stop
         id="stop2789"
         offset="0.09455471"
         style="stop-color:#e5e5e5;stop-opacity:1;" />
      <stop
         style="stop-color:#999999;stop-opacity:1;"
         offset="1"
         id="stop2785" />
    </linearGradient>
    <linearGradient
       id="linearGradient3937">
      <stop
         style="stop-color:#000000;stop-opacity:0;"
         offset="0"
         id="stop3939" />
      <stop
         id="stop3945"
         offset="0.69098639"
         style="stop-color:#051405;stop-opacity:0.31506848;" />
      <stop
         style="stop-color:#0b280b;stop-opacity:0.87671232;"
         offset="1"
         id="stop3941" />
    </linearGradient>
    <radialGradient
       inkscape:collect="always"
       xlink:href="#linearGradient92301"
       id="radialGradient92324"
       gradientUnits="userSpaceOnUse"
       gradientTransform="matrix(1.5037432,-0.1834138,0.08241373,1.3934219,-526.55852,22.009942)"
       cx="1037.9656"
       cy="804.68542"
       fx="1037.9656"
       fy="804.68542"
       r="875.19171" />
    <mask
       maskUnits="userSpaceOnUse"
       id="mask92320">
      <rect
         y="-173.95683"
         x="-84.441757"
         height="1479.2645"
         width="1790.9087"
         id="rect92322"
         style="fill:url(#radialGradient92324);fill-opacity:1;stroke:none;display:inline" />
    </mask>
    <radialGradient
       inkscape:collect="always"
       xlink:href="#linearGradient3937"
       id="radialGradient92360"
       gradientUnits="userSpaceOnUse"
       gradientTransform="matrix(1.3475977,-0.59990508,0.45118992,1.2279017,-1233.302,438.62893)"
       cx="1291.6517"
       cy="879.90021"
       fx="1291.6517"
       fy="879.90021"
       r="875.19171" />
    <linearGradient
       inkscape:collect="always"
       xlink:href="#linearGradient2781"
       id="linearGradient92368"
       gradientUnits="userSpaceOnUse"
       x1="558.9649"
       y1="948.19049"
       x2="558.9649"
       y2="172.69933" />
    <linearGradient
       inkscape:collect="always"
       xlink:href="#linearGradient92350"
       id="linearGradient92373"
       gradientUnits="userSpaceOnUse"
       gradientTransform="matrix(0.88029379,0,0,0.885812,-278.8154,-88.99258)"
       x1="558.9649"
       y1="948.19049"
       x2="558.9649"
       y2="834.96869" />
  </defs>
  <sodipodi:namedview
     id="base"
     pagecolor="#ffffff"
     bordercolor="#666666"
     borderopacity="1.0"
     gridtolerance="10000"
     guidetolerance="10"
     objecttolerance="10"
     inkscape:pageopacity="0.0"
     inkscape:pageshadow="2"
     inkscape:zoom="0.85833333"
     inkscape:cx="118.05825"
     inkscape:cy="300"
     inkscape:document-units="px"
     inkscape:current-layer="layer3"
     showgrid="false"
     inkscape:window-width="1912"
     inkscape:window-height="1153"
     inkscape:window-x="0"
     inkscape:window-y="0"
     borderlayer="true"
     showguides="true"
     inkscape:guide-bbox="true"
     inkscape:window-maximized="1" />
  <metadata
     id="metadata7">
    <rdf:RDF>
      <cc:Work
         rdf:about="">
        <dc:format>image/svg+xml</dc:format>
        <dc:type
           rdf:resource="http://purl.org/dc/dcmitype/StillImage" />
        <dc:title />
      </cc:Work>
    </rdf:RDF>
  </metadata>
  <g
     inkscape:label="Layer 1"
     inkscape:groupmode="layer"
     id="layer1"
     style="display:inline">
    <rect
       y="-144.6277"
       x="-434.55566"
       height="1294.1725"
       width="1555.3153"
       id="rect2895"
       style="fill:#ffffff;fill-opacity:1;stroke:#ffffff;stroke-width:4.36564445;stroke-miterlimit:4;stroke-opacity:1;stroke-dasharray:none;display:inline" />
    <path
       style="fill:#008000;fill-opacity:1"
       d="m -307.8607,-117.92013 1451.7572,0 0,1119.22143 -1451.7572,0 0,-1119.22143 0,0 z"
       id="rect3376" />
    <path
       sodipodi:type="arc"
       style="fill:#00aa44;fill-opacity:0.875;stroke:none"
       id="path3035"
       sodipodi:cx="986.56171"
       sodipodi:cy="467.80042"
       sodipodi:rx="768.53705"
       sodipodi:ry="786.70575"
       d="m 1755.0988,467.80042 a 768.53705,786.70575 0 1 1 -1537.07414,0 768.53705,786.70575 0 1 1 1537.07414,0 z"
       transform="matrix(1.3048326,0,0,1.1137296,-766.3469,255.29029)" />
    <path
       transform="matrix(1.3048326,0,0,1.1137296,-221.78668,-6.355574)"
       d="m 1755.0988,467.80042 a 768.53705,786.70575 0 1 1 -1537.07414,0 768.53705,786.70575 0 1 1 1537.07414,0 z"
       sodipodi:ry="786.70575"
       sodipodi:rx="768.53705"
       sodipodi:cy="467.80042"
       sodipodi:cx="986.56171"
       id="path3037"
       style="fill:#165016;fill-opacity:0.73786406;stroke:none"
       sodipodi:type="arc" />
    <path
       sodipodi:type="arc"
       style="fill:#00aa00;fill-opacity:0.73786406;stroke:none"
       id="path3039"
       sodipodi:cx="986.56171"
       sodipodi:cy="467.80042"
       sodipodi:rx="768.53705"
       sodipodi:ry="786.70575"
       d="m 1755.0988,467.80042 a 768.53705,786.70575 0 1 1 -1537.07414,0 768.53705,786.70575 0 1 1 1537.07414,0 z"
       transform="matrix(1.3048326,0,0,1.1137296,-234.58174,249.54547)" />
    <path
       transform="matrix(1.3048326,0,0,1.1137296,85.29456,25.632054)"
       d="m 1755.0988,467.80042 a 768.53705,786.70575 0 1 1 -1537.07414,0 768.53705,786.70575 0 1 1 1537.07414,0 z"
       sodipodi:ry="786.70575"
       sodipodi:rx="768.53705"
       sodipodi:cy="467.80042"
       sodipodi:cx="986.56171"
       id="path3041"
       style="fill:#1f241c;fill-opacity:0.73786406;stroke:none"
       sodipodi:type="arc" />
    <path
       sodipodi:type="arc"
       style="fill:#2aff2a;fill-opacity:0.73786406;stroke:none"
       id="path3043"
       sodipodi:cx="986.56171"
       sodipodi:cy="467.80042"
       sodipodi:rx="768.53705"
       sodipodi:ry="786.70575"
       d="m 1755.0988,467.80042 a 768.53705,786.70575 0 1 1 -1537.07414,0 768.53705,786.70575 0 1 1 1537.07414,0 z"
       transform="matrix(1.0173896,0,0,0.93120655,87.21382,420.29127)" />
    <path
       sodipodi:type="arc"
       style="fill:#165016;fill-opacity:0.73786406;stroke:none"
       id="path3045"
       sodipodi:cx="986.56171"
       sodipodi:cy="467.80042"
       sodipodi:rx="768.53705"
       sodipodi:ry="786.70575"
       d="m 1755.0988,467.80042 a 768.53705,786.70575 0 1 1 -1537.07414,0 768.53705,786.70575 0 1 1 1537.07414,0 z"
       transform="matrix(1.3048326,0,0,1.1137296,217.84094,307.2931)" />
    <path
       transform="matrix(1.0173896,0,0,0.93120655,181.10083,619.11084)"
       d="m 1755.0988,467.80042 a 768.53705,786.70575 0 1 1 -1537.07414,0 768.53705,786.70575 0 1 1 1537.07414,0 z"
       sodipodi:ry="786.70575"
       sodipodi:rx="768.53705"
       sodipodi:cy="467.80042"
       sodipodi:cx="986.56171"
       id="path3047"
       style="fill:#55ff55;fill-opacity:0.73786406;stroke:none"
       sodipodi:type="arc" />
    <path
       transform="matrix(0.81575531,0,0,1.1137296,502.15778,629.47086)"
       d="m 1755.0988,467.80042 a 768.53705,786.70575 0 1 1 -1537.07414,0 768.53705,786.70575 0 1 1 1537.07414,0 z"
       sodipodi:ry="786.70575"
       sodipodi:rx="768.53705"
       sodipodi:cy="467.80042"
       sodipodi:cx="986.56171"
       id="path3049"
       style="fill:#17280b;fill-opacity:0.73786406;stroke:none"
       sodipodi:type="arc" />
    <rect
       style="fill:url(#radialGradient92360);fill-opacity:1;stroke:none"
       id="rect3927"
       width="1540.8517"
       height="1252.2385"
       x="-343.81805"
       y="-234.49979"
       mask="none" />
  </g>
  <g
     inkscape:groupmode="layer"
     id="layer4"
     inkscape:label="lines"
     style="opacity:0.30232562">
    <g
       id="g3792"
       transform="matrix(0.21332372,0.46034494,0.46034494,-0.21332372,134.6384,765.21145)"
       style="fill:#0b280b;display:inline">
      <path
         id="path3873"
         d="m -908.3871,2229.6774 c 28.70794,-224.3578 84.63725,-445.1063 165.45569,-656.2146 10e-6,0 2e-5,0 3e-5,-10e-5 80.81876,-211.1081 186.55229,-412.6425 314.8471,-598.58077 2e-5,-3e-5 4e-5,-6e-5 6e-5,-8e-5 110.27419,-159.82183 236.94576,-308.26503 377.351734,-442.24112 l -6.922124,-7.21694 c -140.20684,135.17362 -266.47736,284.71699 -376.19665,445.50082 -10e-6,2e-5 -2e-5,3e-5 -3e-5,4e-5 -127.653,187.06515 -232.52278,389.51665 -312.34924,601.29625 -1e-5,0 -2e-5,0 -4e-5,0 -79.82681,211.7795 -134.63524,432.9537 -162.18653,657.4565 z"
         style="fill:#0b280b;stroke:none" />
      <path
         id="path3885"
         d="m -933.77032,2264.8564 c -18.72699,-152.1029 -6.44735,-307.641 33.74956,-455.2904 0,0 0,0 10e-6,0 40.19938,-147.6487 108.40335,-287.7246 201.35712,-408.9503 10e-6,-10e-5 2e-5,-10e-5 4e-5,-10e-5 71.5841,-93.3621 157.17962,-175.8884 252.9668,-243.9529 l -5.82448,-8.1286 c -96.06289,69.4028 -181.60376,153.2114 -252.88932,247.7109 0,0 -1e-5,0 -1e-5,0 -92.58262,122.739 -159.94441,263.9847 -199.09712,412.3863 -1e-5,10e-5 -1e-5,10e-5 -2e-5,10e-5 -39.15519,148.401 -50.18332,304.2738 -30.26258,456.225 z"
         style="fill:#0b280b;stroke:none" />
      <path
         id="path3891"
         d="m -338.92473,2316.7622 c -19.92074,-151.9512 -8.89261,-307.824 30.26258,-456.225 0,0 10e-6,0 10e-6,0 39.15271,-148.4017 106.5145,-289.6474 199.09711,-412.3864 10e-6,0 2e-5,0 3e-5,0 71.285563,-94.4995 156.82643,-178.3081 252.88932,-247.7109 l 5.82448,8.1286 c -95.787184,68.0645 -181.382703,150.5908 -252.9668,243.9529 -1e-5,0 -2e-5,0 -2e-5,0 -92.95378,121.2258 -161.15775,261.3017 -201.35714,408.9504 0,0 -10e-6,0 -10e-6,0 -40.19691,147.6494 -52.47655,303.1875 -33.74956,455.2904 z"
         style="fill:#0b280b;stroke:none" />
      <path
         id="path3897"
         d="m -315.67147,2323.7753 c -19.92074,-151.9512 -8.89261,-307.824 30.26259,-456.225 0,0 1e-5,0 1e-5,-1e-4 39.15271,-148.4016 106.5145,-289.6473 199.097101,-412.3863 1.3e-5,0 2.6e-5,0 3.8e-5,0 71.285558,-94.4995 156.826423,-178.3081 252.889311,-247.7109 l 5.82448,8.1286 c -95.787182,68.0645 -181.3826996,150.5908 -252.966799,243.9529 -92.953781,121.2258 -161.157761,261.3017 -201.357151,408.9504 -10e-6,0 -10e-6,0 -2e-5,0 -40.1969,147.6494 -52.47655,303.1875 -33.74956,455.2904 z"
         style="fill:#0b280b;stroke:none" />
      <path
         id="path3903"
         d="m -446.17487,2294.2993 c -18.72699,-152.1029 -6.44735,-307.641 33.74956,-455.2904 0,0 0,0 1e-5,0 40.19938,-147.6487 108.40335,-287.7246 201.35712,-408.9503 1e-5,-10e-5 2e-5,-10e-5 4e-5,-10e-5 71.5841,-93.3621 157.179616,-175.8884 252.966801,-243.9529 l -5.824482,-8.1286 c -96.062889,69.4028 -181.603759,153.2114 -252.889319,247.7109 0,0 -10e-6,0 -10e-6,0 -92.58262,122.739 -159.94441,263.9847 -199.09712,412.3863 -1e-5,10e-5 -1e-5,10e-5 -2e-5,10e-5 -39.15519,148.401 -50.18332,304.2738 -30.26258,456.225 z"
         style="fill:#0b280b;stroke:none" />
      <path
         id="path3909"
         d="m -68.42092,1929.2047 c -146.73053,-10.0405 -293.87782,-50.5435 -429.97877,-117.87 -10e-6,0 -2e-5,0 -3e-5,0 -136.09038,-67.3444 -261.44538,-161.6396 -364.65639,-279.0794 -10e-6,0 -3e-5,0 -4e-5,0 -79.41233,-90.3788 -145.98955,-193.721 -196.18015,-305.9634 41.1478,115.5315 99.67439,224.8846 173.15974,323.3807 6.66439,8.9256 13.45324,17.7553 20.36317,26.487 105.26047,106.1346 228.16287,189.9378 359.00247,249.2061 140.63891,63.71 290.76616,99.1763 438.29,103.839 z"
         style="fill:#0b280b;stroke:none" />
      <path
         id="path3913"
         d="m -72.260565,1983.7736 c -146.730525,-10.0405 -293.877805,-50.5435 -429.978765,-117.8701 -1e-5,0 -2e-5,0 -3e-5,0 -136.09037,-67.3443 -261.44537,-161.6396 -364.65639,-279.0793 -2e-5,0 -3e-5,0 -5e-5,0 -79.41234,-90.3788 -145.9896,-193.721 -196.1802,-305.9634 41.1478,115.5315 99.67443,224.8846 173.1598,323.3807 6.66439,8.9256 13.45323,17.7553 20.36315,26.487 105.26049,106.1346 228.16289,189.9378 359.0025,249.2061 140.6389,63.71 290.76615,99.1763 438.289985,103.839 z"
         style="fill:#0b280b;stroke:none" />
      <path
         id="path3919"
         d="m -254.16889,1936.2353 c -146.73053,-10.0405 -293.87782,-50.5435 -429.97877,-117.87 -10e-6,-10e-5 -2e-5,-10e-5 -3e-5,-10e-5 -136.09038,-67.3443 -261.44537,-161.6396 -364.65641,-279.0793 0,0 0,0 0,0 -79.4124,-90.3788 -145.9896,-193.721 -196.1802,-305.9634 41.1478,115.5315 99.6744,224.8846 173.1598,323.3807 6.6644,8.9256 13.4532,17.7553 20.3631,26.487 105.26051,106.1346 228.16291,189.9378 359.00251,249.2061 140.63891,63.71 290.76616,99.1763 438.29,103.839 z"
         style="fill:#0b280b;stroke:none" />
      <path
         id="path3925"
         d="m 217.21852,1864.8703 c -146.73052,-10.0404 -293.877806,-50.5434 -429.97876,-117.87 -136.09038,-67.3443 -261.44539,-161.6395 -364.65642,-279.0793 -10e-6,0 -3e-5,0 -4e-5,0 -79.41234,-90.3788 -145.98962,-193.721 -196.18019,-305.9634 41.14782,115.5315 99.67441,224.8846 173.15978,323.3807 6.66439,8.9256 13.45323,17.7553 20.36315,26.487 105.26048,106.1346 228.16289,189.9378 359.00249,249.2061 140.63891,63.71 290.766153,99.1763 438.28999,103.8389 z"
         style="fill:#0b280b;stroke:none" />
      <path
         id="path3879"
         d="m -134.83107,2138.4983 c -146.73052,-10.0404 -293.8778,-50.5434 -429.97876,-117.87 -10e-6,0 -10e-6,0 -2e-5,0 -136.09038,-67.3443 -261.44538,-161.6396 -364.6564,-279.0793 -1e-5,0 -3e-5,0 -4e-5,0 -79.41231,-90.3788 -145.98961,-193.721 -196.18021,-305.9634 41.1478,115.5315 99.6744,224.8846 173.15979,323.3807 6.6644,8.9256 13.45323,17.7553 20.36316,26.487 105.26048,106.1346 228.16289,189.9378 359.00249,249.2061 140.63891,63.71 290.76615,99.1763 438.28999,103.8389 z"
         style="fill:#0b280b;stroke:none" />
    </g>
    <path
       id="path3819"
       d="M 853.4285,539.53053 C 809.8233,474.28007 753.12995,418.15845 688.32034,374.44649 c 0,0 0,-10e-6 0,-10e-6 -64.80696,-43.71581 -137.86738,-75.1129 -214.16183,-90.98359 -10e-6,0 -2e-5,0 -3e-5,0 -58.74461,-12.21876 -119.24321,-15.57608 -178.82481,-9.96989 3.59826,1.36846 7.17005,2.76953 10.7149,4.20244 55.70909,-4.72153 112.22658,-1.56965 167.31612,9.42392 1e-5,0 1e-5,0 2e-5,1e-5 75.93145,15.14947 148.93008,45.80211 213.89602,88.86895 0,1e-5 9e-5,2e-5 9e-5,2e-5 64.96709,43.0652 122.04098,98.6337 166.16768,163.54219 z"
       style="fill:#0b280b;stroke:none;display:inline" />
    <path
       id="path3823"
       d="M 680.01636,323.32646 C 636.41118,258.07599 579.71779,201.95437 514.90819,158.2424 c 0,-1e-5 -10e-6,-1e-5 -10e-6,-1e-5 -64.80693,-43.71582 -137.86741,-75.112908 -214.16185,-90.98361 -10e-6,0 -2e-5,0 -3e-5,0 -58.74462,-12.218769 -119.24321,-15.576086 -178.82482,-9.9699 3.59829,1.368452 7.17012,2.769519 10.715,4.202435 55.70907,-4.721509 112.22653,-1.569635 167.31603,9.423941 75.93144,15.149477 148.9301,45.802124 213.8961,88.868974 0,1e-5 10e-6,1e-5 2e-5,2e-5 64.96713,43.0652 122.04106,98.6337 166.16773,163.54221 z"
       style="fill:#0b280b;stroke:none;display:inline" />
    <path
       id="path3825"
       d="M 1095.82,143.02397 C 1052.2149,77.773493 995.5215,21.651876 930.7119,-22.0601 c 0,0 0,-1e-5 0,-1e-5 -64.807,-43.71582 -137.86741,-75.1129 -214.16186,-90.98361 0,0 -8e-5,0 -8e-5,0 -58.74456,-12.21876 -119.24319,-15.57609 -178.82482,-9.96991 3.59829,1.36845 7.17017,2.76952 10.71502,4.20243 55.70904,-4.7215 112.22655,-1.56962 167.31604,9.42396 75.93141,15.14948 148.9301,45.80213 213.8961,88.86898 0,1e-5 0,1e-5 0,1e-5 64.9671,43.065209 122.0411,98.63371 166.1677,163.54222 z"
       style="fill:#0b280b;stroke:none;display:inline" />
    <path
       id="path3827"
       d="m 1125.4322,398.62396 c -43.6051,-65.25048 -100.2985,-121.37209 -165.1081,-165.08407 0,0 0,0 0,-1e-5 -64.807,-43.71582 -137.8674,-75.11291 -214.16185,-90.98362 0,0 -9e-5,0 -9e-5,0 -58.74456,-12.21877 -119.24319,-15.57611 -178.82482,-9.96992 3.59829,1.36845 7.17017,2.76952 10.71503,4.20244 55.70904,-4.72151 112.22654,-1.56962 167.31603,9.42395 0,1e-5 0,1e-5 0,1e-5 75.9315,15.14949 148.9301,45.80214 213.8961,88.86899 0,0 0,1e-5 0,2e-5 64.9671,43.06519 122.0411,98.63369 166.1677,163.54221 z"
       style="fill:#0b280b;stroke:none;display:inline" />
    <g
       style="fill:#0b280b;display:inline"
       id="g2881"
       transform="matrix(0.51900614,0.71102024,-0.71102024,0.51900614,258.2258,-505.49554)">
      <path
         id="path3811"
         d="m -933.77032,2264.8564 c -18.72699,-152.1029 -6.44735,-307.641 33.74956,-455.2904 0,0 0,0 10e-6,0 40.19938,-147.6487 108.40335,-287.7246 201.35712,-408.9503 10e-6,-10e-5 2e-5,-10e-5 4e-5,-10e-5 71.5841,-93.3621 157.17962,-175.8884 252.9668,-243.9529 l -5.82448,-8.1286 c -96.06289,69.4028 -181.60376,153.2114 -252.88932,247.7109 0,0 -1e-5,0 -1e-5,0 -92.58262,122.739 -159.94441,263.9847 -199.09712,412.3863 -1e-5,10e-5 -1e-5,10e-5 -2e-5,10e-5 -39.15519,148.401 -50.18332,304.2738 -30.26258,456.225 z"
         style="fill:#0b280b;stroke:none"
         transform="matrix(1,0,0,-1,1220.8179,2075.2958)" />
      <path
         id="path3815"
         d="m 905.14643,-248.4795 c -19.92072,151.951208 -8.89258,307.824018 30.26262,456.225 10e-6,1e-5 10e-6,2e-5 10e-6,4e-5 39.15272,148.40161 106.51454,289.64735 199.09714,412.38632 0,1e-5 0,3e-5 0,5e-5 71.2855,94.49947 156.8264,178.30813 252.8893,247.71093 l 5.8244,-8.12868 c -95.7871,-68.06449 -181.3826,-150.5908 -252.9667,-243.95287 0,-10e-6 0,-10e-6 0,-2e-5 C 1047.2994,494.5355 979.09544,354.4596 938.89605,206.81093 c -10e-6,-2e-5 -10e-6,-4e-5 -2e-5,-6e-5 C 898.69912,59.161501 886.41946,-96.376557 905.14643,-248.4795 z"
         style="fill:#0b280b;stroke:none" />
      <path
         id="path3817"
         d="m 774.64303,-219.0035 c -19.92072,151.951208 -8.89258,307.824018 30.26262,456.225 10e-6,1e-5 10e-6,2e-5 10e-6,4e-5 39.15272,148.40161 106.5145,289.64735 199.09714,412.38632 0,1e-5 0,3e-5 0,5e-5 71.2855,94.49947 156.8264,178.30813 252.8893,247.71093 l 5.8244,-8.12868 c -95.7871,-68.06449 -181.3826,-150.5908 -252.9667,-243.95287 0,-10e-6 0,-10e-6 0,-2e-5 C 916.79601,524.0115 848.59204,383.9356 808.39265,236.28693 c -10e-6,-2e-5 -10e-6,-4e-5 -2e-5,-6e-5 C 768.19572,88.637501 755.91606,-66.900557 774.64303,-219.0035 z"
         style="fill:#0b280b;stroke:none" />
    </g>
    <path
       id="path3821"
       d="M 811.9124,89.587766 C 673.26485,63.395038 531.92066,65.911331 397.85155,93.579581 263.78008,121.22977 136.70851,174.11116 26.55549,248.52116 -58.3367,305.84106 -133.60842,375.38169 -196.26139,453.45844 -127.43219,381.17846 -47.73065,319.29298 39.14255,270.59614 46.98861,266.19405 54.89743,261.904 62.8655,257.72641 162.33073,188.99947 277.23435,137.74273 399.71124,107.81435 531.36255,75.646351 672.04204,68.021404 811.9124,89.587766 z"
       style="fill:#0b280b;stroke:none;display:inline" />
    <path
       style="fill:#0b280b;stroke:none;display:inline"
       d="m 228.86422,-212.00378 c 95.19913,38.52027 184.80773,91.46508 264.76955,156.58171 10e-6,10e-6 2e-5,10e-6 2e-5,2e-5 103.81603,84.529601 190.56951,190.35857 255.00261,308.58299 0,2e-5 0,3e-5 0,5e-5 64.4303,118.22589 106.6818,249.09896 121.6276,383.63928 2.0308,-8.66473 3.9479,-17.39029 5.75,-26.17325 -18.3505,-126.69478 -60.5603,-249.19391 -122.2167,-360.18828 0,0 0,-1e-5 0,-2e-5 C 688.05194,132.07271 600.04721,26.542216 495.26345,-57.36823 c -10e-6,-2e-5 -3e-5,-3e-5 -5e-5,-4e-5 -80.70046,-64.63131 -170.87193,-116.89515 -266.39918,-154.63551 z"
       id="path3813" />
  </g>
  <g
     inkscape:groupmode="layer"
     id="layer6"
     inkscape:label="logoscreen"
     style="display:inline">
    <path
       style="fill:url(#linearGradient92373);fill-opacity:1;stroke:none;display:inline"
       mask="none"
       d="m 1197.7229,648.97457 -629.71271,5.28177 -6.79476,0.0825 -1.21041,0 -0.6052,0 -957.97971,-2.77843 0,463.36469 1596.30279,0 0,-465.95055 z m -695.15705,1.65055 -10.72858,0.055 22.83262,2.66839 -11.93898,-2.72341 -0.16506,0 z m 22.55753,0 8.55536,2.971 6.13454,0 -6.32711,-2.971 -8.36279,0 z m 16.91815,0 4.89663,2.99851 1.67806,0 -3.93381,-2.99851 -0.99033,0 -1.65055,0 z m 8.03268,0 3.13605,2.99851 0.27509,0 -2.53085,-2.99851 -0.88029,0 z m 5.03418,0 0.6052,0.8803 -0.46766,-0.8803 -0.13754,0 z m 5.14422,0 0.49516,3.02601 0.52268,0 -0.85279,-3.02601 -0.16505,0 z m 2.94348,0 -0.16506,3.02601 0.5777,0 -0.19257,-3.02601 -0.22007,0 z m 2.9985,0 -0.82528,3.02601 0.52268,0 0.46765,-3.02601 -0.16505,0 z m 5.14422,0 -0.44015,0.85279 0.55018,-0.85279 -0.11003,0 z m 4.26387,0 -2.5308,3.02601 0.24759,0 3.10858,-3.02601 -0.82537,0 z m 6.16206,0 -3.90621,3.02601 1.56797,0 4.84162,-3.02601 -0.77026,0 -1.73312,0 z m 10.92119,0 -6.32711,3.02601 5.77693,0 8.50038,-3.02601 -1.21041,0 -1.84316,0 -1.45794,0 -1.43048,0 -1.18293,0 -0.82528,0 z m 29.26977,0 -11.82895,2.77843 22.30999,-2.77843 -10.48104,0 z m -52.70759,0.60521 -1.23792,2.4208 0.33011,0 0.90781,-2.4208 z m -11.85646,0.0825 0.9078,2.33828 0.33011,0 -1.23791,-2.33828 z"
       id="path92330" />
    <path
       transform="matrix(0.88029168,0.00194585,-0.00194585,0.88029168,-305.32897,-83.28486)"
       sodipodi:nodetypes="ccccccccccccccccccccccccccccccccccccccccccccccccccccccccccc"
       mask="url(#mask92320)"
       id="path92370"
       d="m 873.34375,-1013.625 113.5625,1848.59375 -1.21875,0 L 688.6875,-967 479.59375,-946.5625 984.25,834.96875 l -1.34375,0 -673.78125,-1696.625 -199.96875,64.5 872.09375,1632.125 -1.6875,0 -1018.84375,-1512.875 -181.625,105.625 1198.34375,1407.25 -2.3125,0 L -340.5625,-424.125 -495.53125,-282.25 971.90625,834.96875 l -3.875,0 L -580.84375,-112 l -121.1875,171.625 1663.9375,775.34375 -8.8125,0 -1702.25,-590.8125 -81.8125,193.5 1765.3125,397.3125 -1772.03125,-207 -38.75,206.5 1860.61333,1.28261 1841.63667,-19.50136 10.375,-209.875 -1797.5937,228.59375 1738.5,-409.625 -34.5938,-207.25 -1721.3438,616.875 -8.4062,0 1633.4375,-781.15625 -77.9687,-195.09375 -1561.375,976.25 -3.75,0 1436.0624,-1116.25 -117.75,-174.03125 -1321.4687,1290.28125 -2.28125,0 L 2165.4688,-564.59375 2013.375,-709.5625 995.5625,834.96875 l -1.65625,0 L 1837.7188,-783.125 1658.25,-892.34375 992.28125,834.96875 l -1.34375,0 480.0313,-1761.75 -198.6563,-68.5 -282.8125,1830.25 -1.21875,0 93.71875,-1824 -208.65625,-24.59375 0,0 z"
       style="fill:url(#linearGradient92368);fill-opacity:1;stroke:none;display:inline" />
  </g>
  <g
     inkscape:groupmode="layer"
     id="layer3"
     inkscape:label="sun"
     style="display:inline">
    <rect
       y="-30.051847"
       x="-89.058128"
       height="679.27069"
       width="1098.0459"
       id="rect13502"
       style="opacity:0.69082121;fill:#000000;display:inline" />
  </g>
</svg>
