<?xml version="1.0" encoding="UTF-8" standalone="no"?>
<!-- Created with Inkscape (http://www.inkscape.org/) -->

<svg
   xmlns:dc="http://purl.org/dc/elements/1.1/"
   xmlns:cc="http://creativecommons.org/ns#"
   xmlns:rdf="http://www.w3.org/1999/02/22-rdf-syntax-ns#"
   xmlns:svg="http://www.w3.org/2000/svg"
   xmlns="http://www.w3.org/2000/svg"
   xmlns:xlink="http://www.w3.org/1999/xlink"
   xmlns:sodipodi="http://sodipodi.sourceforge.net/DTD/sodipodi-0.dtd"
   xmlns:inkscape="http://www.inkscape.org/namespaces/inkscape"
   width="800"
   height="600"
   id="svg2"
   sodipodi:version="0.32"
   inkscape:version="0.47 r22583"
   sodipodi:docname="welcome.svg"
   inkscape:output_extension="org.inkscape.output.svg.inkscape"
   version="1.0"
   inkscape:export-filename="back.png"
   inkscape:export-xdpi="90"
   inkscape:export-ydpi="90"
   style="display:inline;enable-background:new">
  <defs
     id="defs4">
    <linearGradient
       inkscape:collect="always"
       id="linearGradient5088">
      <stop
         style="stop-color:#af0000;stop-opacity:1;"
         offset="0"
         id="stop5090" />
      <stop
         style="stop-color:#af0000;stop-opacity:0;"
         offset="1"
         id="stop5092" />
    </linearGradient>
    <filter
       color-interpolation-filters="sRGB"
       inkscape:menu-tooltip="Inky splotches underneath the object"
       inkscape:menu="Protrusions"
       inkscape:label="Ink bleed"
       id="filter3814">
      <feGaussianBlur
         stdDeviation="4.2000000000000002"
         in="SourceGraphic"
         result="result1"
         id="feGaussianBlur3816" />
      <feTurbulence
         baseFrequency="0.042000000000000003"
         numOctaves="4"
         result="result0"
         id="feTurbulence3818" />
      <feDisplacementMap
         in="result1"
         xChannelSelector="R"
         yChannelSelector="G"
         scale="42"
         result="result2"
         in2="result0"
         id="feDisplacementMap3820" />
      <feColorMatrix
         result="result3"
         values="2 0 0 0 0 0 2 0 0 0 0 0 2 0 0 0 0 0 0.7 0"
         id="feColorMatrix3822" />
      <feGaussianBlur
         stdDeviation="42"
         in="SourceGraphic"
         result="result4"
         id="feGaussianBlur3824" />
      <feComposite
         in="result4"
         in2="result3"
         id="feComposite3826" />
    </filter>
    <filter
       inkscape:collect="always"
       id="filter4992">
      <feGaussianBlur
         inkscape:collect="always"
         stdDeviation="2.1732078"
         id="feGaussianBlur4994" />
    </filter>
    <filter
       id="filter4202"
       inkscape:label="Motion blur, vertical"
       inkscape:menu="Blurs"
       inkscape:menu-tooltip="Blur as if the object flies vertically; adjust Standard Deviation to vary force"
       color-interpolation-filters="sRGB"
       width="2"
       height="4"
       y="-1.5"
       x="-0.5">
      <feTurbulence
         id="feTurbulence4204"
         baseFrequency="0.14299516908212559"
         numOctaves="2"
         type="fractalNoise" />
      <feColorMatrix
         id="feColorMatrix4206"
         values="1 0 0 0 0 0 1 0 0 0 0 0 1 0 0 0 0 0 6 -3.5 "
         result="result5" />
      <feComposite
         id="feComposite4208"
         in2="result5"
         operator="in"
         in="SourceGraphic"
         result="result6" />
      <feMorphology
         id="feMorphology4210"
         result="result3"
         radius="5"
         operator="dilate"
         in="result6" />
      <feDisplacementMap
         id="feDisplacementMap4212"
         in2="result3"
         result="result4"
         scale="35.507246376811594"
         yChannelSelector="A"
         xChannelSelector="R"
         in="result3" />
      <feComposite
         id="feComposite4214"
         in2="result4"
         operator="arithmetic"
         result="result2"
         k1="1"
         k3="1" />
      <feBlend
         id="feBlend4216"
         in2="result2"
         mode="darken"
         in="result2" />
      <feConvolveMatrix
         id="feConvolveMatrix4218"
         order="3 3"
         kernelMatrix="2 0 0 0 1 0 0 0 -1 "
         targetX="1"
         targetY="1"
         divisor="2"
         result="fbSourceGraphic" />
      <feColorMatrix
         result="fbSourceGraphicAlpha"
         in="fbSourceGraphic"
         values="0 0 0 -1 0 0 0 0 -1 0 0 0 0 -1 0 0 0 0 1 0"
         id="feColorMatrix4220" />
      <feGaussianBlur
         id="feGaussianBlur4222"
         result="result1"
         in="fbSourceGraphic"
         stdDeviation="5" />
      <feTurbulence
         id="feTurbulence4224"
         result="result0"
         numOctaves="8"
         baseFrequency="0.02" />
      <feDisplacementMap
         id="feDisplacementMap4226"
         in2="result0"
         result="result2"
         scale="40"
         yChannelSelector="G"
         xChannelSelector="R"
         in="result1" />
      <feColorMatrix
         id="feColorMatrix4229"
         values="2 0 0 0 0 0 2 0 0 0 0 0 2 0 0 0 0 0 0.7 0"
         result="result3" />
      <feGaussianBlur
         id="feGaussianBlur4231"
         result="result4"
         in="fbSourceGraphic"
         stdDeviation="1.1" />
      <feComposite
         id="feComposite4233"
         in2="result3"
         in="result4"
         result="fbSourceGraphic" />
      <feColorMatrix
         result="fbSourceGraphicAlpha"
         in="fbSourceGraphic"
         values="0 0 0 -1 0 0 0 0 -1 0 0 0 0 -1 0 0 0 0 1 0"
         id="feColorMatrix4268" />
      <feGaussianBlur
         id="feGaussianBlur4270"
         stdDeviation="0.01"
         result="result1"
         in="fbSourceGraphic" />
      <feBlend
         id="feBlend4272"
         in2="result1"
         result="fbSourceGraphic"
         mode="multiply" />
      <feTurbulence
         id="feTurbulence4274"
         baseFrequency="0.8"
         type="fractalNoise"
         seed="0"
         numOctaves="3"
         result="result3" />
      <feDisplacementMap
         id="feDisplacementMap4276"
         in2="result3"
         in="fbSourceGraphic"
         xChannelSelector="R"
         yChannelSelector="G"
         scale="50"
         result="result2" />
      <feMorphology
         id="feMorphology4278"
         radius="1"
         operator="dilate"
         result="result4" />
      <feBlend
         id="feBlend4280"
         in2="result2"
         mode="screen"
         result="fbSourceGraphic" />
      <feColorMatrix
         result="fbSourceGraphicAlpha"
         in="fbSourceGraphic"
         values="0 0 0 -1 0 0 0 0 -1 0 0 0 0 -1 0 0 0 0 1 0"
         id="feColorMatrix4282" />
      <feGaussianBlur
         id="feGaussianBlur4284"
         in="fbSourceGraphic"
         stdDeviation="0.01 60" />
    </filter>
    <linearGradient
       inkscape:collect="always"
       xlink:href="#linearGradient5088"
       id="linearGradient5094"
       x1="1667.4966"
       y1="281.86401"
       x2="1667.4966"
       y2="104.32729"
       gradientUnits="userSpaceOnUse" />
    <filter
       x="-0.5"
       y="-0.5"
       height="2"
       width="2"
       color-interpolation-filters="sRGB"
       inkscape:menu-tooltip="Blur as if the object flies vertically; adjust Standard Deviation to vary force"
       inkscape:menu="Blurs"
       inkscape:label="Motion blur, vertical"
       id="filter4994">
      <feTurbulence
         type="fractalNoise"
         numOctaves="1"
         baseFrequency="0.40000000000000002"
         id="feTurbulence4996" />
      <feColorMatrix
         result="result5"
         values="1 0 0 0 0 0 1 0 0 0 0 0 1 0 0 0 0 0 6 -3.5 "
         id="feColorMatrix4998" />
      <feComposite
         result="result6"
         in="SourceGraphic"
         operator="in"
         in2="result5"
         id="feComposite5000" />
      <feMorphology
         in="result6"
         operator="dilate"
         radius="2.5"
         result="result3"
         id="feMorphology5002" />
      <feDisplacementMap
         in="result3"
         xChannelSelector="R"
         yChannelSelector="A"
         scale="0"
         result="result4"
         in2="result3"
         id="feDisplacementMap5004" />
      <feComposite
         k3="1"
         k1="1"
         result="result2"
         operator="arithmetic"
         in2="result4"
         id="feComposite5006" />
      <feBlend
         mode="darken"
         id="feBlend5008"
         in2="result2"
         in="result2" />
      <feConvolveMatrix
         result="fbSourceGraphic"
         divisor="2"
         targetY="1"
         targetX="1"
         kernelMatrix="2 0 0 0 1 0 0 0 -1 "
         order="3 3"
         id="feConvolveMatrix5010" />
      <feColorMatrix
         id="feColorMatrix5012"
         values="0 0 0 -1 0 0 0 0 -1 0 0 0 0 -1 0 0 0 0 1 0"
         in="fbSourceGraphic"
         result="fbSourceGraphicAlpha" />
      <feGaussianBlur
         stdDeviation="5"
         in="fbSourceGraphic"
         result="result1"
         id="feGaussianBlur5014" />
      <feTurbulence
         baseFrequency="0.16"
         numOctaves="4"
         result="result0"
         id="feTurbulence5016" />
      <feDisplacementMap
         in="result1"
         xChannelSelector="R"
         yChannelSelector="G"
         scale="10"
         result="result2"
         in2="result0"
         id="feDisplacementMap5018" />
      <feColorMatrix
         result="result3"
         values="2 0 0 0 0 0 2 0 0 0 0 0 2 0 0 0 0 0 0.7 0"
         id="feColorMatrix5020" />
      <feGaussianBlur
         stdDeviation="0.01"
         in="fbSourceGraphic"
         result="result4"
         id="feGaussianBlur5022" />
      <feComposite
         result="fbSourceGraphic"
         in="result4"
         in2="result3"
         id="feComposite5024" />
      <feColorMatrix
         id="feColorMatrix5026"
         values="0 0 0 -1 0 0 0 0 -1 0 0 0 0 -1 0 0 0 0 1 0"
         in="fbSourceGraphic"
         result="fbSourceGraphicAlpha" />
      <feGaussianBlur
         in="fbSourceGraphic"
         result="result1"
         stdDeviation="0.01"
         id="feGaussianBlur5028" />
      <feBlend
         mode="multiply"
         result="fbSourceGraphic"
         in2="result1"
         id="feBlend5030" />
      <feTurbulence
         result="result3"
         numOctaves="8"
         seed="0"
         type="fractalNoise"
         baseFrequency="0.10000000000000001"
         id="feTurbulence5032" />
      <feDisplacementMap
         result="result2"
         scale="40"
         yChannelSelector="G"
         xChannelSelector="R"
         in2="result3"
         id="feDisplacementMap5034"
         in="fbSourceGraphic" />
      <feMorphology
         result="result4"
         operator="dilate"
         radius="1"
         id="feMorphology5036" />
      <feBlend
         result="fbSourceGraphic"
         mode="screen"
         in2="result2"
         id="feBlend5038" />
      <feColorMatrix
         id="feColorMatrix5040"
         values="0 0 0 -1 0 0 0 0 -1 0 0 0 0 -1 0 0 0 0 1 0"
         in="fbSourceGraphic"
         result="fbSourceGraphicAlpha" />
      <feGaussianBlur
         stdDeviation="0.01 60"
         in="fbSourceGraphic"
         id="feGaussianBlur5042" />
    </filter>
    <linearGradient
       inkscape:collect="always"
       xlink:href="#linearGradient5088"
       id="linearGradient4037"
       gradientUnits="userSpaceOnUse"
       x1="533.05945"
       y1="1581.8812"
       x2="533.05945"
       y2="1457.3235" />
    <linearGradient
       inkscape:collect="always"
       xlink:href="#linearGradient5088"
       id="linearGradient4039"
       gradientUnits="userSpaceOnUse"
       x1="533.05945"
       y1="1581.8812"
       x2="533.05945"
       y2="1457.3235" />
    <linearGradient
       inkscape:collect="always"
       xlink:href="#linearGradient5088"
       id="linearGradient4041"
       gradientUnits="userSpaceOnUse"
       x1="533.05945"
       y1="1581.8812"
       x2="533.05945"
       y2="1457.3235" />
    <linearGradient
       inkscape:collect="always"
       xlink:href="#linearGradient5088"
       id="linearGradient4043"
       gradientUnits="userSpaceOnUse"
       x1="533.05945"
       y1="1581.8812"
       x2="533.05945"
       y2="1457.3235" />
    <linearGradient
       inkscape:collect="always"
       xlink:href="#linearGradient5088"
       id="linearGradient4045"
       gradientUnits="userSpaceOnUse"
       x1="533.05945"
       y1="1581.8812"
       x2="533.05945"
       y2="1457.3235" />
    <linearGradient
       inkscape:collect="always"
       xlink:href="#linearGradient5088"
       id="linearGradient4047"
       gradientUnits="userSpaceOnUse"
       x1="533.05945"
       y1="1581.8812"
       x2="533.05945"
       y2="1457.3235" />
    <linearGradient
       inkscape:collect="always"
       xlink:href="#linearGradient5088"
       id="linearGradient4049"
       gradientUnits="userSpaceOnUse"
       x1="533.05945"
       y1="1581.8812"
       x2="533.05945"
       y2="1457.3235" />
  </defs>
  <sodipodi:namedview
     id="base"
     pagecolor="#000000"
     bordercolor="#666666"
     borderopacity="1.0"
     gridtolerance="10000"
     guidetolerance="10"
     objecttolerance="10"
     inkscape:pageopacity="1"
     inkscape:pageshadow="2"
     inkscape:zoom="1"
     inkscape:cx="484.45991"
     inkscape:cy="289.32505"
     inkscape:document-units="px"
     inkscape:current-layer="layer2"
     showgrid="false"
     inkscape:window-width="1912"
     inkscape:window-height="1153"
     inkscape:window-x="0"
     inkscape:window-y="0"
     borderlayer="true"
     showguides="true"
     inkscape:guide-bbox="true"
     inkscape:snap-global="false"
     inkscape:window-maximized="1" />
  <metadata
     id="metadata7">
    <rdf:RDF>
      <cc:Work
         rdf:about="">
        <dc:format>image/svg+xml</dc:format>
        <dc:type
           rdf:resource="http://purl.org/dc/dcmitype/StillImage" />
        <dc:title />
      </cc:Work>
    </rdf:RDF>
  </metadata>
  <g
     inkscape:groupmode="layer"
     id="layer3"
     inkscape:label="background"
     style="display:inline"
     sodipodi:insensitive="true">
    <g
       style="display:inline;enable-background:new"
       transform="matrix(0.4699477,0,0,0.4699477,-92.15466,373.6776)"
       id="layer1"
       inkscape:label="Layer 1">
      <path
         inkscape:connector-curvature="0"
         id="outline"
         d="m 1162.8796,-980.33996 c 140.2135,2.50566 269.837,169.99699 269.837,169.99699 213.7008,-176.36501 212.3611,236.6464 212.3611,236.6464 198.8021,91.75088 147.3311,417.16757 147.3311,417.16757 l -62.0628,13.76157 c 49.8273,97.605245 77.9826,207.782774 77.9826,324.34379 0,34.41212 -2.5533,68.04815 -7.2851,101.18841 105.1496,17.81255 307.5052,64.49836 272.5342,155.42582 l 18.6191,37.50739 c 0,0 93.7813,37.51772 75.0142,98.48999 -11.2544,36.56321 -101.4967,109.86804 -172.1554,162.98167 25.7678,10.17236 107.2948,46.99771 87.1575,102.2673 -23.818,65.33327 -327.3123,241.23416 -327.3123,241.23416 l 148.68,-226.12302 c 0,0 -266.6452,-31.4146 -360.5017,-116.83901 -11.8787,9.76158 -23.935,19.31075 -36.4279,28.33263 51.6598,24.56499 85.6792,57.00071 69.6186,98.75995 l 18.8878,37.50756 c 0,0 93.7812,37.5182 75.0154,98.49049 -18.7675,60.9716 -257.9655,225.0437 -257.9636,225.0437 l 117.3783,-211.0127 c 0,0 -132.6055,-18.35499 -224.2337,-65.83999 9.6237,131.17199 -96.5222,291.84129 -272.5361,393.15239 -170.5216,98.15 -355.91411,110.9679 -466.00663,44.253 54.7258,-8.2659 114.74851,-28.9788 172.69469,-62.3327 154.52833,-88.9432 238.13554,-233.6798 186.72752,-322.9943 -51.23621,-89.01599 -217.46922,-89.40249 -371.56546,-1.34889 46.51053,-60.1951 110.6004,-116.3426 188.34642,-161.0928 3.0625,-1.76274 6.10201,-3.41802 9.17358,-5.12673 -43.91942,-21.04442 -85.31943,-46.40129 -123.8541,-75.28427 -9.31867,42.7975 -25.58262,87.16416 -49.37995,130.3312 -31.43096,57.0134 -71.35533,104.1423 -114.41055,138.69629 61.83135,-112.99299 59.61064,-233.58015 -5.66639,-269.56692 -65.49659,-36.10751 -169.58957,26.72701 -232.05951,140.04483 -23.42725,42.494 -37.63967,86.1932 -42.90425,126.01409 C 149.54242,969.30861 142.38522,888.39401 163.67534,802.4696 127.60485,779.64973 -55.053453,662.01468 -73.780461,606.83793 -94.475913,545.86628 9.059584,508.34797 9.059584,508.34797 L 29.567537,470.84058 C 10.040795,424.81071 57.767878,390.12066 124.54961,364.79474 88.47367,337.2273 57.623443,309.69811 51.962626,293.01845 36.91041,248.63299 112.40639,221.51216 112.40639,221.51216 l 14.84105,-27.25372 C 99.33717,128.47062 259.69255,94.588254 344.46593,81.466844 394.119,-271.10096 702.07191,-542.93495 1072.7537,-542.93495 c 177.9762,0 341.5133,62.56571 468.9772,166.75898 -23.8085,-67.66586 -40.4766,-122.77583 -40.4766,-122.77583 -88.1233,19.39688 -176.2025,-213.71029 -176.2025,-213.71029 -76.3771,16.81091 -373.18475,-77.98282 -373.18475,-77.98282 0,0 -97.97724,101.41608 -145.44091,25.63454 -47.47349,-75.76429 -145.44166,1.34916 -145.44166,1.34916 226.37321,-314.66279 288.45471,-88.23655 288.45471,-88.23655 l 62.87081,-50.72921 c 47.7768,-57.96208 99.8552,-78.61923 150.5696,-77.71299 z m -2.1578,33.45975 c -97.4105,-3.0522 -133.0302,89.31799 -133.0302,89.31592 44.6943,28.58062 340.8027,21.04722 340.8027,21.04722 -88.8341,-81.13047 -156.7499,-108.76428 -207.7725,-110.36314 z m 333.2473,136.53724 c -21.3166,-0.66402 -36.4272,7.28558 -36.4272,7.28558 l 107.9349,163.52082 c 26.0569,28.27435 11.1723,60.33451 -5.3976,82.03057 -12.9491,10.32529 -23.1998,19.93696 -23.7453,25.09475 0,0 12.2404,-10.03342 23.7453,-25.09475 24.0789,-19.2015 57.7442,-40.74526 57.7442,-40.74526 -20.3334,-178.28505 -83.1588,-210.82385 -123.8543,-212.09171 z m 147.0611,274.15379 c 47.7315,42.31746 14.5711,284.67444 14.5711,284.67748 l 106.8547,48.57054 c 15.1826,-214.60567 -121.4258,-333.24802 -121.4258,-333.24802 z m -568.2765,91.74481 c -352.64275,0 -636.8124,280.34496 -636.81425,626.02073 0,4.99153 0.15749,9.87686 0.267,14.84047 173.08064,255.89213 633.71605,95.73451 901.25425,-92.28365 253.882,-178.422254 348.9424,14.6845 372.3745,78.79209 6e-4,-0.45508 0,-0.89564 0,-1.34891 0,-345.67577 -284.4402,-626.02073 -637.0852,-626.02073 z M 1149.9281,-40.229505 804.80707,223.13111 C 727.88096,92.591274 1149.9281,-40.229505 1149.9281,-40.229505 z m -579.33948,21.316799 c 59.82409,-1.91444 82.84061,247.170636 82.84061,247.170636 L 550.89067,-9.4684957 c 6.99215,-6.1183403 13.50922,-9.2457803 19.69795,-9.4442103 z M 344.46593,99.006334 C 223.5305,98.520914 146.13586,184.00477 146.13586,184.00477 l 1.88895,42.63424 c 39.51771,0 229.6305,-78.52269 229.6305,-78.52269 l 5.66695,-46.14214 C 369.9144,99.894094 356.97698,99.056104 344.46593,99.006334 z M 1432.4465,233.92422 c -45.494,-1.12987 -109.8237,43.17365 -109.8237,43.17365 -565.26311,225.43028 -864.55512,7.82529 -864.55512,7.82529 83.12818,209.87075 897.77862,171.03083 947.66592,163.25108 49.886,-7.77975 91.3084,-116.76491 66.3781,-186.72689 -7.0145,-19.67663 -21.8635,-27.08079 -39.6652,-27.52313 z M 118.07326,242.0195 c 0,0 -86.707174,22.15905 -37.77681,37.5074 l 37.77681,-37.5074 z m 223.42486,15.11049 c -73.36981,33.34719 -176.47387,46.14213 -176.47387,46.14213 l 25.09535,41.01528 c 59.24775,-15.81922 118.69571,-25.61414 159.20318,-31.30105 -3.42899,-18.35808 -5.83556,-37.04442 -7.82466,-55.85636 z m 1461.43378,50.19008 c -15.5886,0.0728 -31.5943,1.45934 -48.3011,4.31736 l 7.0163,63.14157 c 0,0 236.7879,107.93478 286.0265,107.93478 l 2.4296,-58.55478 c 0,0 -96.4846,-117.50399 -247.1713,-116.83893 z M 328.00539,339.97003 C 161.80278,339.30498 55.471136,456.80898 55.471136,456.80898 l 2.697823,58.55479 c 54.318121,0 315.439591,-107.66478 315.439591,-107.66478 l 7.82541,-63.41159 c -18.42666,-2.85801 -36.23446,-4.2488 -53.42857,-4.31737 z m 158.66422,66.64947 c 92.94938,119.58046 679.17239,302.46874 693.48009,309.50274 14.3076,7.03402 107.1247,-35.21977 107.1247,-84.45898 0,-49.23922 -49.9195,-84.45899 -49.9195,-84.45899 C 1115.8182,610.5115 486.66961,406.6195 486.66961,406.6195 z m 1256.35849,73.39586 c -9.955,21.59047 -21.2081,42.47099 -33.19,62.87154 132.4786,25.7155 288.8036,73.10155 253.3763,150.83903 l 2.4292,4.04736 60.9826,-109.55373 c 0,0 -209.1323,-28.96186 -283.5981,-108.2042 z M 409.49707,494.31637 c -0.5946,0.88168 -0.99334,1.82707 -1.62018,2.69843 0.82899,-0.3216 1.60018,-0.76639 2.42898,-1.07949 -0.267,-0.54006 -0.53993,-1.07645 -0.81175,-1.61894 z m 1675.68313,9.4442 46.9524,51.53898 c 60.9723,-21.1026 -46.9524,-51.53898 -46.9524,-51.53898 z m -2068.565361,32.92 c 0,0 -118.785549,30.43639 -51.539602,51.53899 L 16.614839,536.68057 z M 1619.9817,553.4106 c -19.7852,0.079 -40.3158,1.52488 -61.5221,4.58739 l 8.9049,67.99838 c 0,0 300.4233,115.49004 362.9313,115.49004 l 2.9672,-62.87157 c 0,0 -122.012,-125.91906 -313.2813,-125.20424 z m -1046.15529,0.26699 c 40.99292,107.84013 -60.98253,397.19902 -60.98253,397.19902 0,0 53.00628,-75.3892 92.2836,-206.69421 C 644.40554,612.8768 573.82641,553.67759 573.82641,553.67759 z M 300.21279,567.43916 C 202.2859,605.8968 81.37596,620.8671 81.37596,620.8671 l 85.53726,169.45748 c 9.69967,-34.93281 23.68757,-70.38195 42.90486,-105.23641 25.43818,-46.14698 56.63185,-85.84007 90.39471,-117.64901 z M 1305.8928,733.92813 c -15.5882,0.0728 -31.5942,1.45994 -48.3005,4.31736 l 7.0164,63.41161 c 0,0 236.7871,107.66531 286.0256,107.66531 l 2.1596,-58.55473 c 0,0 -96.2125,-117.50401 -246.9011,-116.83955 z m -1048.58366,8.3653 c -2.23727,-0.11529 -4.4175,-0.0605 -6.74579,0 -8.59892,0.1577 -17.69423,1.53459 -27.25433,4.58739 -38.5341,86.80604 -25.63418,168.64739 -25.63418,168.64739 0,0 17.02674,-72.54763 49.38,-109.28368 32.35456,-36.73439 62.60151,-46.68163 62.60151,-46.68163 4.03713,3.06981 -18.79076,-15.50671 -52.34721,-17.26947 z m 1720.74636,21.85686 59.3637,55.0463 c 77.3905,-22.62146 -59.3637,-55.0463 -59.3637,-55.0463 z M 871.7267,866.68823 c -3.19127,-0.0855 -6.48557,-0.12752 -9.98368,0 -112.01436,4.14811 -141.12492,58.28478 -141.12492,58.28478 0,0 91.33898,-20.9121 141.12492,-4.3179 49.78278,16.5952 66.37821,45.6025 66.37821,45.6025 -4.01767,8.0384 42.52487,-96.77935 -56.39453,-99.56938 z m 400.7061,20.77738 c -58.9681,231.77609 -547.49724,522.94269 -547.49724,522.94269 0,0 168.24621,-34.5414 378.84984,-177.5521 210.6033,-143.0107 168.6474,-345.39059 168.6474,-345.39059 z m 315.7095,43.1737 46.9511,51.539 c 60.9728,-21.1026 -46.9511,-51.539 -46.9511,-51.539 z"
         style="opacity:0.2;color:#000000;fill:#ffffff;fill-opacity:1;stroke:none;stroke-width:7;marker:none;visibility:visible;display:inline;overflow:visible;filter:url(#filter3814)" />
    </g>
  </g>
  <g
     inkscape:groupmode="layer"
     id="layer2"
     inkscape:label="logo"
     style="display:inline">
    <g
       transform="matrix(-0.63742665,0,0,0.63742665,306.00993,-283.11885)"
       id="layer1-8"
       inkscape:label="Layer 1">
      <g
         style="display:inline;filter:url(#filter4994)"
         id="g4984"
         transform="translate(-422.36026,466.6479)">
        <path
           inkscape:connector-curvature="0"
           id="path4988"
           d="m 784.6481,-12.44218 c 13.09318,0.23398 25.19748,15.87438 25.19748,15.87438 19.95546,-16.46903 19.83035,22.09813 19.83035,22.09813 18.56422,8.56773 13.75784,38.95527 13.75784,38.95527 l -5.79544,1.28506 c 4.65288,9.11441 7.28205,19.40283 7.28205,30.28734 0,3.21342 -0.23844,6.35437 -0.6803,9.44902 9.81891,1.66334 28.71495,6.02288 25.44935,14.51372 l 1.73865,3.50245 c 0,0 8.75732,3.50342 7.00485,9.19703 -1.05093,3.41429 -9.4778,10.25952 -16.07592,15.21929 2.40619,0.9499 10.01921,4.38867 8.13879,9.54976 -2.22414,6.10085 -30.56454,22.52656 -30.56454,22.52656 l 13.8838,-21.11548 c 0,0 -24.89943,-2.9335 -33.66378,-10.91046 -1.10924,0.91154 -2.23507,1.80324 -3.40165,2.64571 4.824,2.29389 8.00075,5.32275 6.501,9.22224 l 1.76375,3.50246 c 0,0 8.75732,3.50347 7.00496,9.19709 -1.75253,5.69355 -24.08891,21.01467 -24.08874,21.01467 l 10.96083,-19.70445 c 0,0 -12.38274,-1.714 -20.93902,-6.14817 0.89867,12.2489 -9.01328,27.25225 -25.44952,36.71271 -15.92338,9.1653 -33.23541,10.36225 -43.51589,4.13238 5.11032,-0.77187 10.71526,-2.70606 16.12629,-5.82066 14.42992,-8.30555 22.23718,-21.8211 17.43669,-30.16133 -4.78446,-8.31235 -20.30735,-8.34844 -34.69692,-0.12596 4.34316,-5.62103 10.32791,-10.86411 17.58786,-15.0429 0.28598,-0.1646 0.5698,-0.31918 0.85663,-0.47874 -4.10121,-1.96513 -7.96716,-4.33297 -11.56555,-7.03007 -0.87017,3.99644 -2.38891,8.13942 -4.61112,12.17037 -2.93503,5.32394 -6.66317,9.72485 -10.6837,12.95152 5.77385,-10.55133 5.56646,-21.8118 -0.52912,-25.17226 -6.11609,-3.37173 -15.83635,2.49578 -21.6698,13.07743 -2.18765,3.96811 -3.51481,8.04875 -4.00642,11.76726 -3.20956,-5.08244 -3.8779,-12.63829 -1.88983,-20.66194 -3.36827,-2.13093 -20.42497,-13.11573 -22.17371,-18.26816 -1.93255,-5.69356 7.73564,-9.19703 7.73564,-9.19703 l 1.91504,-3.50245 c -1.82342,-4.29829 2.63335,-7.53766 8.86946,-9.9026 -3.36879,-2.57426 -6.24959,-5.14495 -6.7782,-6.7025 -1.40558,-4.14473 5.64426,-6.67729 5.64426,-6.67729 l 1.38586,-2.54496 c -2.60627,-6.14329 12.36778,-9.30724 20.28395,-10.53252 4.63662,-32.92291 33.39338,-58.30688 68.0078,-58.30688 16.61949,0 31.89063,5.84241 43.79326,15.57202 -2.22323,-6.31866 -3.7797,-11.46485 -3.7797,-11.46485 -8.229,1.81129 -16.45387,-19.95635 -16.45387,-19.95635 -7.13211,1.56981 -34.84815,-7.28207 -34.84815,-7.28207 0,0 -9.14915,9.47028 -13.58133,2.39377 -4.43309,-7.0749 -13.58139,0.12598 -13.58139,0.12598 21.13882,-29.38333 26.93601,-8.23956 26.93601,-8.23956 l 5.87091,-4.73711 c 4.46142,-5.41252 9.32453,-7.3415 14.06025,-7.25687 z m -0.20149,3.12448 c -9.09623,-0.28501 -12.42241,8.34055 -12.42241,8.34036 4.17358,2.66887 31.82428,1.9654 31.82428,1.9654 -8.29535,-7.576 -14.63736,-10.15646 -19.40187,-10.30576 z m 31.11876,12.7499 c -1.99057,-0.062 -3.40159,0.68033 -3.40159,0.68033 l 10.07898,15.26964 c 2.43323,2.64027 1.04328,5.63406 -0.50401,7.66004 -1.20919,0.96418 -2.1664,1.86173 -2.21734,2.34336 0,0 1.14301,-0.93692 2.21734,-2.34336 2.2485,-1.79304 5.39216,-3.8048 5.39216,-3.8048 C 825.23219,6.58908 819.36553,3.5506 815.56537,3.4322 z m 13.73262,25.60059 c 4.45717,3.95162 1.36065,26.583 1.36065,26.58329 l 9.97813,4.53553 C 842.05453,40.11165 829.29799,29.03279 829.29799,29.03279 z m -53.06588,8.56716 c -32.92994,0 -59.4658,26.17872 -59.46597,58.45805 0,0.46611 0.0147,0.92231 0.0249,1.38581 16.16233,23.89531 59.17664,8.93973 84.15948,-8.61748 23.70758,-16.66114 32.58435,1.37125 34.77245,7.35764 5e-5,-0.0425 0,-0.0836 0,-0.12597 0,-32.27933 -26.56113,-58.45805 -59.49124,-58.45805 z m 7.20658,37.74574 -32.22755,24.59271 c -7.1834,-12.18986 32.22755,-24.59271 32.22755,-24.59271 z m -54.09896,1.99057 c 5.5864,-0.17877 7.73569,23.08089 7.73569,23.08089 l -9.57509,-22.19899 c 0.65293,-0.57133 1.26149,-0.86337 1.8394,-0.8819 z m -21.11542,11.01132 c -11.293,-0.0453 -18.52014,7.93719 -18.52014,7.93719 l 0.17639,3.9812 c 3.69018,0 21.44299,-7.33248 21.44299,-7.33248 l 0.52917,-4.30877 c -1.25202,-0.19424 -2.46013,-0.27249 -3.62841,-0.27714 z m 101.59605,12.59869 c -4.24825,-0.10551 -10.25538,4.03157 -10.25538,4.03157 -52.78449,21.05077 -80.73251,0.73073 -80.73251,0.73073 7.76256,19.59781 83.83492,15.97092 88.49342,15.24445 4.65838,-0.72648 8.52642,-10.90356 6.19842,-17.43663 -0.65502,-1.83741 -2.04162,-2.52882 -3.70395,-2.57012 z m -122.73668,0.75594 c 0,0 -8.09675,2.06922 -3.52762,3.50245 l 3.52762,-3.50245 z m 20.86349,1.41102 c -6.8513,3.11397 -16.47919,4.30877 -16.47919,4.30877 l 2.34341,3.83002 c 5.53258,-1.4772 11.08385,-2.39186 14.86645,-2.9229 -0.3202,-1.71429 -0.54493,-3.45922 -0.73067,-5.21589 z M 844.41642,107.8 c -1.45568,0.007 -2.95028,0.13627 -4.51038,0.40316 l 0.6552,5.89618 c 0,0 22.11132,10.07899 26.70924,10.07899 l 0.22688,-5.46787 c 0,0 -9.00976,-10.97256 -23.08094,-10.91046 z m -137.72921,3.04887 c -15.52006,-0.0621 -25.44934,10.91046 -25.44934,10.91046 l 0.25192,5.46787 c 5.07225,0 29.45587,-10.05378 29.45587,-10.05378 l 0.73073,-5.9214 c -1.72069,-0.26688 -3.38358,-0.39675 -4.98918,-0.40315 z m 14.81613,6.22375 c 8.67964,11.16647 63.42139,28.24464 64.75745,28.90148 1.33605,0.65684 10.00334,-3.28883 10.00334,-7.88681 0,-4.59798 -4.66149,-7.88681 -4.66149,-7.88681 -11.34915,5.91165 -70.0993,-13.12786 -70.0993,-13.12786 z m 117.31925,6.85373 c -0.92962,2.01613 -1.98043,3.96596 -3.0993,5.87097 12.3709,2.40132 26.96859,6.82625 23.66038,14.08541 l 0.22682,0.37794 5.69458,-10.23017 c 0,0 -19.52885,-2.70447 -26.48248,-10.10415 z m -124.52565,1.33543 c -0.0555,0.0823 -0.0928,0.17062 -0.15129,0.25198 0.0774,-0.03 0.14942,-0.0716 0.22682,-0.1008 -0.0249,-0.0504 -0.0504,-0.10052 -0.0758,-0.15118 z m 156.47594,0.88191 4.38442,4.81273 c 5.69361,-1.97057 -4.38442,-4.81273 -4.38442,-4.81273 z m -193.16343,3.07408 c 0,0 -11.09224,2.84216 -4.81279,4.81273 l 4.81279,-4.81273 z m 149.72301,1.56226 c -1.84755,0.007 -3.76469,0.14239 -5.74494,0.42837 l 0.83152,6.34971 c 0,0 28.05363,10.78451 33.89066,10.78451 l 0.27708,-5.87097 c 0,0 -11.39351,-11.75837 -29.25432,-11.69162 z m -97.69038,0.0249 c 3.82793,10.07015 -5.69458,37.09059 -5.69458,37.09059 0,0 4.94974,-7.03987 8.61748,-19.30118 3.6678,-12.26137 -2.9229,-17.78941 -2.9229,-17.78941 z m -25.55015,1.28506 c -9.14445,3.59119 -20.43506,4.98912 -20.43506,4.98912 l 7.9875,15.824 c 0.90576,-3.26203 2.21195,-6.57229 4.00647,-9.82701 2.37543,-4.30922 5.2883,-8.01578 8.44109,-10.98611 z m 93.91079,15.5468 c -1.45561,0.007 -2.95027,0.13633 -4.51031,0.40316 l 0.65519,5.9214 c 0,0 22.11127,10.05383 26.70919,10.05383 l 0.20166,-5.46787 c 0,0 -8.98437,-10.97257 -23.05573,-10.91052 z m -97.91715,0.78116 c -0.20891,-0.0108 -0.41251,-0.006 -0.62992,0 -0.80297,0.0147 -1.65229,0.1433 -2.54502,0.42837 -3.59833,8.10598 -2.39373,15.74835 -2.39373,15.74835 0,0 1.58996,-6.77451 4.61112,-10.20495 3.02128,-3.43027 5.84576,-4.35914 5.84576,-4.35914 0.37698,0.28665 -1.75469,-1.44803 -4.88821,-1.61263 z m 160.68397,2.041 5.54339,5.14024 c 7.22675,-2.1124 -5.54339,-5.14024 -5.54339,-5.14024 z m -103.30943,9.57503 c -0.29799,-0.008 -0.60562,-0.0119 -0.93228,0 -10.45994,0.38735 -13.17829,5.44265 -13.17829,5.44265 0,0 8.52926,-1.95278 13.17829,-0.40321 4.64875,1.54968 6.19843,4.25839 6.19843,4.25839 -0.37517,0.75062 3.971,-9.03729 -5.26615,-9.29783 z m 37.4181,1.9402 c -5.50645,21.64334 -51.12551,48.83258 -51.12551,48.83258 0,0 15.7109,-3.22548 35.37716,-16.57988 19.6662,-13.3544 15.74835,-32.2527 15.74835,-32.2527 z m 29.48109,4.03157 4.3843,4.81273 c 5.69367,-1.97057 -4.3843,-4.81273 -4.3843,-4.81273 z"
           style="color:#000000;fill:#af0000;fill-opacity:0.125;stroke:none;stroke-width:0;marker:none;visibility:visible;display:inline;overflow:visible" />
        <rect
           style="opacity:0;fill:#ff0000;fill-opacity:1;fill-rule:nonzero;stroke:#ffffff;stroke-width:1;stroke-linecap:round;stroke-linejoin:round;stroke-miterlimit:4;stroke-opacity:0.50196078;stroke-dasharray:none;stroke-dashoffset:0"
           id="rect4991"
           width="128"
           height="62"
           x="32"
           y="400" />
      </g>
      <g
         transform="translate(-422.36026,466.6479)"
         id="fred-2"
         style="display:inline">
        <path
           inkscape:connector-curvature="0"
           id="path4615"
           d="m 784.6481,-12.44218 c 13.09318,0.23398 25.19748,15.87438 25.19748,15.87438 19.95546,-16.46903 19.83035,22.09813 19.83035,22.09813 18.56422,8.56773 13.75784,38.95527 13.75784,38.95527 l -5.79544,1.28506 c 4.65288,9.11441 7.28205,19.40283 7.28205,30.28734 0,3.21342 -0.23844,6.35437 -0.6803,9.44902 9.81891,1.66334 28.71495,6.02288 25.44935,14.51372 l 1.73865,3.50245 c 0,0 8.75732,3.50342 7.00485,9.19703 -1.05093,3.41429 -9.4778,10.25952 -16.07592,15.21929 2.40619,0.9499 10.01921,4.38867 8.13879,9.54976 -2.22414,6.10085 -30.56454,22.52656 -30.56454,22.52656 l 13.8838,-21.11548 c 0,0 -24.89943,-2.9335 -33.66378,-10.91046 -1.10924,0.91154 -2.23507,1.80324 -3.40165,2.64571 4.824,2.29389 8.00075,5.32275 6.501,9.22224 l 1.76375,3.50246 c 0,0 8.75732,3.50347 7.00496,9.19709 -1.75253,5.69355 -24.08891,21.01467 -24.08874,21.01467 l 10.96083,-19.70445 c 0,0 -12.38274,-1.714 -20.93902,-6.14817 0.89867,12.2489 -9.01328,27.25225 -25.44952,36.71271 -15.92338,9.1653 -33.23541,10.36225 -43.51589,4.13238 5.11032,-0.77187 10.71526,-2.70606 16.12629,-5.82066 14.42992,-8.30555 22.23718,-21.8211 17.43669,-30.16133 -4.78446,-8.31235 -20.30735,-8.34844 -34.69692,-0.12596 4.34316,-5.62103 10.32791,-10.86411 17.58786,-15.0429 0.28598,-0.1646 0.5698,-0.31918 0.85663,-0.47874 -4.10121,-1.96513 -7.96716,-4.33297 -11.56555,-7.03007 -0.87017,3.99644 -2.38891,8.13942 -4.61112,12.17037 -2.93503,5.32394 -6.66317,9.72485 -10.6837,12.95152 5.77385,-10.55133 5.56646,-21.8118 -0.52912,-25.17226 -6.11609,-3.37173 -15.83635,2.49578 -21.6698,13.07743 -2.18765,3.96811 -3.51481,8.04875 -4.00642,11.76726 -3.20956,-5.08244 -3.8779,-12.63829 -1.88983,-20.66194 -3.36827,-2.13093 -20.42497,-13.11573 -22.17371,-18.26816 -1.93255,-5.69356 7.73564,-9.19703 7.73564,-9.19703 l 1.91504,-3.50245 c -1.82342,-4.29829 2.63335,-7.53766 8.86946,-9.9026 -3.36879,-2.57426 -6.24959,-5.14495 -6.7782,-6.7025 -1.40558,-4.14473 5.64426,-6.67729 5.64426,-6.67729 l 1.38586,-2.54496 c -2.60627,-6.14329 12.36778,-9.30724 20.28395,-10.53252 4.63662,-32.92291 33.39338,-58.30688 68.0078,-58.30688 16.61949,0 31.89063,5.84241 43.79326,15.57202 -2.22323,-6.31866 -3.7797,-11.46485 -3.7797,-11.46485 -8.229,1.81129 -16.45387,-19.95635 -16.45387,-19.95635 -7.13211,1.56981 -34.84815,-7.28207 -34.84815,-7.28207 0,0 -9.14915,9.47028 -13.58133,2.39377 -4.43309,-7.0749 -13.58139,0.12598 -13.58139,0.12598 21.13882,-29.38333 26.93601,-8.23956 26.93601,-8.23956 l 5.87091,-4.73711 c 4.46142,-5.41252 9.32453,-7.3415 14.06025,-7.25687 z m -76.70093,115.55541 c -6.8513,3.11397 -16.47919,4.30877 -16.47919,4.30877 l 2.34341,3.83002 c 5.53258,-1.4772 11.08385,-2.39186 14.86645,-2.9229 -0.3202,-1.71429 -0.54493,-3.45922 -0.73067,-5.21589 z m 130.87542,20.81312 c -0.92962,2.01613 -1.98043,3.96596 -3.0993,5.87097 12.3709,2.40132 26.96859,6.82625 23.66038,14.08541 l 0.22682,0.37794 5.69458,-10.23017 c 0,0 -19.52885,-2.70447 -26.48248,-10.10415 z m -124.52565,1.33543 c -0.0555,0.0823 -0.0928,0.17062 -0.15129,0.25198 0.0774,-0.03 0.14942,-0.0716 0.22682,-0.1008 -0.0249,-0.0504 -0.0504,-0.10052 -0.0758,-0.15118 z m -10.20501,6.82821 c -9.14445,3.59119 -20.43506,4.98912 -20.43506,4.98912 l 7.9875,15.824 c 0.90576,-3.26203 2.21195,-6.57229 4.00647,-9.82701 2.37543,-4.30922 5.2883,-8.01578 8.44109,-10.98611 z"
           style="color:#000000;fill:#ffffff;fill-opacity:1;stroke:#7d7d7d;stroke-width:2;stroke-linecap:square;stroke-linejoin:bevel;stroke-miterlimit:4;stroke-opacity:1;stroke-dasharray:none;marker:none;visibility:visible;display:inline;overflow:visible;filter:url(#filter4992)"
           sodipodi:nodetypes="sccccscccsccccccccccccsccsccccscscccccccccccsccccccccsccccccccccccccccccccc" />
        <path
           style="color:#000000;fill:#000000;fill-opacity:1;stroke:none;stroke-width:7;marker:none;visibility:visible;display:inline;overflow:visible"
           d="m 784.6481,-12.44218 c 13.09318,0.23398 25.19748,15.87438 25.19748,15.87438 19.95546,-16.46903 19.83035,22.09813 19.83035,22.09813 18.56422,8.56773 13.75784,38.95527 13.75784,38.95527 l -5.79544,1.28506 c 4.65288,9.11441 7.28205,19.40283 7.28205,30.28734 0,3.21342 -0.23844,6.35437 -0.6803,9.44902 9.81891,1.66334 28.71495,6.02288 25.44935,14.51372 l 1.73865,3.50245 c 0,0 8.75732,3.50342 7.00485,9.19703 -1.05093,3.41429 -9.4778,10.25952 -16.07592,15.21929 2.40619,0.9499 10.01921,4.38867 8.13879,9.54976 -2.22414,6.10085 -30.56454,22.52656 -30.56454,22.52656 l 13.8838,-21.11548 c 0,0 -24.89943,-2.9335 -33.66378,-10.91046 -1.10924,0.91154 -2.23507,1.80324 -3.40165,2.64571 4.824,2.29389 8.00075,5.32275 6.501,9.22224 l 1.76375,3.50246 c 0,0 8.75732,3.50347 7.00496,9.19709 -1.75253,5.69355 -24.08891,21.01467 -24.08874,21.01467 l 10.96083,-19.70445 c 0,0 -12.38274,-1.714 -20.93902,-6.14817 0.89867,12.2489 -9.01328,27.25225 -25.44952,36.71271 -15.92338,9.1653 -33.23541,10.36225 -43.51589,4.13238 5.11032,-0.77187 10.71526,-2.70606 16.12629,-5.82066 14.42992,-8.30555 22.23718,-21.8211 17.43669,-30.16133 -4.78446,-8.31235 -20.30735,-8.34844 -34.69692,-0.12596 4.34316,-5.62103 10.32791,-10.86411 17.58786,-15.0429 0.28598,-0.1646 0.5698,-0.31918 0.85663,-0.47874 -4.10121,-1.96513 -7.96716,-4.33297 -11.56555,-7.03007 -0.87017,3.99644 -2.38891,8.13942 -4.61112,12.17037 -2.93503,5.32394 -6.66317,9.72485 -10.6837,12.95152 5.77385,-10.55133 5.56646,-21.8118 -0.52912,-25.17226 -6.11609,-3.37173 -15.83635,2.49578 -21.6698,13.07743 -2.18765,3.96811 -3.51481,8.04875 -4.00642,11.76726 -3.20956,-5.08244 -3.8779,-12.63829 -1.88983,-20.66194 -3.36827,-2.13093 -20.42497,-13.11573 -22.17371,-18.26816 -1.93255,-5.69356 7.73564,-9.19703 7.73564,-9.19703 l 1.91504,-3.50245 c -1.82342,-4.29829 2.63335,-7.53766 8.86946,-9.9026 -3.36879,-2.57426 -6.24959,-5.14495 -6.7782,-6.7025 -1.40558,-4.14473 5.64426,-6.67729 5.64426,-6.67729 l 1.38586,-2.54496 c -2.60627,-6.14329 12.36778,-9.30724 20.28395,-10.53252 4.63662,-32.92291 33.39338,-58.30688 68.0078,-58.30688 16.61949,0 31.89063,5.84241 43.79326,15.57202 -2.22323,-6.31866 -3.7797,-11.46485 -3.7797,-11.46485 -8.229,1.81129 -16.45387,-19.95635 -16.45387,-19.95635 -7.13211,1.56981 -34.84815,-7.28207 -34.84815,-7.28207 0,0 -9.14915,9.47028 -13.58133,2.39377 -4.43309,-7.0749 -13.58139,0.12598 -13.58139,0.12598 21.13882,-29.38333 26.93601,-8.23956 26.93601,-8.23956 l 5.87091,-4.73711 c 4.46142,-5.41252 9.32453,-7.3415 14.06025,-7.25687 z m -0.20149,3.12448 c -9.09623,-0.28501 -12.42241,8.34055 -12.42241,8.34036 4.17358,2.66887 31.82428,1.9654 31.82428,1.9654 -8.29535,-7.576 -14.63736,-10.15646 -19.40187,-10.30576 z m 31.11876,12.7499 c -1.99057,-0.062 -3.40159,0.68033 -3.40159,0.68033 l 10.07898,15.26964 c 2.43323,2.64027 1.04328,5.63406 -0.50401,7.66004 -1.20919,0.96418 -2.1664,1.86173 -2.21734,2.34336 0,0 1.14301,-0.93692 2.21734,-2.34336 2.2485,-1.79304 5.39216,-3.8048 5.39216,-3.8048 C 825.23219,6.58908 819.36553,3.5506 815.56537,3.4322 z m 13.73262,25.60059 c 4.45717,3.95162 1.36065,26.583 1.36065,26.58329 l 9.97813,4.53553 C 842.05453,40.11165 829.29799,29.03279 829.29799,29.03279 z m -53.06588,8.56716 c -32.92994,0 -59.4658,26.17872 -59.46597,58.45805 0,0.46611 0.0147,0.92231 0.0249,1.38581 16.16233,23.89531 59.17664,8.93973 84.15948,-8.61748 23.70758,-16.66114 32.58435,1.37125 34.77245,7.35764 5e-5,-0.0425 0,-0.0836 0,-0.12597 0,-32.27933 -26.56113,-58.45805 -59.49124,-58.45805 z m 7.20658,37.74574 -32.22755,24.59271 c -7.1834,-12.18986 32.22755,-24.59271 32.22755,-24.59271 z m -54.09896,1.99057 c 5.5864,-0.17877 7.73569,23.08089 7.73569,23.08089 l -9.57509,-22.19899 c 0.65293,-0.57133 1.26149,-0.86337 1.8394,-0.8819 z m -21.11542,11.01132 c -11.293,-0.0453 -18.52014,7.93719 -18.52014,7.93719 l 0.17639,3.9812 c 3.69018,0 21.44299,-7.33248 21.44299,-7.33248 l 0.52917,-4.30877 c -1.25202,-0.19424 -2.46013,-0.27249 -3.62841,-0.27714 z m 101.59605,12.59869 c -4.24825,-0.10551 -10.25538,4.03157 -10.25538,4.03157 -52.78449,21.05077 -80.73251,0.73073 -80.73251,0.73073 7.76256,19.59781 83.83492,15.97092 88.49342,15.24445 4.65838,-0.72648 8.52642,-10.90356 6.19842,-17.43663 -0.65502,-1.83741 -2.04162,-2.52882 -3.70395,-2.57012 z m -122.73668,0.75594 c 0,0 -8.09675,2.06922 -3.52762,3.50245 l 3.52762,-3.50245 z m 20.86349,1.41102 c -6.8513,3.11397 -16.47919,4.30877 -16.47919,4.30877 l 2.34341,3.83002 c 5.53258,-1.4772 11.08385,-2.39186 14.86645,-2.9229 -0.3202,-1.71429 -0.54493,-3.45922 -0.73067,-5.21589 z M 844.41642,107.8 c -1.45568,0.007 -2.95028,0.13627 -4.51038,0.40316 l 0.6552,5.89618 c 0,0 22.11132,10.07899 26.70924,10.07899 l 0.22688,-5.46787 c 0,0 -9.00976,-10.97256 -23.08094,-10.91046 z m -137.72921,3.04887 c -15.52006,-0.0621 -25.44934,10.91046 -25.44934,10.91046 l 0.25192,5.46787 c 5.07225,0 29.45587,-10.05378 29.45587,-10.05378 l 0.73073,-5.9214 c -1.72069,-0.26688 -3.38358,-0.39675 -4.98918,-0.40315 z m 14.81613,6.22375 c 8.67964,11.16647 63.42139,28.24464 64.75745,28.90148 1.33605,0.65684 10.00334,-3.28883 10.00334,-7.88681 0,-4.59798 -4.66149,-7.88681 -4.66149,-7.88681 -11.34915,5.91165 -70.0993,-13.12786 -70.0993,-13.12786 z m 117.31925,6.85373 c -0.92962,2.01613 -1.98043,3.96596 -3.0993,5.87097 12.3709,2.40132 26.96859,6.82625 23.66038,14.08541 l 0.22682,0.37794 5.69458,-10.23017 c 0,0 -19.52885,-2.70447 -26.48248,-10.10415 z m -124.52565,1.33543 c -0.0555,0.0823 -0.0928,0.17062 -0.15129,0.25198 0.0774,-0.03 0.14942,-0.0716 0.22682,-0.1008 -0.0249,-0.0504 -0.0504,-0.10052 -0.0758,-0.15118 z m 156.47594,0.88191 4.38442,4.81273 c 5.69361,-1.97057 -4.38442,-4.81273 -4.38442,-4.81273 z m -193.16343,3.07408 c 0,0 -11.09224,2.84216 -4.81279,4.81273 l 4.81279,-4.81273 z m 149.72301,1.56226 c -1.84755,0.007 -3.76469,0.14239 -5.74494,0.42837 l 0.83152,6.34971 c 0,0 28.05363,10.78451 33.89066,10.78451 l 0.27708,-5.87097 c 0,0 -11.39351,-11.75837 -29.25432,-11.69162 z m -97.69038,0.0249 c 3.82793,10.07015 -5.69458,37.09059 -5.69458,37.09059 0,0 4.94974,-7.03987 8.61748,-19.30118 3.6678,-12.26137 -2.9229,-17.78941 -2.9229,-17.78941 z m -25.55015,1.28506 c -9.14445,3.59119 -20.43506,4.98912 -20.43506,4.98912 l 7.9875,15.824 c 0.90576,-3.26203 2.21195,-6.57229 4.00647,-9.82701 2.37543,-4.30922 5.2883,-8.01578 8.44109,-10.98611 z m 93.91079,15.5468 c -1.45561,0.007 -2.95027,0.13633 -4.51031,0.40316 l 0.65519,5.9214 c 0,0 22.11127,10.05383 26.70919,10.05383 l 0.20166,-5.46787 c 0,0 -8.98437,-10.97257 -23.05573,-10.91052 z m -97.91715,0.78116 c -0.20891,-0.0108 -0.41251,-0.006 -0.62992,0 -0.80297,0.0147 -1.65229,0.1433 -2.54502,0.42837 -3.59833,8.10598 -2.39373,15.74835 -2.39373,15.74835 0,0 1.58996,-6.77451 4.61112,-10.20495 3.02128,-3.43027 5.84576,-4.35914 5.84576,-4.35914 0.37698,0.28665 -1.75469,-1.44803 -4.88821,-1.61263 z m 160.68397,2.041 5.54339,5.14024 c 7.22675,-2.1124 -5.54339,-5.14024 -5.54339,-5.14024 z m -103.30943,9.57503 c -0.29799,-0.008 -0.60562,-0.0119 -0.93228,0 -10.45994,0.38735 -13.17829,5.44265 -13.17829,5.44265 0,0 8.52926,-1.95278 13.17829,-0.40321 4.64875,1.54968 6.19843,4.25839 6.19843,4.25839 -0.37517,0.75062 3.971,-9.03729 -5.26615,-9.29783 z m 37.4181,1.9402 c -5.50645,21.64334 -51.12551,48.83258 -51.12551,48.83258 0,0 15.7109,-3.22548 35.37716,-16.57988 19.6662,-13.3544 15.74835,-32.2527 15.74835,-32.2527 z m 29.48109,4.03157 4.3843,4.81273 c 5.69367,-1.97057 -4.3843,-4.81273 -4.3843,-4.81273 z"
           id="outline-6"
           inkscape:connector-curvature="0" />
      </g>
    </g>
    <g
       inkscape:label="aptosid"
       id="g4053"
       transform="matrix(0.49224593,0,0,0.49224593,120.16761,-660.30198)"
       style="fill:#af0000;fill-opacity:1;stroke:#4b0000;stroke-width:4.06300972;stroke-miterlimit:4;stroke-opacity:1;stroke-dasharray:none;filter:url(#filter4202)">
      <text
         inkscape:export-ydpi="90"
         inkscape:export-xdpi="90"
         inkscape:export-filename="logo-current.png"
         sodipodi:linespacing="125%"
         id="text4055"
         y="1555.3855"
         x="246.53732"
         style="font-size:144px;font-style:normal;font-variant:normal;font-weight:bold;font-stretch:normal;text-align:start;line-height:125%;letter-spacing:0px;word-spacing:0px;writing-mode:lr-tb;text-anchor:start;fill:#af0000;fill-opacity:1;stroke:#4b0000;stroke-width:4.06300972;stroke-miterlimit:4;stroke-opacity:1;stroke-dasharray:none;font-family:Dustismo;-inkscape-font-specification:Dustismo Bold"
         xml:space="preserve"><tspan
           style="fill:#af0000;fill-opacity:1;stroke:#4b0000;stroke-width:4.06300972;stroke-miterlimit:4;stroke-opacity:1;stroke-dasharray:none"
           dx="0 0 26.252148"
           y="1555.3855"
           x="246.53732"
           id="tspan4057"
           sodipodi:role="line"><tspan
             id="tspan4059"
             style="font-size:144px;font-style:normal;font-variant:normal;font-weight:bold;font-stretch:normal;text-align:start;line-height:125%;writing-mode:lr-tb;text-anchor:start;fill:#af0000;fill-opacity:1;stroke:#4b0000;stroke-width:4.06300972;stroke-miterlimit:4;stroke-opacity:1;stroke-dasharray:none;font-family:Dustismo;-inkscape-font-specification:Dustismo Bold"
             dx="-0.98228282 -4.3535538 121.26881">to <tspan
   id="tspan4061"
   style="font-weight:normal;stroke-width:4.06300972;stroke-miterlimit:4;stroke-dasharray:none;-inkscape-font-specification:Dustismo;fill-opacity:1;fill:#af0000;stroke:#4b0000;stroke-opacity:1"> : Κῆρες</tspan></tspan></tspan></text>
      <path
         style="fill:#af0000;fill-opacity:1;fill-rule:nonzero;stroke:#4b0000;stroke-width:4.06300972;stroke-miterlimit:4;stroke-opacity:1;stroke-dasharray:none"
         d="m 448.25844,1456.6341 9.895,9.894 -9.895,9.895 -9.894,-9.895 z"
         id="path4063"
         inkscape:connector-curvature="0"
         sodipodi:nodetypes="ccccc" />
      <path
         style="fill:#af0000;fill-opacity:1;fill-rule:nonzero;stroke:#4b0000;stroke-width:4.06300972;stroke-miterlimit:4;stroke-opacity:1;stroke-dasharray:none"
         d="m 207.94439,1485.6954 c -9.0469,10e-5 -16.51565,3.5156 -22.375,10.5 l 0,-9 -11.32858,0 0,83.875 -13.21875,0 0,11.5937 24.54733,0 0,-36.2812 c 5.85935,6.9844 13.3281,10.4687 22.375,10.4687 9.4687,0 17.54682,-3.5625 24.25,-10.6875 6.56243,-7.0313 9.84368,-15.2968 9.84375,-24.8125 -7e-5,-9.5155 -3.28132,-17.7968 -9.84375,-24.875 -6.70318,-7.1718 -14.7813,-10.7811 -24.25,-10.7812 z m 0,11.625 c 6.28121,0 11.62495,2.4531 16.03125,7.375 4.26557,4.7813 6.37494,10.3282 6.375,16.6562 -6e-5,6.2813 -2.15631,11.7969 -6.46875,16.5313 -4.45318,4.9219 -9.75004,7.375 -15.9375,7.375 -6.23441,0 -11.53128,-2.4531 -15.84375,-7.375 -4.12502,-4.6875 -6.18752,-10.2031 -6.1875,-16.5313 -2e-5,-6.3749 2.04685,-11.9218 6.125,-16.6562 4.31247,-4.9219 9.62497,-7.375 15.90625,-7.375 z"
         id="path4065"
         inkscape:connector-curvature="0"
         sodipodi:nodetypes="cccccccccsccccscccscscs"
         inkscape:export-filename="logo-current.png"
         inkscape:export-xdpi="90"
         inkscape:export-ydpi="90" />
      <path
         style="fill:#af0000;fill-opacity:1;fill-rule:nonzero;stroke:#4b0000;stroke-width:4.06300972;stroke-miterlimit:4;stroke-opacity:1;stroke-dasharray:none"
         d="m 508.45717,1459.9767 0,11.5937 13.25,0 0,24.625 c -5.5313,-6.9844 -12.89068,-10.4999 -22.125,-10.5 -9.51566,10e-5 -17.90627,3.5626 -25.125,10.6875 -7.17188,7.1251 -10.75,15.4532 -10.75,24.9687 0,9.5157 3.54687,17.8282 10.625,24.9063 7.0781,7.0781 15.35935,10.5937 24.875,10.5937 9.14058,0 16.64057,-3.4843 22.5,-10.4687 l 0,9 11.35225,0 0,-95.4062 z m -10.0625,37.3437 c 0.39002,-0.019 0.79199,0 1.1875,0 6.2812,0 11.53119,2.4531 15.75,7.375 4.03119,4.7344 6.03119,10.2813 6.03125,16.6562 -6e-5,6.3282 -2.07819,11.8594 -6.25,16.5938 -4.35943,4.875 -9.67192,7.3125 -15.90625,7.3125 -6.32815,0 -11.89065,-2.375 -16.71875,-7.1563 -4.78127,-4.8281 -7.18751,-10.4218 -7.1875,-16.75 -1e-5,-6.328 2.48435,-11.8906 7.40625,-16.7187 4.61423,-4.5704 9.83725,-7.0269 15.6875,-7.3125 z"
         id="path4067"
         inkscape:connector-curvature="0"
         sodipodi:nodetypes="ccccccssscccccsscccscscs"
         inkscape:export-filename="logo-current.png"
         inkscape:export-xdpi="90"
         inkscape:export-ydpi="90" />
      <path
         inkscape:connector-curvature="0"
         id="path4069"
         style="font-size:144px;font-style:normal;font-variant:normal;font-weight:bold;font-stretch:normal;text-align:start;line-height:125%;letter-spacing:0px;word-spacing:0px;writing-mode:lr-tb;text-anchor:start;fill:#af0000;fill-opacity:1;stroke:#4b0000;stroke-width:4.06300972;stroke-miterlimit:4;stroke-opacity:1;stroke-dasharray:none;font-family:Dustismo;-inkscape-font-specification:Dustismo Bold"
         d="m 414.17377,1509.6121 c -0.2813,-4.3126 -2.7422,-7.5235 -7.3829,-9.6328 -3.6093,-1.6407 -7.8749,-2.461 -12.7968,-2.461 -3.5625,0 -6.9844,0.6563 -10.2657,1.9688 -4.3124,1.6875 -6.4687,4.0078 -6.4687,6.9609 0,3.1406 2.4141,5.5547 7.2422,7.2422 3.0469,1.0781 7.0473,1.1402 14.8125,2.1078 15.0809,1.8793 25.2899,7.7759 25.5469,20.3922 0.1345,6.608 -3.2813,11.8359 -9.8438,15.6797 -5.4843,3.2343 -11.8125,4.8515 -18.9844,4.8515 -7.8749,0 -14.578,-1.5938 -20.1093,-4.7812 -6.4687,-3.7032 -10.2187,-9.1641 -11.25,-16.3828 l 11.3203,-2.3906 c 1.1719,5.1093 4.4297,8.6015 9.1524,10.1015 4.7226,1.5 8.0365,1.9757 11.7382,1.875 4.5938,-0.125 9.0781,-1.3672 11.6524,-2.836 2.7293,-1.5573 4.5495,-3.0879 4.6523,-5.6952 0.1829,-4.6371 -3.9067,-7.2691 -12.2504,-8.7691 -6.0938,-0.75 -12.519,-1.2319 -18.6168,-2.6919 -4.9423,-1.1833 -9.4489,-3.0019 -12.5859,-6.539 -2.874,-3.2406 -4.5703,-6.586 -4.5703,-12.1641 0,-5.6719 2.4141,-10.1484 7.8164,-14.1328 5.4024,-3.9844 12.7852,-6.3281 21.5039,-6.3281 7.8282,0 14.4844,1.5937 19.9688,4.7812 6.4218,3.75 10.1484,9.2109 11.1796,16.3828 l -11.4609,2.461"
         sodipodi:nodetypes="ccscccsscscccsssscsaczsccc"
         inkscape:export-filename="logo-current.png"
         inkscape:export-xdpi="90"
         inkscape:export-ydpi="90" />
      <path
         sodipodi:nodetypes="ccssscccccccccscccscscs"
         inkscape:connector-curvature="0"
         id="path4071"
         d="m 126.30444,1485.6954 c -9.51565,10e-5 -17.87502,3.5626 -25.09375,10.6875 -7.17188,7.1251 -10.78126,15.4219 -10.78125,24.9375 -1e-5,9.5156 3.54687,17.8281 10.625,24.9062 7.07811,7.0781 15.39059,10.625 24.90625,10.625 9.11103,0 16.58644,-3.4982 22.4375,-10.4375 l 0,8.9375 15.99556,0 0,-11.5937 -4.65625,0 0,-55.8125 -11.27681,0 0,8.2187 c -5.53131,-6.9843 -12.92192,-10.4686 -22.15625,-10.4687 z m 0,11.5937 c 6.28121,0 11.5312,2.4532 15.75,7.375 4.03119,4.7344 6.03118,10.2813 6.03125,16.6563 -7e-5,6.3281 -2.07818,11.8594 -6.25,16.5937 -4.35942,4.875 -9.64067,7.3125 -15.875,7.3125 -6.32816,0 -11.9219,-2.3749 -16.75,-7.1562 -4.78126,-4.8281 -7.15627,-10.4219 -7.15625,-16.75 -2e-5,-6.3281 2.45311,-11.8906 7.375,-16.7188 4.92185,-4.875 10.54684,-7.3125 16.875,-7.3125 z"
         style="font-size:144px;font-style:normal;font-variant:normal;font-weight:bold;font-stretch:normal;text-align:center;line-height:125%;letter-spacing:0px;word-spacing:0px;writing-mode:lr-tb;text-anchor:middle;fill:#af0000;fill-opacity:1;stroke:#4b0000;stroke-width:4.06300972;stroke-miterlimit:4;stroke-opacity:1;stroke-dasharray:none;font-family:Dustismo;-inkscape-font-specification:Dustismo Bold" />
      <path
         inkscape:connector-curvature="0"
         id="path4073"
         style="font-size:144px;font-style:normal;font-variant:normal;font-weight:bold;font-stretch:normal;text-align:start;line-height:125%;letter-spacing:0px;word-spacing:0px;writing-mode:lr-tb;text-anchor:start;fill:#af0000;fill-opacity:1;stroke:#4b0000;stroke-width:4.06300972;stroke-miterlimit:4;stroke-opacity:1;stroke-dasharray:none;font-family:Dustismo;-inkscape-font-specification:Dustismo Bold"
         d="m 433.60678,1487.1824 20.32031,0 0,68.2031 -11.60156,0 0,-56.6016 -8.71875,0 0,-11.6015"
         sodipodi:nodetypes="ccccccc" />
    </g>
    <g
       style="fill:url(#linearGradient5094);fill-opacity:1;stroke:#ffffff;stroke-width:2.03150486;stroke-linecap:round;stroke-linejoin:round;stroke-miterlimit:4;stroke-opacity:0.50196078000000000;stroke-dasharray:none"
       transform="matrix(0.49224593,0,0,0.49224593,120.16761,-660.30198)"
       id="aptosid"
       inkscape:label="aptosid">
      <text
         xml:space="preserve"
         style="font-size:144px;font-style:normal;font-variant:normal;font-weight:bold;font-stretch:normal;text-align:start;line-height:125%;letter-spacing:0px;word-spacing:0px;writing-mode:lr-tb;text-anchor:start;fill:url(#linearGradient4037);fill-opacity:1;stroke:#ffffff;stroke-opacity:0.50196078000000000;font-family:Dustismo;-inkscape-font-specification:Dustismo Bold;stroke-width:2.03150486;stroke-miterlimit:4;stroke-dasharray:none"
         x="246.53732"
         y="1555.3855"
         id="text3113"
         sodipodi:linespacing="125%"
         inkscape:export-filename="logo-current.png"
         inkscape:export-xdpi="90"
         inkscape:export-ydpi="90"><tspan
           sodipodi:role="line"
           id="tspan3115"
           x="246.53732"
           y="1555.3855"
           dx="0 0 26.252148"
           style="fill:url(#linearGradient4037);fill-opacity:1;stroke:#ffffff;stroke-opacity:0.50196078000000000;stroke-width:2.03150486;stroke-miterlimit:4;stroke-dasharray:none"><tspan
             dx="-0.98228282 -4.3535538 121.26881"
             style="font-size:144px;font-style:normal;font-variant:normal;font-weight:bold;font-stretch:normal;text-align:start;line-height:125%;writing-mode:lr-tb;text-anchor:start;fill:url(#linearGradient4037);fill-opacity:1;stroke:#ffffff;stroke-opacity:0.50196078000000000;font-family:Dustismo;-inkscape-font-specification:Dustismo Bold;stroke-width:2.03150486;stroke-miterlimit:4;stroke-dasharray:none"
             id="tspan3117">to <tspan
   style="font-weight:normal;-inkscape-font-specification:Dustismo;stroke-width:2.03150486;stroke-miterlimit:4;stroke-dasharray:none"
   id="tspan4051"> : Κῆρες</tspan></tspan></tspan></text>
      <path
         sodipodi:nodetypes="ccccc"
         inkscape:connector-curvature="0"
         id="path4055"
         d="m 448.25844,1456.6341 9.895,9.894 -9.895,9.895 -9.894,-9.895 z"
         style="fill:url(#linearGradient4039);fill-opacity:1;fill-rule:nonzero;stroke:#ffffff;stroke-opacity:0.50196078000000000;stroke-width:2.03150486;stroke-miterlimit:4;stroke-dasharray:none" />
      <path
         inkscape:export-ydpi="90"
         inkscape:export-xdpi="90"
         inkscape:export-filename="logo-current.png"
         sodipodi:nodetypes="cccccccccsccccscccscscs"
         inkscape:connector-curvature="0"
         id="path3127"
         d="m 207.94439,1485.6954 c -9.0469,10e-5 -16.51565,3.5156 -22.375,10.5 l 0,-9 -11.32858,0 0,83.875 -13.21875,0 0,11.5937 24.54733,0 0,-36.2812 c 5.85935,6.9844 13.3281,10.4687 22.375,10.4687 9.4687,0 17.54682,-3.5625 24.25,-10.6875 6.56243,-7.0313 9.84368,-15.2968 9.84375,-24.8125 -7e-5,-9.5155 -3.28132,-17.7968 -9.84375,-24.875 -6.70318,-7.1718 -14.7813,-10.7811 -24.25,-10.7812 z m 0,11.625 c 6.28121,0 11.62495,2.4531 16.03125,7.375 4.26557,4.7813 6.37494,10.3282 6.375,16.6562 -6e-5,6.2813 -2.15631,11.7969 -6.46875,16.5313 -4.45318,4.9219 -9.75004,7.375 -15.9375,7.375 -6.23441,0 -11.53128,-2.4531 -15.84375,-7.375 -4.12502,-4.6875 -6.18752,-10.2031 -6.1875,-16.5313 -2e-5,-6.3749 2.04685,-11.9218 6.125,-16.6562 4.31247,-4.9219 9.62497,-7.375 15.90625,-7.375 z"
         style="fill:url(#linearGradient4041);fill-opacity:1;fill-rule:nonzero;stroke:#ffffff;stroke-opacity:0.50196078000000000;stroke-width:2.03150486;stroke-miterlimit:4;stroke-dasharray:none" />
      <path
         inkscape:export-ydpi="90"
         inkscape:export-xdpi="90"
         inkscape:export-filename="logo-current.png"
         sodipodi:nodetypes="ccccccssscccccsscccscscs"
         inkscape:connector-curvature="0"
         id="path3129"
         d="m 508.45717,1459.9767 0,11.5937 13.25,0 0,24.625 c -5.5313,-6.9844 -12.89068,-10.4999 -22.125,-10.5 -9.51566,10e-5 -17.90627,3.5626 -25.125,10.6875 -7.17188,7.1251 -10.75,15.4532 -10.75,24.9687 0,9.5157 3.54687,17.8282 10.625,24.9063 7.0781,7.0781 15.35935,10.5937 24.875,10.5937 9.14058,0 16.64057,-3.4843 22.5,-10.4687 l 0,9 11.35225,0 0,-95.4062 z m -10.0625,37.3437 c 0.39002,-0.019 0.79199,0 1.1875,0 6.2812,0 11.53119,2.4531 15.75,7.375 4.03119,4.7344 6.03119,10.2813 6.03125,16.6562 -6e-5,6.3282 -2.07819,11.8594 -6.25,16.5938 -4.35943,4.875 -9.67192,7.3125 -15.90625,7.3125 -6.32815,0 -11.89065,-2.375 -16.71875,-7.1563 -4.78127,-4.8281 -7.18751,-10.4218 -7.1875,-16.75 -1e-5,-6.328 2.48435,-11.8906 7.40625,-16.7187 4.61423,-4.5704 9.83725,-7.0269 15.6875,-7.3125 z"
         style="fill:url(#linearGradient4043);fill-opacity:1;fill-rule:nonzero;stroke:#ffffff;stroke-opacity:0.50196078000000000;stroke-width:2.03150486;stroke-miterlimit:4;stroke-dasharray:none" />
      <path
         inkscape:export-ydpi="90"
         inkscape:export-xdpi="90"
         inkscape:export-filename="logo-current.png"
         sodipodi:nodetypes="ccscccsscscccsssscsaczsccc"
         d="m 414.17377,1509.6121 c -0.2813,-4.3126 -2.7422,-7.5235 -7.3829,-9.6328 -3.6093,-1.6407 -7.8749,-2.461 -12.7968,-2.461 -3.5625,0 -6.9844,0.6563 -10.2657,1.9688 -4.3124,1.6875 -6.4687,4.0078 -6.4687,6.9609 0,3.1406 2.4141,5.5547 7.2422,7.2422 3.0469,1.0781 7.0473,1.1402 14.8125,2.1078 15.0809,1.8793 25.2899,7.7759 25.5469,20.3922 0.1345,6.608 -3.2813,11.8359 -9.8438,15.6797 -5.4843,3.2343 -11.8125,4.8515 -18.9844,4.8515 -7.8749,0 -14.578,-1.5938 -20.1093,-4.7812 -6.4687,-3.7032 -10.2187,-9.1641 -11.25,-16.3828 l 11.3203,-2.3906 c 1.1719,5.1093 4.4297,8.6015 9.1524,10.1015 4.7226,1.5 8.0365,1.9757 11.7382,1.875 4.5938,-0.125 9.0781,-1.3672 11.6524,-2.836 2.7293,-1.5573 4.5495,-3.0879 4.6523,-5.6952 0.1829,-4.6371 -3.9067,-7.2691 -12.2504,-8.7691 -6.0938,-0.75 -12.519,-1.2319 -18.6168,-2.6919 -4.9423,-1.1833 -9.4489,-3.0019 -12.5859,-6.539 -2.874,-3.2406 -4.5703,-6.586 -4.5703,-12.1641 0,-5.6719 2.4141,-10.1484 7.8164,-14.1328 5.4024,-3.9844 12.7852,-6.3281 21.5039,-6.3281 7.8282,0 14.4844,1.5937 19.9688,4.7812 6.4218,3.75 10.1484,9.2109 11.1796,16.3828 l -11.4609,2.461"
         style="font-size:144px;font-style:normal;font-variant:normal;font-weight:bold;font-stretch:normal;text-align:start;line-height:125%;letter-spacing:0px;word-spacing:0px;writing-mode:lr-tb;text-anchor:start;fill:url(#linearGradient4045);fill-opacity:1;stroke:#ffffff;stroke-opacity:0.50196078000000000;font-family:Dustismo;-inkscape-font-specification:Dustismo Bold;stroke-width:2.03150486;stroke-miterlimit:4;stroke-dasharray:none"
         id="path4040"
         inkscape:connector-curvature="0" />
      <path
         style="font-size:144px;font-style:normal;font-variant:normal;font-weight:bold;font-stretch:normal;text-align:center;line-height:125%;letter-spacing:0px;word-spacing:0px;writing-mode:lr-tb;text-anchor:middle;fill:url(#linearGradient4047);fill-opacity:1;stroke:#ffffff;stroke-opacity:0.50196078000000000;font-family:Dustismo;-inkscape-font-specification:Dustismo Bold;stroke-width:2.03150486;stroke-miterlimit:4;stroke-dasharray:none"
         d="m 126.30444,1485.6954 c -9.51565,10e-5 -17.87502,3.5626 -25.09375,10.6875 -7.17188,7.1251 -10.78126,15.4219 -10.78125,24.9375 -1e-5,9.5156 3.54687,17.8281 10.625,24.9062 7.07811,7.0781 15.39059,10.625 24.90625,10.625 9.11103,0 16.58644,-3.4982 22.4375,-10.4375 l 0,8.9375 15.99556,0 0,-11.5937 -4.65625,0 0,-55.8125 -11.27681,0 0,8.2187 c -5.53131,-6.9843 -12.92192,-10.4686 -22.15625,-10.4687 z m 0,11.5937 c 6.28121,0 11.5312,2.4532 15.75,7.375 4.03119,4.7344 6.03118,10.2813 6.03125,16.6563 -7e-5,6.3281 -2.07818,11.8594 -6.25,16.5937 -4.35942,4.875 -9.64067,7.3125 -15.875,7.3125 -6.32816,0 -11.9219,-2.3749 -16.75,-7.1562 -4.78126,-4.8281 -7.15627,-10.4219 -7.15625,-16.75 -2e-5,-6.3281 2.45311,-11.8906 7.375,-16.7188 4.92185,-4.875 10.54684,-7.3125 16.875,-7.3125 z"
         id="path3962"
         inkscape:connector-curvature="0"
         sodipodi:nodetypes="ccssscccccccccscccscscs" />
      <path
         sodipodi:nodetypes="ccccccc"
         d="m 433.60678,1487.1824 20.32031,0 0,68.2031 -11.60156,0 0,-56.6016 -8.71875,0 0,-11.6015"
         style="font-size:144px;font-style:normal;font-variant:normal;font-weight:bold;font-stretch:normal;text-align:start;line-height:125%;letter-spacing:0px;word-spacing:0px;writing-mode:lr-tb;text-anchor:start;fill:url(#linearGradient4049);fill-opacity:1;stroke:#ffffff;stroke-opacity:0.50196078000000000;font-family:Dustismo;-inkscape-font-specification:Dustismo Bold;stroke-width:2.03150486;stroke-miterlimit:4;stroke-dasharray:none"
         id="path4336"
         inkscape:connector-curvature="0" />
    </g>
  </g>
</svg>
