<?xml version="1.0" encoding="UTF-8" standalone="no"?>
<!-- Created with Inkscape (http://www.inkscape.org/) -->

<svg
   xmlns:dc="http://purl.org/dc/elements/1.1/"
   xmlns:cc="http://creativecommons.org/ns#"
   xmlns:rdf="http://www.w3.org/1999/02/22-rdf-syntax-ns#"
   xmlns:svg="http://www.w3.org/2000/svg"
   xmlns="http://www.w3.org/2000/svg"
   xmlns:xlink="http://www.w3.org/1999/xlink"
   xmlns:sodipodi="http://sodipodi.sourceforge.net/DTD/sodipodi-0.dtd"
   xmlns:inkscape="http://www.inkscape.org/namespaces/inkscape"
   width="800"
   height="600"
   id="svg2"
   sodipodi:version="0.32"
   inkscape:version="0.46+devel"
   sodipodi:docname="sidux-gfxboot-splash-pontos.svg"
   inkscape:output_extension="org.inkscape.output.svg.inkscape"
   version="1.0"
   inkscape:export-filename="/home/bernie/tmp/gfxboot-pontos.png"
   inkscape:export-xdpi="90"
   inkscape:export-ydpi="90">
  <defs
     id="defs4">
    <linearGradient
       id="linearGradient92350">
      <stop
         style="stop-color:#ffffff;stop-opacity:1;"
         offset="0"
         id="stop92352" />
      <stop
         id="stop92354"
         offset="0.74921137"
         style="stop-color:#e5e5e5;stop-opacity:0.54109591;" />
      <stop
         style="stop-color:#999999;stop-opacity:0.29452056;"
         offset="1"
         id="stop92356" />
    </linearGradient>
    <linearGradient
       id="linearGradient92301">
      <stop
         id="stop92303"
         offset="0"
         style="stop-color:#ffffff;stop-opacity:1;" />
      <stop
         style="stop-color:#ffffff;stop-opacity:1;"
         offset="0.18814027"
         id="stop92305" />
      <stop
         id="stop92307"
         offset="1"
         style="stop-color:#000000;stop-opacity:1;" />
    </linearGradient>
    <linearGradient
       inkscape:collect="always"
       id="linearGradient3181">
      <stop
         style="stop-color:#ffffff;stop-opacity:1"
         offset="0"
         id="stop3183" />
      <stop
         style="stop-color:#000000;stop-opacity:1"
         offset="1"
         id="stop3185" />
    </linearGradient>
    <linearGradient
       id="linearGradient2781">
      <stop
         style="stop-color:#ffffff;stop-opacity:1;"
         offset="0"
         id="stop2783" />
      <stop
         id="stop2789"
         offset="0.09455471"
         style="stop-color:#e5e5e5;stop-opacity:1;" />
      <stop
         style="stop-color:#999999;stop-opacity:1;"
         offset="1"
         id="stop2785" />
    </linearGradient>
    <linearGradient
       id="linearGradient3937">
      <stop
         style="stop-color:#000000;stop-opacity:0;"
         offset="0"
         id="stop3939" />
      <stop
         id="stop3945"
         offset="0.69098639"
         style="stop-color:#051405;stop-opacity:0.31506848;" />
      <stop
         style="stop-color:#0b280b;stop-opacity:0.87671232;"
         offset="1"
         id="stop3941" />
    </linearGradient>
    <pattern
       inkscape:collect="always"
       xlink:href="#pattern4905"
       id="pattern3024"
       patternTransform="matrix(14.452368,0,0,14.452368,1248.7525,270.01392)" />
    <linearGradient
       id="linearGradient5065">
      <stop
         style="stop-color:#000000;stop-opacity:0;"
         offset="0"
         id="stop5067" />
      <stop
         id="stop5073"
         offset="0.5"
         style="stop-color:#000000;stop-opacity:0.40277779;" />
      <stop
         style="stop-color:#000000;stop-opacity:0;"
         offset="1"
         id="stop5069" />
    </linearGradient>
    <pattern
       inkscape:collect="always"
       xlink:href="#pattern4901"
       id="pattern4905"
       patternTransform="matrix(14.452368,0,0,14.452368,1190.7525,230.01392)" />
    <pattern
       inkscape:collect="always"
       xlink:href="#Checkerboardwhite"
       id="pattern4901"
       patternTransform="matrix(14.452368,0,0,14.452368,1306.5146,425.76857)" />
    <linearGradient
       inkscape:collect="always"
       id="linearGradient4785">
      <stop
         style="stop-color:#ffffff;stop-opacity:1"
         offset="0"
         id="stop4787" />
      <stop
         style="stop-color:#000000;stop-opacity:0;"
         offset="1"
         id="stop4789" />
    </linearGradient>
    <pattern
       inkscape:stockid="Checkerboard white"
       id="Checkerboardwhite"
       patternTransform="matrix(18.558678,0,0,18.558678,1250.7478,71.65798)"
       height="2"
       width="2"
       patternUnits="userSpaceOnUse"
       inkscape:collect="always">
      <rect
         id="rect4144"
         height="1"
         width="1"
         y="0"
         x="0"
         style="fill:white;stroke:none" />
      <rect
         id="rect4146"
         height="1"
         width="1"
         y="1"
         x="1"
         style="fill:white;stroke:none" />
    </pattern>
    <filter
       inkscape:collect="always"
       id="filter5077"
       x="-0.0033050666"
       width="1.0066102"
       y="-2.1526313"
       height="5.3052626">
      <feGaussianBlur
         inkscape:collect="always"
         stdDeviation="0.89692969"
         id="feGaussianBlur5079" />
    </filter>
    <linearGradient
       inkscape:collect="always"
       xlink:href="#linearGradient3181"
       id="linearGradient4618"
       gradientUnits="userSpaceOnUse"
       x1="1093.5305"
       y1="995.42413"
       x2="1093.5305"
       y2="1132.3877"
       gradientTransform="translate(-723.76409,-1018.5348)" />
    <mask
       maskUnits="userSpaceOnUse"
       id="mask4614">
      <rect
         y="-22.601389"
         x="17.086191"
         height="272.82809"
         width="789.6488"
         id="rect4616"
         style="fill:url(#linearGradient4618);fill-opacity:1;fill-rule:evenodd;stroke:#000000;stroke-width:1px;stroke-linecap:butt;stroke-linejoin:miter;stroke-opacity:1" />
    </mask>
    <radialGradient
       inkscape:collect="always"
       xlink:href="#linearGradient92301"
       id="radialGradient92324"
       gradientUnits="userSpaceOnUse"
       gradientTransform="matrix(1.5037432,-0.1834138,0.08241373,1.3934219,-526.55852,22.009942)"
       cx="1037.9656"
       cy="804.68542"
       fx="1037.9656"
       fy="804.68542"
       r="875.19171" />
    <mask
       maskUnits="userSpaceOnUse"
       id="mask92320">
      <rect
         y="-173.95683"
         x="-84.441757"
         height="1479.2645"
         width="1790.9087"
         id="rect92322"
         style="fill:url(#radialGradient92324);fill-opacity:1;stroke:none;display:inline" />
    </mask>
    <radialGradient
       inkscape:collect="always"
       xlink:href="#linearGradient3937"
       id="radialGradient92360"
       gradientUnits="userSpaceOnUse"
       gradientTransform="matrix(1.3475977,-0.59990508,0.45118992,1.2279017,-1233.302,438.62893)"
       cx="1291.6517"
       cy="879.90021"
       fx="1291.6517"
       fy="879.90021"
       r="875.19171" />
    <linearGradient
       inkscape:collect="always"
       xlink:href="#linearGradient2781"
       id="linearGradient92368"
       gradientUnits="userSpaceOnUse"
       x1="558.9649"
       y1="948.19049"
       x2="558.9649"
       y2="172.69933" />
    <linearGradient
       inkscape:collect="always"
       xlink:href="#linearGradient92350"
       id="linearGradient92373"
       gradientUnits="userSpaceOnUse"
       gradientTransform="matrix(0.88029379,0,0,0.885812,-278.8154,-88.99258)"
       x1="558.9649"
       y1="948.19049"
       x2="558.9649"
       y2="834.96869" />
    <linearGradient
       inkscape:collect="always"
       xlink:href="#linearGradient4785"
       id="linearGradient12702"
       gradientUnits="userSpaceOnUse"
       gradientTransform="matrix(1.4452368,0,0,1.4452368,1190.7525,230.01392)"
       x1="-68.973221"
       y1="338.61566"
       x2="-68.973221"
       y2="451.32553" />
    <linearGradient
       inkscape:collect="always"
       xlink:href="#linearGradient5065"
       id="linearGradient12706"
       gradientUnits="userSpaceOnUse"
       gradientTransform="translate(58,70)"
       x1="751.53094"
       y1="944.49524"
       x2="1388.8918"
       y2="944.49524" />
    <linearGradient
       inkscape:collect="always"
       xlink:href="#linearGradient4785"
       id="linearGradient12725"
       gradientUnits="userSpaceOnUse"
       gradientTransform="matrix(1.4452368,0,0,1.4452368,1248.7525,270.01392)"
       x1="-68.973221"
       y1="338.61566"
       x2="-68.973221"
       y2="451.32553" />
  </defs>
  <sodipodi:namedview
     id="base"
     pagecolor="#ffffff"
     bordercolor="#666666"
     borderopacity="1.0"
     gridtolerance="10000"
     guidetolerance="10"
     objecttolerance="10"
     inkscape:pageopacity="0.0"
     inkscape:pageshadow="2"
     inkscape:zoom="0.85833333"
     inkscape:cx="264.27184"
     inkscape:cy="300"
     inkscape:document-units="px"
     inkscape:current-layer="layer3"
     showgrid="false"
     inkscape:window-width="1280"
     inkscape:window-height="738"
     inkscape:window-x="-4"
     inkscape:window-y="-3"
     borderlayer="true"
     showguides="true"
     inkscape:guide-bbox="true"
     inkscape:window-maximized="1" />
  <metadata
     id="metadata7">
    <rdf:RDF>
      <cc:Work
         rdf:about="">
        <dc:format>image/svg+xml</dc:format>
        <dc:type
           rdf:resource="http://purl.org/dc/dcmitype/StillImage" />
        <dc:title />
      </cc:Work>
    </rdf:RDF>
  </metadata>
  <g
     inkscape:label="Layer 1"
     inkscape:groupmode="layer"
     id="layer1"
     style="display:inline">
    <rect
       y="-144.6277"
       x="-434.55566"
       height="1294.1725"
       width="1555.3153"
       id="rect2895"
       style="fill:#ffffff;fill-opacity:1;stroke:#ffffff;stroke-width:4.36564445;stroke-miterlimit:4;stroke-opacity:1;stroke-dasharray:none;display:inline" />
    <path
       style="fill:#008000;fill-opacity:1"
       d="m -307.8607,-117.92013 1451.7572,0 0,1119.22143 -1451.7572,0 0,-1119.22143 0,0 z"
       id="rect3376" />
    <path
       sodipodi:type="arc"
       style="fill:#00aa44;fill-opacity:0.875;stroke:none"
       id="path3035"
       sodipodi:cx="986.56171"
       sodipodi:cy="467.80042"
       sodipodi:rx="768.53705"
       sodipodi:ry="786.70575"
       d="m 1755.0988,467.80042 a 768.53705,786.70575 0 1 1 -1537.07414,0 768.53705,786.70575 0 1 1 1537.07414,0 z"
       transform="matrix(1.3048326,0,0,1.1137296,-766.3469,255.29029)" />
    <path
       transform="matrix(1.3048326,0,0,1.1137296,-221.78668,-6.355574)"
       d="m 1755.0988,467.80042 a 768.53705,786.70575 0 1 1 -1537.07414,0 768.53705,786.70575 0 1 1 1537.07414,0 z"
       sodipodi:ry="786.70575"
       sodipodi:rx="768.53705"
       sodipodi:cy="467.80042"
       sodipodi:cx="986.56171"
       id="path3037"
       style="fill:#165016;fill-opacity:0.73786406;stroke:none"
       sodipodi:type="arc" />
    <path
       sodipodi:type="arc"
       style="fill:#00aa00;fill-opacity:0.73786406;stroke:none"
       id="path3039"
       sodipodi:cx="986.56171"
       sodipodi:cy="467.80042"
       sodipodi:rx="768.53705"
       sodipodi:ry="786.70575"
       d="m 1755.0988,467.80042 a 768.53705,786.70575 0 1 1 -1537.07414,0 768.53705,786.70575 0 1 1 1537.07414,0 z"
       transform="matrix(1.3048326,0,0,1.1137296,-234.58174,249.54547)" />
    <path
       transform="matrix(1.3048326,0,0,1.1137296,85.29456,25.632054)"
       d="m 1755.0988,467.80042 a 768.53705,786.70575 0 1 1 -1537.07414,0 768.53705,786.70575 0 1 1 1537.07414,0 z"
       sodipodi:ry="786.70575"
       sodipodi:rx="768.53705"
       sodipodi:cy="467.80042"
       sodipodi:cx="986.56171"
       id="path3041"
       style="fill:#1f241c;fill-opacity:0.73786406;stroke:none"
       sodipodi:type="arc" />
    <path
       sodipodi:type="arc"
       style="fill:#2aff2a;fill-opacity:0.73786406;stroke:none"
       id="path3043"
       sodipodi:cx="986.56171"
       sodipodi:cy="467.80042"
       sodipodi:rx="768.53705"
       sodipodi:ry="786.70575"
       d="m 1755.0988,467.80042 a 768.53705,786.70575 0 1 1 -1537.07414,0 768.53705,786.70575 0 1 1 1537.07414,0 z"
       transform="matrix(1.0173896,0,0,0.93120655,87.21382,420.29127)" />
    <path
       sodipodi:type="arc"
       style="fill:#165016;fill-opacity:0.73786406;stroke:none"
       id="path3045"
       sodipodi:cx="986.56171"
       sodipodi:cy="467.80042"
       sodipodi:rx="768.53705"
       sodipodi:ry="786.70575"
       d="m 1755.0988,467.80042 a 768.53705,786.70575 0 1 1 -1537.07414,0 768.53705,786.70575 0 1 1 1537.07414,0 z"
       transform="matrix(1.3048326,0,0,1.1137296,217.84094,307.2931)" />
    <path
       transform="matrix(1.0173896,0,0,0.93120655,181.10083,619.11084)"
       d="m 1755.0988,467.80042 a 768.53705,786.70575 0 1 1 -1537.07414,0 768.53705,786.70575 0 1 1 1537.07414,0 z"
       sodipodi:ry="786.70575"
       sodipodi:rx="768.53705"
       sodipodi:cy="467.80042"
       sodipodi:cx="986.56171"
       id="path3047"
       style="fill:#55ff55;fill-opacity:0.73786406;stroke:none"
       sodipodi:type="arc" />
    <path
       transform="matrix(0.81575531,0,0,1.1137296,502.15778,629.47086)"
       d="m 1755.0988,467.80042 a 768.53705,786.70575 0 1 1 -1537.07414,0 768.53705,786.70575 0 1 1 1537.07414,0 z"
       sodipodi:ry="786.70575"
       sodipodi:rx="768.53705"
       sodipodi:cy="467.80042"
       sodipodi:cx="986.56171"
       id="path3049"
       style="fill:#17280b;fill-opacity:0.73786406;stroke:none"
       sodipodi:type="arc" />
    <rect
       style="fill:url(#radialGradient92360);fill-opacity:1;stroke:none"
       id="rect3927"
       width="1540.8517"
       height="1252.2385"
       x="-343.81805"
       y="-234.49979"
       mask="none" />
  </g>
  <g
     inkscape:groupmode="layer"
     id="layer4"
     inkscape:label="lines"
     style="opacity:0.30232562">
    <g
       id="g3792"
       transform="matrix(0.21332372,0.46034494,0.46034494,-0.21332372,134.6384,765.21145)"
       style="fill:#0b280b;display:inline">
      <path
         id="path3873"
         d="m -908.3871,2229.6774 c 28.70794,-224.3578 84.63725,-445.1063 165.45569,-656.2146 10e-6,0 2e-5,0 3e-5,-10e-5 80.81876,-211.1081 186.55229,-412.6425 314.8471,-598.58077 2e-5,-3e-5 4e-5,-6e-5 6e-5,-8e-5 110.27419,-159.82183 236.94576,-308.26503 377.351734,-442.24112 l -6.922124,-7.21694 c -140.20684,135.17362 -266.47736,284.71699 -376.19665,445.50082 -10e-6,2e-5 -2e-5,3e-5 -3e-5,4e-5 -127.653,187.06515 -232.52278,389.51665 -312.34924,601.29625 -1e-5,0 -2e-5,0 -4e-5,0 -79.82681,211.7795 -134.63524,432.9537 -162.18653,657.4565 z"
         style="fill:#0b280b;stroke:none" />
      <path
         id="path3885"
         d="m -933.77032,2264.8564 c -18.72699,-152.1029 -6.44735,-307.641 33.74956,-455.2904 0,0 0,0 10e-6,0 40.19938,-147.6487 108.40335,-287.7246 201.35712,-408.9503 10e-6,-10e-5 2e-5,-10e-5 4e-5,-10e-5 71.5841,-93.3621 157.17962,-175.8884 252.9668,-243.9529 l -5.82448,-8.1286 c -96.06289,69.4028 -181.60376,153.2114 -252.88932,247.7109 0,0 -1e-5,0 -1e-5,0 -92.58262,122.739 -159.94441,263.9847 -199.09712,412.3863 -1e-5,10e-5 -1e-5,10e-5 -2e-5,10e-5 -39.15519,148.401 -50.18332,304.2738 -30.26258,456.225 z"
         style="fill:#0b280b;stroke:none" />
      <path
         id="path3891"
         d="m -338.92473,2316.7622 c -19.92074,-151.9512 -8.89261,-307.824 30.26258,-456.225 0,0 10e-6,0 10e-6,0 39.15271,-148.4017 106.5145,-289.6474 199.09711,-412.3864 10e-6,0 2e-5,0 3e-5,0 71.285563,-94.4995 156.82643,-178.3081 252.88932,-247.7109 l 5.82448,8.1286 c -95.787184,68.0645 -181.382703,150.5908 -252.9668,243.9529 -1e-5,0 -2e-5,0 -2e-5,0 -92.95378,121.2258 -161.15775,261.3017 -201.35714,408.9504 0,0 -10e-6,0 -10e-6,0 -40.19691,147.6494 -52.47655,303.1875 -33.74956,455.2904 z"
         style="fill:#0b280b;stroke:none" />
      <path
         id="path3897"
         d="m -315.67147,2323.7753 c -19.92074,-151.9512 -8.89261,-307.824 30.26259,-456.225 0,0 1e-5,0 1e-5,-1e-4 39.15271,-148.4016 106.5145,-289.6473 199.097101,-412.3863 1.3e-5,0 2.6e-5,0 3.8e-5,0 71.285558,-94.4995 156.826423,-178.3081 252.889311,-247.7109 l 5.82448,8.1286 c -95.787182,68.0645 -181.3826996,150.5908 -252.966799,243.9529 -92.953781,121.2258 -161.157761,261.3017 -201.357151,408.9504 -10e-6,0 -10e-6,0 -2e-5,0 -40.1969,147.6494 -52.47655,303.1875 -33.74956,455.2904 z"
         style="fill:#0b280b;stroke:none" />
      <path
         id="path3903"
         d="m -446.17487,2294.2993 c -18.72699,-152.1029 -6.44735,-307.641 33.74956,-455.2904 0,0 0,0 1e-5,0 40.19938,-147.6487 108.40335,-287.7246 201.35712,-408.9503 1e-5,-10e-5 2e-5,-10e-5 4e-5,-10e-5 71.5841,-93.3621 157.179616,-175.8884 252.966801,-243.9529 l -5.824482,-8.1286 c -96.062889,69.4028 -181.603759,153.2114 -252.889319,247.7109 0,0 -10e-6,0 -10e-6,0 -92.58262,122.739 -159.94441,263.9847 -199.09712,412.3863 -1e-5,10e-5 -1e-5,10e-5 -2e-5,10e-5 -39.15519,148.401 -50.18332,304.2738 -30.26258,456.225 z"
         style="fill:#0b280b;stroke:none" />
      <path
         id="path3909"
         d="m -68.42092,1929.2047 c -146.73053,-10.0405 -293.87782,-50.5435 -429.97877,-117.87 -10e-6,0 -2e-5,0 -3e-5,0 -136.09038,-67.3444 -261.44538,-161.6396 -364.65639,-279.0794 -10e-6,0 -3e-5,0 -4e-5,0 -79.41233,-90.3788 -145.98955,-193.721 -196.18015,-305.9634 41.1478,115.5315 99.67439,224.8846 173.15974,323.3807 6.66439,8.9256 13.45324,17.7553 20.36317,26.487 105.26047,106.1346 228.16287,189.9378 359.00247,249.2061 140.63891,63.71 290.76616,99.1763 438.29,103.839 z"
         style="fill:#0b280b;stroke:none" />
      <path
         id="path3913"
         d="m -72.260565,1983.7736 c -146.730525,-10.0405 -293.877805,-50.5435 -429.978765,-117.8701 -1e-5,0 -2e-5,0 -3e-5,0 -136.09037,-67.3443 -261.44537,-161.6396 -364.65639,-279.0793 -2e-5,0 -3e-5,0 -5e-5,0 -79.41234,-90.3788 -145.9896,-193.721 -196.1802,-305.9634 41.1478,115.5315 99.67443,224.8846 173.1598,323.3807 6.66439,8.9256 13.45323,17.7553 20.36315,26.487 105.26049,106.1346 228.16289,189.9378 359.0025,249.2061 140.6389,63.71 290.76615,99.1763 438.289985,103.839 z"
         style="fill:#0b280b;stroke:none" />
      <path
         id="path3919"
         d="m -254.16889,1936.2353 c -146.73053,-10.0405 -293.87782,-50.5435 -429.97877,-117.87 -10e-6,-10e-5 -2e-5,-10e-5 -3e-5,-10e-5 -136.09038,-67.3443 -261.44537,-161.6396 -364.65641,-279.0793 0,0 0,0 0,0 -79.4124,-90.3788 -145.9896,-193.721 -196.1802,-305.9634 41.1478,115.5315 99.6744,224.8846 173.1598,323.3807 6.6644,8.9256 13.4532,17.7553 20.3631,26.487 105.26051,106.1346 228.16291,189.9378 359.00251,249.2061 140.63891,63.71 290.76616,99.1763 438.29,103.839 z"
         style="fill:#0b280b;stroke:none" />
      <path
         id="path3925"
         d="m 217.21852,1864.8703 c -146.73052,-10.0404 -293.877806,-50.5434 -429.97876,-117.87 -136.09038,-67.3443 -261.44539,-161.6395 -364.65642,-279.0793 -10e-6,0 -3e-5,0 -4e-5,0 -79.41234,-90.3788 -145.98962,-193.721 -196.18019,-305.9634 41.14782,115.5315 99.67441,224.8846 173.15978,323.3807 6.66439,8.9256 13.45323,17.7553 20.36315,26.487 105.26048,106.1346 228.16289,189.9378 359.00249,249.2061 140.63891,63.71 290.766153,99.1763 438.28999,103.8389 z"
         style="fill:#0b280b;stroke:none" />
      <path
         id="path3879"
         d="m -134.83107,2138.4983 c -146.73052,-10.0404 -293.8778,-50.5434 -429.97876,-117.87 -10e-6,0 -10e-6,0 -2e-5,0 -136.09038,-67.3443 -261.44538,-161.6396 -364.6564,-279.0793 -1e-5,0 -3e-5,0 -4e-5,0 -79.41231,-90.3788 -145.98961,-193.721 -196.18021,-305.9634 41.1478,115.5315 99.6744,224.8846 173.15979,323.3807 6.6644,8.9256 13.45323,17.7553 20.36316,26.487 105.26048,106.1346 228.16289,189.9378 359.00249,249.2061 140.63891,63.71 290.76615,99.1763 438.28999,103.8389 z"
         style="fill:#0b280b;stroke:none" />
    </g>
    <path
       id="path3819"
       d="M 853.4285,539.53053 C 809.8233,474.28007 753.12995,418.15845 688.32034,374.44649 c 0,0 0,-10e-6 0,-10e-6 -64.80696,-43.71581 -137.86738,-75.1129 -214.16183,-90.98359 -10e-6,0 -2e-5,0 -3e-5,0 -58.74461,-12.21876 -119.24321,-15.57608 -178.82481,-9.96989 3.59826,1.36846 7.17005,2.76953 10.7149,4.20244 55.70909,-4.72153 112.22658,-1.56965 167.31612,9.42392 1e-5,0 1e-5,0 2e-5,1e-5 75.93145,15.14947 148.93008,45.80211 213.89602,88.86895 0,1e-5 9e-5,2e-5 9e-5,2e-5 64.96709,43.0652 122.04098,98.6337 166.16768,163.54219 z"
       style="fill:#0b280b;stroke:none;display:inline" />
    <path
       id="path3823"
       d="M 680.01636,323.32646 C 636.41118,258.07599 579.71779,201.95437 514.90819,158.2424 c 0,-1e-5 -10e-6,-1e-5 -10e-6,-1e-5 -64.80693,-43.71582 -137.86741,-75.112908 -214.16185,-90.98361 -10e-6,0 -2e-5,0 -3e-5,0 -58.74462,-12.218769 -119.24321,-15.576086 -178.82482,-9.9699 3.59829,1.368452 7.17012,2.769519 10.715,4.202435 55.70907,-4.721509 112.22653,-1.569635 167.31603,9.423941 75.93144,15.149477 148.9301,45.802124 213.8961,88.868974 0,1e-5 10e-6,1e-5 2e-5,2e-5 64.96713,43.0652 122.04106,98.6337 166.16773,163.54221 z"
       style="fill:#0b280b;stroke:none;display:inline" />
    <path
       id="path3825"
       d="M 1095.82,143.02397 C 1052.2149,77.773493 995.5215,21.651876 930.7119,-22.0601 c 0,0 0,-1e-5 0,-1e-5 -64.807,-43.71582 -137.86741,-75.1129 -214.16186,-90.98361 0,0 -8e-5,0 -8e-5,0 -58.74456,-12.21876 -119.24319,-15.57609 -178.82482,-9.96991 3.59829,1.36845 7.17017,2.76952 10.71502,4.20243 55.70904,-4.7215 112.22655,-1.56962 167.31604,9.42396 75.93141,15.14948 148.9301,45.80213 213.8961,88.86898 0,1e-5 0,1e-5 0,1e-5 64.9671,43.065209 122.0411,98.63371 166.1677,163.54222 z"
       style="fill:#0b280b;stroke:none;display:inline" />
    <path
       id="path3827"
       d="m 1125.4322,398.62396 c -43.6051,-65.25048 -100.2985,-121.37209 -165.1081,-165.08407 0,0 0,0 0,-1e-5 -64.807,-43.71582 -137.8674,-75.11291 -214.16185,-90.98362 0,0 -9e-5,0 -9e-5,0 -58.74456,-12.21877 -119.24319,-15.57611 -178.82482,-9.96992 3.59829,1.36845 7.17017,2.76952 10.71503,4.20244 55.70904,-4.72151 112.22654,-1.56962 167.31603,9.42395 0,1e-5 0,1e-5 0,1e-5 75.9315,15.14949 148.9301,45.80214 213.8961,88.86899 0,0 0,1e-5 0,2e-5 64.9671,43.06519 122.0411,98.63369 166.1677,163.54221 z"
       style="fill:#0b280b;stroke:none;display:inline" />
    <g
       style="fill:#0b280b;display:inline"
       id="g2881"
       transform="matrix(0.51900614,0.71102024,-0.71102024,0.51900614,258.2258,-505.49554)">
      <path
         id="path3811"
         d="m -933.77032,2264.8564 c -18.72699,-152.1029 -6.44735,-307.641 33.74956,-455.2904 0,0 0,0 10e-6,0 40.19938,-147.6487 108.40335,-287.7246 201.35712,-408.9503 10e-6,-10e-5 2e-5,-10e-5 4e-5,-10e-5 71.5841,-93.3621 157.17962,-175.8884 252.9668,-243.9529 l -5.82448,-8.1286 c -96.06289,69.4028 -181.60376,153.2114 -252.88932,247.7109 0,0 -1e-5,0 -1e-5,0 -92.58262,122.739 -159.94441,263.9847 -199.09712,412.3863 -1e-5,10e-5 -1e-5,10e-5 -2e-5,10e-5 -39.15519,148.401 -50.18332,304.2738 -30.26258,456.225 z"
         style="fill:#0b280b;stroke:none"
         transform="matrix(1,0,0,-1,1220.8179,2075.2958)" />
      <path
         id="path3815"
         d="m 905.14643,-248.4795 c -19.92072,151.951208 -8.89258,307.824018 30.26262,456.225 10e-6,1e-5 10e-6,2e-5 10e-6,4e-5 39.15272,148.40161 106.51454,289.64735 199.09714,412.38632 0,1e-5 0,3e-5 0,5e-5 71.2855,94.49947 156.8264,178.30813 252.8893,247.71093 l 5.8244,-8.12868 c -95.7871,-68.06449 -181.3826,-150.5908 -252.9667,-243.95287 0,-10e-6 0,-10e-6 0,-2e-5 C 1047.2994,494.5355 979.09544,354.4596 938.89605,206.81093 c -10e-6,-2e-5 -10e-6,-4e-5 -2e-5,-6e-5 C 898.69912,59.161501 886.41946,-96.376557 905.14643,-248.4795 z"
         style="fill:#0b280b;stroke:none" />
      <path
         id="path3817"
         d="m 774.64303,-219.0035 c -19.92072,151.951208 -8.89258,307.824018 30.26262,456.225 10e-6,1e-5 10e-6,2e-5 10e-6,4e-5 39.15272,148.40161 106.5145,289.64735 199.09714,412.38632 0,1e-5 0,3e-5 0,5e-5 71.2855,94.49947 156.8264,178.30813 252.8893,247.71093 l 5.8244,-8.12868 c -95.7871,-68.06449 -181.3826,-150.5908 -252.9667,-243.95287 0,-10e-6 0,-10e-6 0,-2e-5 C 916.79601,524.0115 848.59204,383.9356 808.39265,236.28693 c -10e-6,-2e-5 -10e-6,-4e-5 -2e-5,-6e-5 C 768.19572,88.637501 755.91606,-66.900557 774.64303,-219.0035 z"
         style="fill:#0b280b;stroke:none" />
    </g>
    <path
       id="path3821"
       d="M 811.9124,89.587766 C 673.26485,63.395038 531.92066,65.911331 397.85155,93.579581 263.78008,121.22977 136.70851,174.11116 26.55549,248.52116 -58.3367,305.84106 -133.60842,375.38169 -196.26139,453.45844 -127.43219,381.17846 -47.73065,319.29298 39.14255,270.59614 46.98861,266.19405 54.89743,261.904 62.8655,257.72641 162.33073,188.99947 277.23435,137.74273 399.71124,107.81435 531.36255,75.646351 672.04204,68.021404 811.9124,89.587766 z"
       style="fill:#0b280b;stroke:none;display:inline" />
    <path
       style="fill:#0b280b;stroke:none;display:inline"
       d="m 228.86422,-212.00378 c 95.19913,38.52027 184.80773,91.46508 264.76955,156.58171 10e-6,10e-6 2e-5,10e-6 2e-5,2e-5 103.81603,84.529601 190.56951,190.35857 255.00261,308.58299 0,2e-5 0,3e-5 0,5e-5 64.4303,118.22589 106.6818,249.09896 121.6276,383.63928 2.0308,-8.66473 3.9479,-17.39029 5.75,-26.17325 -18.3505,-126.69478 -60.5603,-249.19391 -122.2167,-360.18828 0,0 0,-1e-5 0,-2e-5 C 688.05194,132.07271 600.04721,26.542216 495.26345,-57.36823 c -10e-6,-2e-5 -3e-5,-3e-5 -5e-5,-4e-5 -80.70046,-64.63131 -170.87193,-116.89515 -266.39918,-154.63551 z"
       id="path3813" />
  </g>
  <g
     inkscape:groupmode="layer"
     id="layer6"
     inkscape:label="logoscreen"
     style="display:inline">
    <path
       style="fill:url(#linearGradient92373);fill-opacity:1;stroke:none;display:inline"
       mask="none"
       d="m 1197.7229,648.97457 -629.71271,5.28177 -6.79476,0.0825 -1.21041,0 -0.6052,0 -957.97971,-2.77843 0,463.36469 1596.30279,0 0,-465.95055 z m -695.15705,1.65055 -10.72858,0.055 22.83262,2.66839 -11.93898,-2.72341 -0.16506,0 z m 22.55753,0 8.55536,2.971 6.13454,0 -6.32711,-2.971 -8.36279,0 z m 16.91815,0 4.89663,2.99851 1.67806,0 -3.93381,-2.99851 -0.99033,0 -1.65055,0 z m 8.03268,0 3.13605,2.99851 0.27509,0 -2.53085,-2.99851 -0.88029,0 z m 5.03418,0 0.6052,0.8803 -0.46766,-0.8803 -0.13754,0 z m 5.14422,0 0.49516,3.02601 0.52268,0 -0.85279,-3.02601 -0.16505,0 z m 2.94348,0 -0.16506,3.02601 0.5777,0 -0.19257,-3.02601 -0.22007,0 z m 2.9985,0 -0.82528,3.02601 0.52268,0 0.46765,-3.02601 -0.16505,0 z m 5.14422,0 -0.44015,0.85279 0.55018,-0.85279 -0.11003,0 z m 4.26387,0 -2.5308,3.02601 0.24759,0 3.10858,-3.02601 -0.82537,0 z m 6.16206,0 -3.90621,3.02601 1.56797,0 4.84162,-3.02601 -0.77026,0 -1.73312,0 z m 10.92119,0 -6.32711,3.02601 5.77693,0 8.50038,-3.02601 -1.21041,0 -1.84316,0 -1.45794,0 -1.43048,0 -1.18293,0 -0.82528,0 z m 29.26977,0 -11.82895,2.77843 22.30999,-2.77843 -10.48104,0 z m -52.70759,0.60521 -1.23792,2.4208 0.33011,0 0.90781,-2.4208 z m -11.85646,0.0825 0.9078,2.33828 0.33011,0 -1.23791,-2.33828 z"
       id="path92330" />
    <path
       transform="matrix(0.88029168,0.00194585,-0.00194585,0.88029168,-305.32897,-83.28486)"
       sodipodi:nodetypes="ccccccccccccccccccccccccccccccccccccccccccccccccccccccccccc"
       mask="url(#mask92320)"
       id="path92370"
       d="m 873.34375,-1013.625 113.5625,1848.59375 -1.21875,0 L 688.6875,-967 479.59375,-946.5625 984.25,834.96875 l -1.34375,0 -673.78125,-1696.625 -199.96875,64.5 872.09375,1632.125 -1.6875,0 -1018.84375,-1512.875 -181.625,105.625 1198.34375,1407.25 -2.3125,0 L -340.5625,-424.125 -495.53125,-282.25 971.90625,834.96875 l -3.875,0 L -580.84375,-112 l -121.1875,171.625 1663.9375,775.34375 -8.8125,0 -1702.25,-590.8125 -81.8125,193.5 1765.3125,397.3125 -1772.03125,-207 -38.75,206.5 1860.61333,1.28261 1841.63667,-19.50136 10.375,-209.875 -1797.5937,228.59375 1738.5,-409.625 -34.5938,-207.25 -1721.3438,616.875 -8.4062,0 1633.4375,-781.15625 -77.9687,-195.09375 -1561.375,976.25 -3.75,0 1436.0624,-1116.25 -117.75,-174.03125 -1321.4687,1290.28125 -2.28125,0 L 2165.4688,-564.59375 2013.375,-709.5625 995.5625,834.96875 l -1.65625,0 L 1837.7188,-783.125 1658.25,-892.34375 992.28125,834.96875 l -1.34375,0 480.0313,-1761.75 -198.6563,-68.5 -282.8125,1830.25 -1.21875,0 93.71875,-1824 -208.65625,-24.59375 0,0 z"
       style="fill:url(#linearGradient92368);fill-opacity:1;stroke:none;display:inline" />
  </g>
  <g
     inkscape:groupmode="layer"
     id="layer2"
     inkscape:label="logo"
     style="display:inline;opacity:0.3057895">
    <g
       style="opacity:0.53218857;display:inline"
       id="g3774"
       transform="matrix(0.59901798,0,0,0.59901798,2404.4927,742.74114)"
       mask="url(#mask4614)">
      <g
         transform="translate(-721.18335,-1007.7333)"
         style="display:inline"
         id="g3776"
         inkscape:label="Layer 1" />
      <g
         transform="translate(-721.18335,-1007.7333)"
         style="display:inline"
         inkscape:label="lines"
         id="g3778" />
      <g
         transform="translate(-721.18335,-1007.7333)"
         style="display:inline"
         inkscape:label="screen"
         id="layer5" />
      <g
         transform="translate(-721.18335,-1007.7333)"
         style="display:inline"
         inkscape:label="sun"
         id="g3781" />
      <g
         transform="translate(-721.18335,-1007.7333)"
         style="display:inline"
         inkscape:label="logo"
         id="g3783">
        <g
           mask="none"
           id="g5011"
           transform="matrix(0.9773059,0,0,-0.30716,92.769879,1304.4747)">
          <path
             id="path5013"
             d="m 927.3487,674.21947 c -2.06389,-0.71744 -4.60455,-1.75601 -7.55948,-3.13997 -2.95493,-1.38395 -6.32555,-3.11464 -10.03816,-5.17119 -3.71262,-2.05655 -7.76907,-4.4401 -12.05982,-7.06603 -4.29074,-2.62593 -8.81763,-5.49503 -13.4072,-8.44462 -4.58953,-2.94959 -8.72304,-5.63866 -12.33714,-7.97297 -3.6141,-2.33431 -6.70838,-4.31484 -9.27901,-5.93242 -2.57062,-1.61757 -4.61843,-2.87384 -6.19535,-3.82468 -1.57692,-0.95085 -2.68451,-1.59843 -3.41214,-2.03506 -1.65561,-0.9935 -3.05212,-1.49588 -4.2112,-1.53261 -0.28343,-0.009 -0.42794,0.0367 -0.64327,0.094 -19.97953,-3.108 -40.86548,-5.99455 -62.86322,-8.24078 -8.72732,-0.89115 -17.29001,-1.6082 -25.78814,-2.09745 -8.49812,-0.48924 -16.93274,-0.75195 -25.39543,-0.69047 -9.61255,0.006 -19.66351,0.57566 -29.50211,2.0341 -9.83861,1.45844 -19.45663,3.81809 -28.04756,7.28998 -8.59093,3.47188 -16.14269,8.06087 -21.84804,13.73286 -5.70535,5.67199 -9.55193,12.42269 -10.91914,19.96751 -1.50477,7.83353 -0.90065,15.8979 1.18374,24.21785 2.08439,8.31995 5.64854,16.9055 10.17195,26.03201 5.42866,10.95294 12.3878,22.23907 20.71701,33.23491 8.32921,10.99584 18.01617,21.6885 28.75575,31.61646 -2.21023,9.77745 -1.39638,20.09454 0.75061,29.43059 2.147,9.33606 5.59118,17.69638 8.69695,23.74342 8.67692,16.89427 17.08541,33.8836 24.76186,50.62329 2.82794,6.16677 7.21825,14.12625 12.67406,22.05011 5.4558,7.92386 11.93689,15.79925 19.20067,22.26977 3.63195,3.23529 7.07175,5.77565 10.31826,7.78241 3.2465,2.00676 6.29999,3.47875 9.13297,4.53933 5.66596,2.12116 10.46944,2.59522 13.90029,2.238 14.8457,-1.54571 29.53781,-1.53059 44.10889,-0.59614 14.57108,0.93444 29.02113,2.78819 43.37991,5.0304 7.83079,1.22282 16.20169,-0.99546 23.87706,-7.77402 5.9716,7.90774 12.08953,13.98989 17.14341,14.91473 8.89879,1.62845 17.77185,3.25276 26.62526,4.79063 3.72945,0.64783 7.86586,-1.35883 11.91416,-5.16408 4.0483,-3.80525 8.00536,-9.40881 11.35897,-15.8469 6.35167,8.71117 12.91196,15.84564 19.59223,20.94272 6.6803,5.09708 13.4813,8.15322 20.2675,8.76233 12.3653,1.10985 24.717,1.79355 37.0676,1.99222 12.3506,0.19867 24.7001,-0.0877 37.0595,-0.85134 6.1606,-0.38065 13.659,-8.86979 20.3254,-20.09238 5.6905,4.7719 11.5049,8.51223 17.5583,10.53036 0.043,0.0308 0.086,0.0616 0.1285,0.0923 0.044,-0.006 0.088,-0.0115 0.1316,-0.0172 8.5648,2.67621 17.2856,3.18773 26.1264,1.65186 8.7206,-1.51501 17.4699,-5.01387 26.2507,-10.40813 5.0028,-3.0626 10.0304,-6.8717 15.0401,-11.34898 0.2259,0.33814 0.3882,1.0166 0.6175,1.32258 3.7701,5.03485 7.1993,7.24322 10.1739,8.10454 2.9745,0.86131 5.4994,0.37685 7.4859,-0.0393 11.1194,-2.32939 22.2657,-4.63584 33.4417,-6.71455 4.017,-0.74716 9.3642,-4.12808 15.1178,-9.54486 5.7536,-5.41678 11.9305,-12.84712 17.6845,-21.91834 2.689,8.07486 6.8807,14.20116 11.4423,18.23304 4.5616,4.03187 9.4907,5.99585 13.8137,5.78857 11.1926,-0.53664 22.4163,-0.40584 33.6709,0.70257 2.1397,0.21073 4.8821,0.42806 8.504,-0.36916 3.6219,-0.79722 8.0974,-2.60653 14.0253,-6.30016 2.964,-1.84689 6.1594,-4.44223 9.4832,-7.51789 3.3237,-3.07566 6.7781,-6.63333 10.1903,-10.43541 3.4122,-3.80207 6.7817,-7.85011 9.8517,-11.91261 3.0701,-4.06249 5.8379,-8.14078 7.9861,-11.98782 4.259,-7.62706 7.4255,-13.94627 9.6462,-19.23861 2.2207,-5.29234 3.5078,-9.55768 4.2095,-13.09308 1.4035,-7.07079 0.472,-11.20361 0.6202,-14.99832 0,-0.0687 -0.032,-0.14061 -0.029,-0.20704 1.1367,-17.22527 1.9906,-34.41813 2.2703,-51.10935 0.2797,-16.69123 -0.015,-32.88081 -1.1095,-48.12331 13.4117,-11.40063 27.1791,-22.04102 41.0351,-31.88829 13.8561,-9.84727 27.8006,-18.90142 41.5179,-27.14837 0.2381,-0.12215 0.4762,-0.24408 0.7143,-0.36582 0.221,-0.1484 0.4419,-0.29655 0.6627,-0.44447 1.7906,-1.12346 4.2196,-2.33355 6.8733,-3.91731 2.6538,-1.58376 5.5366,-3.5445 8.1532,-6.12954 2.6167,-2.58504 4.9733,-5.80401 6.4153,-9.76982 1.442,-3.96581 1.9763,-8.69725 0.6888,-13.96277 -0.6439,-2.63277 -2.1545,-5.23865 -4.3125,-7.65469 -2.1581,-2.41604 -4.9623,-4.64106 -8.1426,-6.57647 -3.1804,-1.93542 -6.7349,-3.58177 -10.3655,-4.90999 -3.6307,-1.32822 -7.3353,-2.34063 -10.8181,-3.05623 -6.9653,-1.43118 -12.8311,-2.05695 -17.7473,-2.40462 -4.9162,-0.34767 -8.8959,-0.39956 -12.1942,-0.42215 -21.8642,-0.14928 -42.723,0.71587 -62.7047,2.22247 -6.0168,0.45372 -12.6721,1.2592 -19.2335,2.28576 -6.5614,1.02657 -13.0391,2.28051 -18.8317,3.75246 -6.0954,-0.32261 -12.878,-0.0748 -19.5013,0.49202 -6.6234,0.56681 -13.0778,1.42864 -18.6366,2.25656 -17.9904,2.67947 -35.268,5.58485 -51.9673,8.46101 -2.5248,0.43484 -5.5423,0.95675 -9.095,1.54464 -1.0604,0.1863 -2.1084,0.37646 -3.1551,0.55751 -11.9728,2.07094 -23.6565,4.099 -35.1037,6.0087 -0.6802,0.11347 -1.3595,0.22652 -2.038,0.33915 -0.6723,0.10527 -1.3438,0.21001 -2.0145,0.31423 -5.5949,0.86589 -11.3587,1.49613 -16.7247,2.10709 -5.366,0.61096 -10.3457,1.24849 -14.2845,2.12441 -2.1323,0.0693 -4.6011,0.29387 -7.3097,0.65287 -2.7085,0.359 -5.6561,0.85146 -8.7428,1.40088 -6.1734,1.09884 -12.8828,2.39934 -19.4604,3.10802 -0.1632,0.0176 -0.3263,0.0351 -0.4895,0.0526 -0.2886,1.14815 -0.6782,2.99348 -1.178,5.57618 -0.3039,1.56918 -0.8269,3.81485 -2.4832,7.23988 -1.6563,3.42504 -4.4628,8.04484 -9.083,14.34314 -2.31,3.14914 -5.0854,6.34756 -8.0509,9.36703 -2.9655,3.01947 -6.1208,5.85738 -9.2399,8.29203 -3.1192,2.43465 -6.2031,4.46368 -9.0689,5.90983 -2.8659,1.44614 -5.5157,2.3078 -7.7858,2.4821 -9.0504,0.69325 -18.0404,0.95767 -27.041,0.78755 -2.0935,-0.0399 -4.5457,-0.61858 -7.2105,-1.72096 -2.6648,-1.10239 -5.544,-2.72868 -8.4871,-4.79585 -2.9431,-2.06718 -5.9515,-4.57452 -8.8469,-7.37508 -2.8954,-2.80056 -5.6785,-5.89292 -8.1281,-9.08242 -4.899,-6.37897 -8.0625,-11.43824 -10.0266,-15.23816 -1.9642,-3.79993 -2.7426,-6.36971 -3.1514,-8.10842 -0.633,-2.69172 -1.1828,-4.62067 -1.6586,-5.82853 -5.3743,-0.43684 -10.7722,-0.93774 -16.2009,-1.49882 -0.018,-0.002 -0.035,-0.004 -0.053,-0.005 -0.018,-0.002 -0.036,-0.004 -0.054,-0.006 -5.2756,-0.54746 -10.6213,-1.24973 -16.0102,-2.03705 -5.38898,-0.78733 -10.82138,-1.65779 -16.24953,-2.50271 0.61607,0.31216 1.1863,0.81804 1.5848,1.43943 0.71617,1.11673 1.54717,2.8003 2.50461,5.08004 0.40174,0.95668 0.72766,2.15922 0.90043,3.61897 0.17277,1.45975 0.19288,3.17906 -0.0189,5.10624 -0.21175,1.92718 -0.65465,4.0634 -1.41873,6.26735 -0.76408,2.20396 -1.84819,4.47527 -3.36728,6.57687 -1.51915,2.10158 -3.30931,3.78334 -5.27903,5.00925 -1.96971,1.22592 -4.11973,1.99854 -6.34029,2.38182 -4.4411,0.76656 -9.19299,-0.0443 -13.05495,-1.30156 -10.48488,-3.41451 -21.29221,-7.11033 -32.49735,-11.00432 -4e-5,-7e-5 -8e-5,-1.3e-4 -1.2e-4,-2e-4 -10e-4,-2.5e-4 -0.002,-5e-4 -0.003,-7.5e-4 l 2.4e-4,6e-5 z"
             style="font-size:184.58837891px;font-style:normal;font-variant:normal;font-weight:bold;font-stretch:normal;fill:#ffffff;fill-opacity:1;stroke:none;font-family:sidux;-inkscape-font-specification:sidux Bold" />
          <path
             id="path5015"
             d="m 761.30952,814.41953 c 6.9651,17.38551 13.69017,35.09086 19.76574,52.77155 1.15732,3.36793 2.73181,4.82629 4.75103,4.41486 16.91168,-3.44586 33.42739,-5.17399 49.61739,-5.82655 16.19001,-0.65257 32.05432,-0.22959 47.66038,0.73751 6.5219,0.40416 11.33717,-2.38494 14.56232,-8.4703 3.1734,-6.46161 5.29942,-14.10114 6.33065,-22.80688 1.99488,-15.22141 1.81398,-31.16506 -0.76072,-47.29881 -2.95858,-18.53609 -6.34983,-32.79338 -10.19275,-43.60625 -3.84322,-10.81252 -8.26345,-18.81445 -13.35755,-24.56341 -5.14862,-6.02853 -11.27913,-10.21476 -18.47265,-12.77407 -6.96335,-2.5531 -15.18175,-3.88156 -24.70065,-3.87688 -16.06341,0.008 -32.58111,0.50275 -49.63708,1.76986 -5.68533,0.42245 -10.44936,-0.53829 -14.25321,-2.92879 -3.80385,-2.3905 -6.64975,-6.21585 -8.34381,-11.27315 -1.60933,-4.80434 -1.22551,-8.38007 1.07542,-10.86351 2.30092,-2.48345 6.51512,-3.87439 12.47744,-4.17884 33.65395,-1.7181 65.13455,-0.826 95.07364,0.90753 2.35714,0.1366 3.34578,-0.85797 3.0104,-2.89107 -1.74446,-10.57102 -2.93399,-19.31358 -3.32171,-25.89195 -0.0821,-1.39149 -1.31386,-2.13782 -3.76651,-2.37926 -27.10512,-2.66721 -55.6098,-4.88125 -86.00988,-5.50157 -14.58085,-0.29742 -27.32765,0.33927 -37.80155,1.83578 -10.65032,1.33755 -19.37232,3.9334 -25.66531,7.93931 -6.293,4.0059 -10.14323,9.42243 -11.11494,16.4813 -0.55759,3.77019 -0.36166,8.17238 0.66048,13.29779 1.02215,5.1254 2.87212,10.97448 5.58612,17.64375 3.93806,9.6772 8.84722,18.6034 14.28373,26.36681 5.4365,7.76341 11.40463,14.37298 17.68411,19.66865 7.09625,5.95165 14.46187,10.19059 22.03827,12.67727 7.5764,2.48669 15.36943,3.22509 23.47276,2.28874 17.96846,-2.07606 35.3726,-3.04979 52.30982,-3.34956 4.64943,-0.0822 8.48854,1.47614 11.51268,4.67711 3.02414,3.20098 5.2353,8.04874 6.69211,14.67907 1.74801,7.95624 1.95098,14.09583 0.65933,18.1977 -1.29166,4.10188 -4.07407,6.16782 -8.42731,6.20488 -14.61453,0.12441 -29.54384,0.80578 -44.8494,2.37691 -15.30556,1.57114 -30.98738,4.03204 -47.10837,7.77115 -2.28658,0.53034 -2.76702,2.46199 -1.44042,5.77332 l 0,0 z m 162.15384,45.33598 c 0.73259,6.88296 1.97659,10.46999 3.78815,10.66373 9.51016,1.0171 18.9431,2.09112 28.3142,3.13946 1.78496,0.19969 2.44818,-3.26329 1.94657,-10.27051 -3.48328,-48.65897 -8.41708,-93.41623 -12.54759,-129.60039 -4.13051,-36.18416 -7.45773,-63.79521 -7.58353,-78.16305 -0.008,-0.9195 -0.28419,-1.58908 -0.84475,-2.07214 -0.56056,-0.48305 -1.40559,-0.77978 -2.54178,-0.90914 -11.93005,-1.35794 -24.08429,-2.76545 -36.51491,-4.13967 -2.36786,-0.26168 -3.56354,0.45052 -3.46918,2.4493 0.73725,15.61626 5.59296,43.94347 11.50006,80.31598 5.9071,36.37251 12.86561,80.7903 17.95276,128.58643 l 0,0 z M 1073.0005,661.71067 c 0.5541,-6.59594 1.19,-5.97891 2.0078,3.48533 0.1299,1.50554 1.2838,2.4508 3.4536,2.47669 10.2562,0.12176 20.5018,-0.0796 30.7988,-0.59818 1.98,-0.0999 3.0155,-1.07338 3.0831,-2.56628 0.8453,-18.71608 -0.4739,-2.32077 -2.7608,36.20968 -2.2869,38.53045 -5.5414,99.19603 -8.006,169.01545 -0.2529,7.16131 -1.2411,10.85516 -2.9774,10.93185 -12.807,0.56564 -25.5922,0.77393 -38.3923,0.61727 -12.8001,-0.15665 -25.615,-0.67825 -38.483,-1.50577 -10.469,-0.67324 -19.5533,-6.35927 -27.5409,-16.54724 -3.99378,-5.09398 -7.71369,-11.30837 -11.1902,-18.53802 -3.47652,-7.22964 -6.71069,-15.47621 -9.71586,-24.58653 -4.34243,-12.96627 -8.13537,-26.71391 -11.26428,-40.82025 -3.12891,-14.10635 -5.59444,-28.57928 -7.15201,-42.74377 -1.79764,-16.49945 -2.49192,-29.03096 -2.03413,-38.60829 0.45779,-9.57733 2.05466,-16.21867 4.64579,-20.88948 2.55612,-4.40198 5.75394,-7.67292 9.51607,-10.11938 3.76213,-2.44646 8.08695,-4.07023 12.90114,-5.13634 4.8142,-1.06611 10.11692,-1.57615 15.85758,-1.72839 5.7406,-0.15224 11.9193,0.052 18.5138,0.50304 18.7186,1.29909 37.1446,2.10068 55.5152,2.30597 2.0872,0.0282 3.1607,-0.40777 3.224,-1.15736 l 0,0 z m -1.2469,30.3725 c 0.058,-2.17966 -0.9385,-3.2055 -2.9909,-3.22466 -11.3904,-0.10575 -22.7998,-0.39737 -34.2774,-0.85733 -11.0642,-0.44333 -20.0642,0.71471 -26.8083,4.02608 -6.7441,3.31138 -11.21961,8.7903 -13.30566,17.44854 -1.87215,6.96293 -2.39422,16.50665 -1.59548,29.59417 0.497,8.14355 1.59816,16.0764 3.23918,23.55848 1.64101,7.48207 3.82192,14.51516 6.50626,20.9301 3.2261,7.79973 7.6577,13.99145 13.2842,18.27171 5.6265,4.28026 12.449,6.6524 20.546,6.94367 10.2133,0.3674 20.3903,0.58107 30.5575,0.62365 1.8319,0.008 2.7735,-1.80333 2.8256,-5.35923 0.6829,-46.7603 1.3264,-85.89713 2.019,-111.95518 l 0,0 z m 151.1536,-35.35964 c -2.5667,20.39837 -11.3245,66.05866 -19.8724,124.40769 -0.8869,6.05359 -4.6591,11.65649 -11.1427,16.73319 -5.8679,4.67561 -12.5007,7.4164 -19.9821,8.07514 -7.6685,0.67521 -13.862,-0.95028 -18.7063,-4.78331 -5.1542,-4.51005 -7.5269,-9.72243 -7.0286,-15.49632 5.0859,-58.92913 10.2493,-104.03035 11.9225,-122.74924 -5e-4,-1.17853 -0.2542,-1.94353 -0.7453,-2.41387 -0.491,-0.47035 -1.2194,-0.64644 -2.1784,-0.57182 -10.8684,0.84602 -21.6345,1.53353 -32.3434,2.03501 -1.1549,0.0541 -2.0114,0.31869 -2.573,0.83689 -0.5617,0.5182 -0.8284,1.29044 -0.8087,2.43932 -0.7547,10.22246 -2.0747,28.89419 -3.6574,53.78945 -1.5827,24.89525 -3.4281,56.01404 -5.1802,91.13013 -0.5751,11.5253 0.7662,21.77024 3.9146,30.34198 2.9789,8.39065 6.9555,15.4355 11.9298,20.92657 4.9743,5.49107 10.9459,9.42815 17.9525,11.68869 6.8437,2.07953 13.8434,2.6746 21.0626,1.81521 7.043,-0.83842 14.128,-3.10583 21.3362,-6.7079 7.761,-3.8643 14.7369,-9.03261 20.9854,-15.38143 6.2486,-6.34881 11.7723,-13.88156 16.5887,-22.48974 5.0314,-8.8105 8.6219,-18.89251 10.613,-30.06276 6.0662,-34.03427 12.5666,-64.87595 18.0225,-90.29139 5.456,-25.41544 9.8676,-45.40463 11.8099,-57.7344 0.102,-1.37896 -0.1156,-2.29291 -0.6177,-2.8492 -0.5021,-0.55628 -1.2882,-0.75527 -2.3425,-0.63797 -11.9491,1.33003 -23.6567,2.68672 -35.1667,3.99479 -1.2466,0.19088 -2.1769,0.58545 -2.8025,1.22084 -0.6256,0.63539 -0.9466,1.51201 -0.9898,2.73445 l 0,0 z m 145.3405,204.01639 c -0.085,-21.19289 -0.1293,-42.68099 -0.7577,-63.50795 -0.6283,-20.82697 -1.8412,-40.9928 -4.0904,-59.6052 -1.0441,-6.8745 1.511,-13.50393 8.0061,-19.83452 14.9101,-15.01102 30.1991,-28.58636 45.3386,-40.62303 15.1396,-12.03666 30.1297,-22.53464 44.3149,-31.4404 2.3961,-1.58035 2.2069,-2.48356 -0.5044,-2.75464 -20.942,-2.0928 -41.0438,-3.04188 -60.4122,-3.22005 -3.623,-0.0332 -6.4207,0.68982 -8.4693,2.21581 -9.7523,7.32562 -20.0798,15.98632 -30.6199,25.90909 -3.156,2.99797 -5.8585,4.56519 -8.0658,4.54486 -2.2073,-0.0203 -3.9207,-1.62983 -5.274,-4.60508 -4.28,-9.84965 -9.4476,-17.94863 -15.5365,-23.91412 -1.2578,-1.24341 -3.4485,-1.68938 -6.4856,-1.46101 -17.7173,1.33273 -34.8385,3.02267 -51.4757,4.81497 -2.1392,0.23053 -2.5567,0.79159 -1.3099,1.82095 7.5973,5.78757 14.2183,14.60018 19.8441,25.8499 5.6258,11.24973 10.2565,24.93656 14.0151,40.4207 1.7419,6.54676 -0.1364,13.14902 -5.2927,19.68126 -13.6277,17.95942 -26.7171,37.64197 -38.9237,58.77878 -12.2067,21.13681 -23.5306,43.72787 -33.7933,67.43929 -1.5696,3.53255 -1.7046,5.23901 -0.4393,5.08411 11.8404,-1.44952 23.7847,-2.78231 35.8537,-3.79399 2.211,-0.18534 4.0487,-1.78011 5.5407,-4.77342 11.7939,-23.21392 24.9672,-45.27897 39.2538,-65.89998 2.8669,-4.15781 5.1716,-6.17219 6.8543,-6.11798 1.6827,0.0542 2.7432,2.17812 3.1434,6.41641 2.1557,21.0284 3.7681,42.98536 5.46,64.85835 0.1747,2.81992 1.3149,4.28347 3.4237,4.42606 12.4607,0.84255 25.0768,2.44452 37.8655,5.11584 1.7707,0.36986 2.6167,-1.55502 2.5365,-5.82501 l 0,0 z"
             style="font-size:184.58837891px;font-style:normal;font-variant:normal;font-weight:bold;font-stretch:normal;fill:#55d400;fill-opacity:1;stroke:#ffffff;stroke-width:2.0233314;stroke-miterlimit:4;stroke-opacity:1;font-family:sidux;-inkscape-font-specification:sidux Bold" />
          <path
             id="path5017"
             d="m 761.30952,814.41953 c 6.9651,17.38551 13.69017,35.09086 19.76574,52.77155 1.15732,3.36793 2.73181,4.82629 4.75103,4.41486 16.91168,-3.44586 33.42739,-5.17399 49.61739,-5.82655 16.19001,-0.65257 32.05432,-0.22959 47.66038,0.73751 6.5219,0.40416 11.33717,-2.38494 14.56232,-8.4703 3.1734,-6.46161 5.29942,-14.10114 6.33065,-22.80688 1.99488,-15.22141 1.81398,-31.16506 -0.76072,-47.29881 -2.95858,-18.53609 -6.34983,-32.79338 -10.19275,-43.60625 -3.84322,-10.81252 -8.26345,-18.81445 -13.35755,-24.56341 -5.14862,-6.02853 -11.27913,-10.21476 -18.47265,-12.77407 -6.96335,-2.5531 -15.18175,-3.88156 -24.70065,-3.87688 -16.06341,0.008 -32.58111,0.50275 -49.63708,1.76986 -5.68533,0.42245 -10.44936,-0.53829 -14.25321,-2.92879 -3.80385,-2.3905 -6.64975,-6.21585 -8.34381,-11.27315 -1.60933,-4.80434 -1.22551,-8.38007 1.07542,-10.86351 2.30092,-2.48345 6.51512,-3.87439 12.47744,-4.17884 33.65395,-1.7181 65.13455,-0.826 95.07364,0.90753 2.35714,0.1366 3.34578,-0.85797 3.0104,-2.89107 -1.74446,-10.57102 -2.93399,-19.31358 -3.32171,-25.89195 -0.0821,-1.39149 -1.31386,-2.13782 -3.76651,-2.37926 -27.10512,-2.66721 -55.6098,-4.88125 -86.00988,-5.50157 -14.58085,-0.29742 -27.32765,0.33927 -37.80155,1.83578 -10.65032,1.33755 -19.37232,3.9334 -25.66531,7.93931 -6.293,4.0059 -10.14323,9.42243 -11.11494,16.4813 -0.55759,3.77019 -0.36166,8.17238 0.66048,13.29779 1.02215,5.1254 2.87212,10.97448 5.58612,17.64375 3.93806,9.6772 8.84722,18.6034 14.28373,26.36681 5.4365,7.76341 11.40463,14.37298 17.68411,19.66865 7.09625,5.95165 14.46187,10.19059 22.03827,12.67727 7.5764,2.48669 15.36943,3.22509 23.47276,2.28874 17.96846,-2.07606 35.3726,-3.04979 52.30982,-3.34956 4.64943,-0.0822 8.48854,1.47614 11.51268,4.67711 3.02414,3.20098 5.2353,8.04874 6.69211,14.67907 1.74801,7.95624 1.95098,14.09583 0.65933,18.1977 -1.29166,4.10188 -4.07407,6.16782 -8.42731,6.20488 -14.61453,0.12441 -29.54384,0.80578 -44.8494,2.37691 -15.30556,1.57114 -30.98738,4.03204 -47.10837,7.77115 -2.28658,0.53034 -2.76702,2.46199 -1.44042,5.77332 l 0,0 z m 162.15384,45.33598 c 0.73259,6.88296 1.97659,10.46999 3.78815,10.66373 9.51016,1.0171 18.9431,2.09112 28.3142,3.13946 1.78496,0.19969 2.44818,-3.26329 1.94657,-10.27051 -3.48328,-48.65897 -8.41708,-93.41623 -12.54759,-129.60039 -4.13051,-36.18416 -7.45773,-63.79521 -7.58353,-78.16305 -0.008,-0.9195 -0.28419,-1.58908 -0.84475,-2.07214 -0.56056,-0.48305 -1.40559,-0.77978 -2.54178,-0.90914 -11.93005,-1.35794 -24.08429,-2.76545 -36.51491,-4.13967 -2.36786,-0.26168 -3.56354,0.45052 -3.46918,2.4493 0.73725,15.61626 5.59296,43.94347 11.50006,80.31598 5.9071,36.37251 12.86561,80.7903 17.95276,128.58643 l 0,0 z M 1073.0005,661.71067 c 0.5541,-6.59594 1.19,-5.97891 2.0078,3.48533 0.1299,1.50554 1.2838,2.4508 3.4536,2.47669 10.2562,0.12176 20.5018,-0.0796 30.7988,-0.59818 1.98,-0.0999 3.0155,-1.07338 3.0831,-2.56628 0.8453,-18.71608 -0.4739,-2.32077 -2.7608,36.20968 -2.2869,38.53045 -5.5414,99.19603 -8.006,169.01545 -0.2529,7.16131 -1.2411,10.85516 -2.9774,10.93185 -12.807,0.56564 -25.5922,0.77393 -38.3923,0.61727 -12.8001,-0.15665 -25.615,-0.67825 -38.483,-1.50577 -10.469,-0.67324 -19.5533,-6.35927 -27.5409,-16.54724 -3.99378,-5.09398 -7.71369,-11.30837 -11.1902,-18.53802 -3.47652,-7.22964 -6.71069,-15.47621 -9.71586,-24.58653 -4.34243,-12.96627 -8.13537,-26.71391 -11.26428,-40.82025 -3.12891,-14.10635 -5.59444,-28.57928 -7.15201,-42.74377 -1.79764,-16.49945 -2.49192,-29.03096 -2.03413,-38.60829 0.45779,-9.57733 2.05466,-16.21867 4.64579,-20.88948 2.55612,-4.40198 5.75394,-7.67292 9.51607,-10.11938 3.76213,-2.44646 8.08695,-4.07023 12.90114,-5.13634 4.8142,-1.06611 10.11692,-1.57615 15.85758,-1.72839 5.7406,-0.15224 11.9193,0.052 18.5138,0.50304 18.7186,1.29909 37.1446,2.10068 55.5152,2.30597 2.0872,0.0282 3.1607,-0.40777 3.224,-1.15736 l 0,0 z m -1.2469,30.3725 c 0.058,-2.17966 -0.9385,-3.2055 -2.9909,-3.22466 -11.3904,-0.10575 -22.7998,-0.39737 -34.2774,-0.85733 -11.0642,-0.44333 -20.0642,0.71471 -26.8083,4.02608 -6.7441,3.31138 -11.21961,8.7903 -13.30566,17.44854 -1.87215,6.96293 -2.39422,16.50665 -1.59548,29.59417 0.497,8.14355 1.59816,16.0764 3.23918,23.55848 1.64101,7.48207 3.82192,14.51516 6.50626,20.9301 3.2261,7.79973 7.6577,13.99145 13.2842,18.27171 5.6265,4.28026 12.449,6.6524 20.546,6.94367 10.2133,0.3674 20.3903,0.58107 30.5575,0.62365 1.8319,0.008 2.7735,-1.80333 2.8256,-5.35923 0.6829,-46.7603 1.3264,-85.89713 2.019,-111.95518 l 0,0 z m 151.1536,-35.35964 c -2.5667,20.39837 -11.3245,66.05866 -19.8724,124.40769 -0.8869,6.05359 -4.6591,11.65649 -11.1427,16.73319 -5.8679,4.67561 -12.5007,7.4164 -19.9821,8.07514 -7.6685,0.67521 -13.862,-0.95028 -18.7063,-4.78331 -5.1542,-4.51005 -7.5269,-9.72243 -7.0286,-15.49632 5.0859,-58.92913 10.2493,-104.03035 11.9225,-122.74924 -5e-4,-1.17853 -0.2542,-1.94353 -0.7453,-2.41387 -0.491,-0.47035 -1.2194,-0.64644 -2.1784,-0.57182 -10.8684,0.84602 -21.6345,1.53353 -32.3434,2.03501 -1.1549,0.0541 -2.0114,0.31869 -2.573,0.83689 -0.5617,0.5182 -0.8284,1.29044 -0.8087,2.43932 -0.7547,10.22246 -2.0747,28.89419 -3.6574,53.78945 -1.5827,24.89525 -3.4281,56.01404 -5.1802,91.13013 -0.5751,11.5253 0.7662,21.77024 3.9146,30.34198 2.9789,8.39065 6.9555,15.4355 11.9298,20.92657 4.9743,5.49107 10.9459,9.42815 17.9525,11.68869 6.8437,2.07953 13.8434,2.6746 21.0626,1.81521 7.043,-0.83842 14.128,-3.10583 21.3362,-6.7079 7.761,-3.8643 14.7369,-9.03261 20.9854,-15.38143 6.2486,-6.34881 11.7723,-13.88156 16.5887,-22.48974 5.0314,-8.8105 8.6219,-18.89251 10.613,-30.06276 6.0662,-34.03427 12.5666,-64.87595 18.0225,-90.29139 5.456,-25.41544 9.8676,-45.40463 11.8099,-57.7344 0.102,-1.37896 -0.1156,-2.29291 -0.6177,-2.8492 -0.5021,-0.55628 -1.2882,-0.75527 -2.3425,-0.63797 -11.9491,1.33003 -23.6567,2.68672 -35.1667,3.99479 -1.2466,0.19088 -2.1769,0.58545 -2.8025,1.22084 -0.6256,0.63539 -0.9466,1.51201 -0.9898,2.73445 l 0,0 z m 145.3405,204.01639 c -0.085,-21.19289 -0.1293,-42.68099 -0.7577,-63.50795 -0.6283,-20.82697 -1.8412,-40.9928 -4.0904,-59.6052 -1.0441,-6.8745 1.511,-13.50393 8.0061,-19.83452 14.9101,-15.01102 30.1991,-28.58636 45.3386,-40.62303 15.1396,-12.03666 30.1297,-22.53464 44.3149,-31.4404 2.3961,-1.58035 2.2069,-2.48356 -0.5044,-2.75464 -20.942,-2.0928 -41.0438,-3.04188 -60.4122,-3.22005 -3.623,-0.0332 -6.4207,0.68982 -8.4693,2.21581 -9.7523,7.32562 -20.0798,15.98632 -30.6199,25.90909 -3.156,2.99797 -5.8585,4.56519 -8.0658,4.54486 -2.2073,-0.0203 -3.9207,-1.62983 -5.274,-4.60508 -4.28,-9.84965 -9.4476,-17.94863 -15.5365,-23.91412 -1.2578,-1.24341 -3.4485,-1.68938 -6.4856,-1.46101 -17.7173,1.33273 -34.8385,3.02267 -51.4757,4.81497 -2.1392,0.23053 -2.5567,0.79159 -1.3099,1.82095 7.5973,5.78757 14.2183,14.60018 19.8441,25.8499 5.6258,11.24973 10.2565,24.93656 14.0151,40.4207 1.7419,6.54676 -0.1364,13.14902 -5.2927,19.68126 -13.6277,17.95942 -26.7171,37.64197 -38.9237,58.77878 -12.2067,21.13681 -23.5306,43.72787 -33.7933,67.43929 -1.5696,3.53255 -1.7046,5.23901 -0.4393,5.08411 11.8404,-1.44952 23.7847,-2.78231 35.8537,-3.79399 2.211,-0.18534 4.0487,-1.78011 5.5407,-4.77342 11.7939,-23.21392 24.9672,-45.27897 39.2538,-65.89998 2.8669,-4.15781 5.1716,-6.17219 6.8543,-6.11798 1.6827,0.0542 2.7432,2.17812 3.1434,6.41641 2.1557,21.0284 3.7681,42.98536 5.46,64.85835 0.1747,2.81992 1.3149,4.28347 3.4237,4.42606 12.4607,0.84255 25.0768,2.44452 37.8655,5.11584 1.7707,0.36986 2.6167,-1.55502 2.5365,-5.82501 l 0,0 z"
             style="font-size:184.58837891px;font-style:normal;font-variant:normal;font-weight:bold;font-stretch:normal;opacity:0.1566265;fill:url(#pattern4905);fill-opacity:1;stroke:none;font-family:sidux;-inkscape-font-specification:sidux Bold" />
          <path
             id="path5021"
             d="m 761.30952,814.41953 c 6.9651,17.38551 13.69017,35.09086 19.76574,52.77155 1.15732,3.36793 2.73181,4.82629 4.75103,4.41486 16.91168,-3.44586 33.42739,-5.17399 49.61739,-5.82655 16.19001,-0.65257 32.05432,-0.22959 47.66038,0.73751 6.5219,0.40416 11.33717,-2.38494 14.56232,-8.4703 3.1734,-6.46161 5.29942,-14.10114 6.33065,-22.80688 1.99488,-15.22141 1.81398,-31.16506 -0.76072,-47.29881 -2.95858,-18.53609 -6.34983,-32.79338 -10.19275,-43.60625 -3.84322,-10.81252 -8.26345,-18.81445 -13.35755,-24.56341 -5.14862,-6.02853 -11.27913,-10.21476 -18.47265,-12.77407 -6.96335,-2.5531 -15.18175,-3.88156 -24.70065,-3.87688 -16.06341,0.008 -32.58111,0.50275 -49.63708,1.76986 -5.68533,0.42245 -10.44936,-0.53829 -14.25321,-2.92879 -3.80385,-2.3905 -6.64975,-6.21585 -8.34381,-11.27315 -1.60933,-4.80434 -1.22551,-8.38007 1.07542,-10.86351 2.30092,-2.48345 6.51512,-3.87439 12.47744,-4.17884 33.65395,-1.7181 65.13455,-0.826 95.07364,0.90753 2.35714,0.1366 3.34578,-0.85797 3.0104,-2.89107 -1.74446,-10.57102 -2.93399,-19.31358 -3.32171,-25.89195 -0.0821,-1.39149 -1.31386,-2.13782 -3.76651,-2.37926 -27.10512,-2.66721 -55.6098,-4.88125 -86.00988,-5.50157 -14.58085,-0.29742 -27.32765,0.33927 -37.80155,1.83578 -10.65032,1.33755 -19.37232,3.9334 -25.66531,7.93931 -6.293,4.0059 -10.14323,9.42243 -11.11494,16.4813 -0.55759,3.77019 -0.36166,8.17238 0.66048,13.29779 1.02215,5.1254 2.87212,10.97448 5.58612,17.64375 3.93806,9.6772 8.84722,18.6034 14.28373,26.36681 5.4365,7.76341 11.40463,14.37298 17.68411,19.66865 7.09625,5.95165 14.46187,10.19059 22.03827,12.67727 7.5764,2.48669 15.36943,3.22509 23.47276,2.28874 17.96846,-2.07606 35.3726,-3.04979 52.30982,-3.34956 4.64943,-0.0822 8.48854,1.47614 11.51268,4.67711 3.02414,3.20098 5.2353,8.04874 6.69211,14.67907 1.74801,7.95624 1.95098,14.09583 0.65933,18.1977 -1.29166,4.10188 -4.07407,6.16782 -8.42731,6.20488 -14.61453,0.12441 -29.54384,0.80578 -44.8494,2.37691 -15.30556,1.57114 -30.98738,4.03204 -47.10837,7.77115 -2.28658,0.53034 -2.76702,2.46199 -1.44042,5.77332 l 0,0 z m 162.15384,45.33598 c 0.73259,6.88296 1.97659,10.46999 3.78815,10.66373 9.51016,1.0171 18.9431,2.09112 28.3142,3.13946 1.78496,0.19969 2.44818,-3.26329 1.94657,-10.27051 -3.48328,-48.65897 -8.41708,-93.41623 -12.54759,-129.60039 -4.13051,-36.18416 -7.45773,-63.79521 -7.58353,-78.16305 -0.008,-0.9195 -0.28419,-1.58908 -0.84475,-2.07214 -0.56056,-0.48305 -1.40559,-0.77978 -2.54178,-0.90914 -11.93005,-1.35794 -24.08429,-2.76545 -36.51491,-4.13967 -2.36786,-0.26168 -3.56354,0.45052 -3.46918,2.4493 0.73725,15.61626 5.59296,43.94347 11.50006,80.31598 5.9071,36.37251 12.86561,80.7903 17.95276,128.58643 l 0,0 z M 1073.0005,661.71067 c 0.5541,-6.59594 1.19,-5.97891 2.0078,3.48533 0.1299,1.50554 1.2838,2.4508 3.4536,2.47669 10.2562,0.12176 20.5018,-0.0796 30.7988,-0.59818 1.98,-0.0999 3.0155,-1.07338 3.0831,-2.56628 0.8453,-18.71608 -0.4739,-2.32077 -2.7608,36.20968 -2.2869,38.53045 -5.5414,99.19603 -8.006,169.01545 -0.2529,7.16131 -1.2411,10.85516 -2.9774,10.93185 -12.807,0.56564 -25.5922,0.77393 -38.3923,0.61727 -12.8001,-0.15665 -25.615,-0.67825 -38.483,-1.50577 -10.469,-0.67324 -19.5533,-6.35927 -27.5409,-16.54724 -3.99378,-5.09398 -7.71369,-11.30837 -11.1902,-18.53802 -3.47652,-7.22964 -6.71069,-15.47621 -9.71586,-24.58653 -4.34243,-12.96627 -8.13537,-26.71391 -11.26428,-40.82025 -3.12891,-14.10635 -5.59444,-28.57928 -7.15201,-42.74377 -1.79764,-16.49945 -2.49192,-29.03096 -2.03413,-38.60829 0.45779,-9.57733 2.05466,-16.21867 4.64579,-20.88948 2.55612,-4.40198 5.75394,-7.67292 9.51607,-10.11938 3.76213,-2.44646 8.08695,-4.07023 12.90114,-5.13634 4.8142,-1.06611 10.11692,-1.57615 15.85758,-1.72839 5.7406,-0.15224 11.9193,0.052 18.5138,0.50304 18.7186,1.29909 37.1446,2.10068 55.5152,2.30597 2.0872,0.0282 3.1607,-0.40777 3.224,-1.15736 l 0,0 z m -1.2469,30.3725 c 0.058,-2.17966 -0.9385,-3.2055 -2.9909,-3.22466 -11.3904,-0.10575 -22.7998,-0.39737 -34.2774,-0.85733 -11.0642,-0.44333 -20.0642,0.71471 -26.8083,4.02608 -6.7441,3.31138 -11.21961,8.7903 -13.30566,17.44854 -1.87215,6.96293 -2.39422,16.50665 -1.59548,29.59417 0.497,8.14355 1.59816,16.0764 3.23918,23.55848 1.64101,7.48207 3.82192,14.51516 6.50626,20.9301 3.2261,7.79973 7.6577,13.99145 13.2842,18.27171 5.6265,4.28026 12.449,6.6524 20.546,6.94367 10.2133,0.3674 20.3903,0.58107 30.5575,0.62365 1.8319,0.008 2.7735,-1.80333 2.8256,-5.35923 0.6829,-46.7603 1.3264,-85.89713 2.019,-111.95518 l 0,0 z m 151.1536,-35.35964 c -2.5667,20.39837 -11.3245,66.05866 -19.8724,124.40769 -0.8869,6.05359 -4.6591,11.65649 -11.1427,16.73319 -5.8679,4.67561 -12.5007,7.4164 -19.9821,8.07514 -7.6685,0.67521 -13.862,-0.95028 -18.7063,-4.78331 -5.1542,-4.51005 -7.5269,-9.72243 -7.0286,-15.49632 5.0859,-58.92913 10.2493,-104.03035 11.9225,-122.74924 -5e-4,-1.17853 -0.2542,-1.94353 -0.7453,-2.41387 -0.491,-0.47035 -1.2194,-0.64644 -2.1784,-0.57182 -10.8684,0.84602 -21.6345,1.53353 -32.3434,2.03501 -1.1549,0.0541 -2.0114,0.31869 -2.573,0.83689 -0.5617,0.5182 -0.8284,1.29044 -0.8087,2.43932 -0.7547,10.22246 -2.0747,28.89419 -3.6574,53.78945 -1.5827,24.89525 -3.4281,56.01404 -5.1802,91.13013 -0.5751,11.5253 0.7662,21.77024 3.9146,30.34198 2.9789,8.39065 6.9555,15.4355 11.9298,20.92657 4.9743,5.49107 10.9459,9.42815 17.9525,11.68869 6.8437,2.07953 13.8434,2.6746 21.0626,1.81521 7.043,-0.83842 14.128,-3.10583 21.3362,-6.7079 7.761,-3.8643 14.7369,-9.03261 20.9854,-15.38143 6.2486,-6.34881 11.7723,-13.88156 16.5887,-22.48974 5.0314,-8.8105 8.6219,-18.89251 10.613,-30.06276 6.0662,-34.03427 12.5666,-64.87595 18.0225,-90.29139 5.456,-25.41544 9.8676,-45.40463 11.8099,-57.7344 0.102,-1.37896 -0.1156,-2.29291 -0.6177,-2.8492 -0.5021,-0.55628 -1.2882,-0.75527 -2.3425,-0.63797 -11.9491,1.33003 -23.6567,2.68672 -35.1667,3.99479 -1.2466,0.19088 -2.1769,0.58545 -2.8025,1.22084 -0.6256,0.63539 -0.9466,1.51201 -0.9898,2.73445 l 0,0 z m 145.3405,204.01639 c -0.085,-21.19289 -0.1293,-42.68099 -0.7577,-63.50795 -0.6283,-20.82697 -1.8412,-40.9928 -4.0904,-59.6052 -1.0441,-6.8745 1.511,-13.50393 8.0061,-19.83452 14.9101,-15.01102 30.1991,-28.58636 45.3386,-40.62303 15.1396,-12.03666 30.1297,-22.53464 44.3149,-31.4404 2.3961,-1.58035 2.2069,-2.48356 -0.5044,-2.75464 -20.942,-2.0928 -41.0438,-3.04188 -60.4122,-3.22005 -3.623,-0.0332 -6.4207,0.68982 -8.4693,2.21581 -9.7523,7.32562 -20.0798,15.98632 -30.6199,25.90909 -3.156,2.99797 -5.8585,4.56519 -8.0658,4.54486 -2.2073,-0.0203 -3.9207,-1.62983 -5.274,-4.60508 -4.28,-9.84965 -9.4476,-17.94863 -15.5365,-23.91412 -1.2578,-1.24341 -3.4485,-1.68938 -6.4856,-1.46101 -17.7173,1.33273 -34.8385,3.02267 -51.4757,4.81497 -2.1392,0.23053 -2.5567,0.79159 -1.3099,1.82095 7.5973,5.78757 14.2183,14.60018 19.8441,25.8499 5.6258,11.24973 10.2565,24.93656 14.0151,40.4207 1.7419,6.54676 -0.1364,13.14902 -5.2927,19.68126 -13.6277,17.95942 -26.7171,37.64197 -38.9237,58.77878 -12.2067,21.13681 -23.5306,43.72787 -33.7933,67.43929 -1.5696,3.53255 -1.7046,5.23901 -0.4393,5.08411 11.8404,-1.44952 23.7847,-2.78231 35.8537,-3.79399 2.211,-0.18534 4.0487,-1.78011 5.5407,-4.77342 11.7939,-23.21392 24.9672,-45.27897 39.2538,-65.89998 2.8669,-4.15781 5.1716,-6.17219 6.8543,-6.11798 1.6827,0.0542 2.7432,2.17812 3.1434,6.41641 2.1557,21.0284 3.7681,42.98536 5.46,64.85835 0.1747,2.81992 1.3149,4.28347 3.4237,4.42606 12.4607,0.84255 25.0768,2.44452 37.8655,5.11584 1.7707,0.36986 2.6167,-1.55502 2.5365,-5.82501 l 0,0 z"
             mask="none"
             style="font-size:184.58837891px;font-style:normal;font-variant:normal;font-weight:bold;font-stretch:normal;fill:url(#linearGradient12702);fill-opacity:1;stroke:#ffffff;font-family:sidux;-inkscape-font-specification:sidux Bold" />
        </g>
      </g>
    </g>
    <g
       id="g2791"
       transform="matrix(1.2760303,0,0,1.2760303,-1059.9467,-808.13593)">
      <path
         id="text3257"
         d="m 996.84375,748.125 c -6.721,7.4e-4 -18.07025,2.19525 -26.78125,10.90625 -8.7109,8.71101 -10.9375,20.05907 -10.9375,26.78125 l 0,11.5 c 0,0.93507 0.0932,1.97221 0.125,2.9375 l -40.65625,0 c -10.75083,1.6e-4 -20.53367,0.65268 -29.96875,2.4375 -21.5135,3.44239 -43.71778,19.30428 -51.71875,41.125 -4.23773,11.30098 -5.28125,22.1378 -5.28125,33.75 0,13.9361 2.17967,28.04825 8.75,40.90625 -8.1098,8.6045 -10.28125,19.50035 -10.28125,26.03125 l 0,27.34375 c 0,6.7217 2.19437,18.06935 10.90625,26.78125 8.71204,8.712 20.09085,10.9375 26.8125,10.9375 l 87.25,0 c 7.9311,0 16.6475,-1.6498 24.875,-5.2187 5.6302,3.0795 11.73355,5.2187 16.90625,5.2187 l 27.31245,0 c 7.6734,0 17.2153,-4.5661 24.375,-10.34375 12.6207,6.58855 26.7815,10.34375 40.8438,10.34375 l 76.875,0 c 6.386,0 14.0217,-3.1737 20.5938,-7.5313 6.0125,2.1836 12.1366,3.9979 18.4687,5.1563 l 0.125,0.031 0.125,0 c 8.9543,1.567 18.0366,2.3437 27.1563,2.3437 8.9956,0 17.9528,-0.7591 26.7812,-2.3437 5.0304,-0.8982 10.0281,-2.117 14.9062,-3.6563 0.2551,0.1673 0.4625,0.4713 0.7188,0.625 8.4297,5.0578 14.7147,5.1562 18.7812,5.1563 l 34.1563,0 c 8.1816,0 20.9503,-4.5204 29.4375,-12.9063 8.0256,8.1172 20.6841,12.9063 29.4062,12.9063 l 33.875,0 c 4.2933,0 10.9832,-0.1782 19.6563,-5.6563 8.6733,-5.47835 15.8793,-18.39495 16.625,-27.34375 1.4785,-17.7417 -4.2685,-21.0894 -6.6875,-24.625 -0.022,-0.032 -0.073,-0.0628 -0.094,-0.0937 l -31.125,-48.65625 29.4376,-46.46875 0.2812,-0.34375 0.2188,-0.40625 c 2.5139,-4.1901 9.8093,-11.14514 4.125,-30.09375 -2.8424,-9.4743 -11.7708,-18.66686 -19.0313,-22.125 -7.2602,-3.45813 -12.3259,-3.56218 -15.9687,-3.5625 l -36.2188,0 c -7.2712,4.4e-4 -16.7647,3.70952 -24.5312,9.21875 -7.5009,-5.35221 -16.7017,-9.21824 -24.2188,-9.21875 l -36.5,0 c -1.8391,1.5e-4 -4.0394,0.0253 -6.7188,0.5 -0.7731,-0.0706 -1.5372,-0.21868 -2.3124,-0.21875 l -26.5938,0 -1.5625,0 -1.5937,0.125 c -8.7952,0.80015 -18.8814,7.18287 -25.375,14.21875 -6.5796,-7.10697 -17.328,-14.34279 -28.25,-14.34375 l -0.4063,0 0,-13.34375 c -3e-4,-5.39653 -0.2866,-13.53878 -7.1563,-23.15625 -6.8695,-9.61747 -21.4684,-15.62401 -30.5312,-15.625 l -27.0938,0 c -8.4039,7.8e-4 -22.2765,4.79245 -29.7812,14.34375 -7.5045,9.55129 -8.2188,18.62227 -8.2188,24.4375 l 0,13.5 -13.5312,0.0937 -0.062,0 -0.031,0 c -8.776,0.0708 -17.5237,1.64545 -25.9687,4.34375 0.2135,-2.39472 0.3437,-4.77177 0.3437,-7 l 0,-12.03125 c -10e-5,-6.72202 -2.2268,-18.07045 -10.9374,-26.78125 -8.711,-8.7108 -20.0602,-10.90551 -26.7813,-10.90625 l -27.34375,0 -6e-4,3e-4 z m 11.90625,21.5 c 15.2889,0 27.6875,12.2928 27.6875,27.4375 0,15.1447 -12.3986,27.4375 -27.6875,27.4375 -15.28893,0 -27.6875,-12.2928 -27.6875,-27.4375 0,-15.1447 12.39857,-27.4375 27.6875,-27.4375 z"
         style="font-size:184.58837891px;font-style:normal;font-variant:normal;font-weight:bold;font-stretch:normal;fill:#ffffff;fill-opacity:1;stroke:none;font-family:sidux;-inkscape-font-specification:sidux Bold" />
      <path
         sodipodi:nodetypes="csccccssccccsccccccccscccscccccccscccccccccsccccccccccccsccccccscsccccccsccscccccccccccccccccccccccccccccccc"
         id="text2483"
         d="m 865.18417,944.50745 0,27.3547 c 0,1.7369 0.86844,2.6052 2.60518,2.6052 l 87.27467,0 c 6.0788,0 11.0288,-1.4762 14.8498,-4.4288 3.8208,-3.1263 6.7734,-6.7735 8.8577,-10.9419 3.821,-7.2945 5.7314,-15.0233 5.7316,-23.1865 -2e-4,-9.3787 -0.7818,-17.1074 -2.3448,-23.1863 -1.5633,-6.0787 -3.9079,-10.855 -7.0341,-14.3287 -3.1263,-3.6472 -7.2078,-6.2524 -12.2445,-7.8156 -4.8632,-1.563 -10.7683,-2.3446 -17.7154,-2.3447 l -35.17044,0 c -7.8157,10e-5 -11.72348,-3.4735 -11.72348,-10.4208 0,-6.5998 3.90778,-9.8997 11.72348,-9.8998 l 66.17254,0 c 1.7366,10e-5 2.605,-0.8683 2.6051,-2.6053 l 0,-27.09418 c -10e-5,-1.91034 -0.8685,-2.8656 -2.6051,-2.86573 l -57.5754,0 c -9.20501,1.3e-4 -17.0207,0.60802 -23.44681,1.82364 -13.0262,2.08431 -21.44962,8.33687 -25.27068,18.75757 -2.08418,5.5579 -3.1262,12.7656 -3.1262,21.6232 0,12.8525 2.60519,22.7523 7.8157,29.6994 5.90509,7.8157 14.84966,11.7236 26.83357,11.7235 l 39.85977,0 c 7.29455,10e-5 10.94195,3.4736 10.94205,10.4209 -1e-4,8.3366 -3.6475,12.505 -10.94205,12.505 l -73.46702,0 c -1.73674,0 -2.60518,0.8685 -2.60518,2.6052 m 129.03115,25.2705 c 0,3.1264 0.8683,4.6894 2.6052,4.6894 l 27.35468,0 c 1.7368,0 2.6052,-1.563 2.6052,-4.6894 l 0,-130.26057 c 0,-2.77876 -0.8684,-4.16821 -2.6052,-4.16834 l -27.35468,0 c -1.7369,1.3e-4 -2.6052,1.38958 -2.6052,4.16834 l 0,130.26057 m 142.05708,-137.03412 0,-45.85178 c -2e-4,-2.43133 0.9551,-3.6471 2.8658,-3.64729 l 27.0942,0 c 1.7366,1.9e-4 2.6051,1.21596 2.6052,3.64729 l 0,182.8859 c -10e-5,3.1264 -0.8686,4.6894 -2.6052,4.6894 l -76.8539,0 c -20.8418,0 -35.6914,-8.4234 -44.5491,-25.2706 -6.4261,-11.9838 -9.7261,-26.3993 -9.8997,-43.2465 -0.1737,-19.6258 2.0842,-34.1281 6.7735,-43.507 9.205,-17.7153 24.5758,-26.65988 46.1123,-26.83369 l 45.8517,-0.26052 c 1.7368,1.3e-4 2.605,-0.86827 2.6052,-2.60521 m 0,38.03612 c -2e-4,-1.9104 -0.8684,-2.8656 -2.6052,-2.8657 l -28.9178,0 c -18.584,10e-5 -30.047,6.2526 -34.3888,18.7575 -1.9105,5.0368 -2.8658,11.463 -2.8658,19.2785 0,9.7262 2.171,17.8025 6.5131,24.2286 5.2103,7.8156 15.4575,11.7234 30.7415,11.7234 l 28.9178,0 c 1.7368,0 2.605,-0.8684 2.6052,-2.6052 l 0,-68.5171 m 122.2575,-29.69945 0,90.40095 c 0,3.1263 -2.6921,5.8183 -8.0761,8.0761 -4.8631,2.0841 -10.7684,3.1263 -17.7155,3.1263 -7.1209,0 -13.1129,-1.0422 -17.9759,-3.1263 -5.2106,-2.4315 -7.8158,-5.1236 -7.8158,-8.0761 l 0,-90.40095 c -0.1737,-3.82083 -1.042,-5.73133 -2.6052,-5.73146 l -26.5731,0 c -1.9104,1.3e-4 -2.7789,1.91063 -2.6051,5.73146 l 0,101.60335 c 0,5.5578 1.7367,10.334 5.2103,14.3287 6.5998,7.8155 17.0207,13.026 31.2626,15.6312 6.9472,1.2157 13.9813,1.8236 21.1022,1.8236 6.9471,0 13.8075,-0.6079 20.5812,-1.8236 14.5891,-2.6052 25.1837,-7.8157 31.7836,-15.6312 3.4735,-3.9947 5.2103,-8.7709 5.2104,-14.3287 l 0,-101.60335 c -0.1737,-3.82083 -1.0422,-5.73133 -2.6052,-5.73146 l -26.5731,0 c -1.9106,0.17382 -2.779,2.0843 -2.6053,5.73146 m 162.5211,130.00005 -39.8598,-62.2645 c -2.6052,-3.8209 -2.5185,-7.8156 0.2606,-11.984 l 37.515,-59.13831 c 1.042,-1.73668 0.7814,-2.60509 -0.7814,-2.60522 l -36.2126,0 c -2.2579,1.3e-4 -3.908,0.86854 -4.9499,2.60522 l -14.8497,25.01001 c -2.9526,5.0369 -5.9921,5.0369 -9.1183,0 l -15.1103,-25.01001 c -1.042,-1.73668 -2.6052,-2.60509 -4.6893,-2.60522 l -36.473,0 c -1.5632,1.3e-4 -1.8236,0.86854 -0.7816,2.60522 l 37.7756,59.13831 c 2.7789,4.1684 2.8657,8.1631 0.2606,11.984 l -40.3808,63.0461 c -1.0422,1.5632 -0.9553,2.3448 0.2604,2.3448 l 34.1284,0 c 2.0841,0 3.5603,-0.6947 4.4288,-2.0842 l 20.8418,-32.3046 c 2.7787,-4.3421 5.5576,-4.3421 8.3367,0 l 21.1022,32.3046 c 0.8683,1.3895 2.2577,2.0842 4.1683,2.0842 l 33.8678,0 c 1.5631,0 1.6497,-1.0422 0.2605,-3.1264"
         style="font-size:184.58837891px;font-style:normal;font-variant:normal;font-weight:bold;font-stretch:normal;fill:#55d400;fill-opacity:1;stroke:#ffffff;stroke-width:2.0233314;stroke-miterlimit:4;stroke-opacity:1;stroke-dasharray:none;font-family:sidux;-inkscape-font-specification:sidux Bold" />
      <path
         style="font-size:184.58837891px;font-style:normal;font-variant:normal;font-weight:bold;font-stretch:normal;opacity:0.1566265;fill:url(#pattern3024);fill-opacity:1;stroke:none;font-family:sidux;-inkscape-font-specification:sidux Bold"
         d="m 865.18417,944.50745 0,27.3547 c 0,1.7369 0.86844,2.6052 2.60518,2.6052 l 87.27467,0 c 6.0788,0 11.0288,-1.4762 14.8498,-4.4288 3.8208,-3.1263 6.7734,-6.7735 8.8577,-10.9419 3.821,-7.2945 5.7314,-15.0233 5.7316,-23.1865 -2e-4,-9.3787 -0.7818,-17.1074 -2.3448,-23.1863 -1.5633,-6.0787 -3.9079,-10.855 -7.0341,-14.3287 -3.1263,-3.6472 -7.2078,-6.2524 -12.2445,-7.8156 -4.8632,-1.563 -10.7683,-2.3446 -17.7154,-2.3447 l -35.17044,0 c -7.8157,10e-5 -11.72348,-3.4735 -11.72348,-10.4208 0,-6.5998 3.90778,-9.8997 11.72348,-9.8998 l 66.17254,0 c 1.7366,10e-5 2.605,-0.8683 2.6051,-2.6053 l 0,-27.09418 c -10e-5,-1.91034 -0.8685,-2.8656 -2.6051,-2.86573 l -57.5754,0 c -9.20501,1.3e-4 -17.0207,0.60802 -23.44681,1.82364 -13.0262,2.08431 -21.44962,8.33687 -25.27068,18.75757 -2.08418,5.5579 -3.1262,12.7656 -3.1262,21.6232 0,12.8525 2.60519,22.7523 7.8157,29.6994 5.90509,7.8157 14.84966,11.7236 26.83357,11.7235 l 39.85977,0 c 7.29455,10e-5 10.94195,3.4736 10.94205,10.4209 -1e-4,8.3366 -3.6475,12.505 -10.94205,12.505 l -73.46702,0 c -1.73674,0 -2.60518,0.8685 -2.60518,2.6052 m 129.03115,25.2705 c 0,3.1264 0.8683,4.6894 2.6052,4.6894 l 27.35468,0 c 1.7368,0 2.6052,-1.563 2.6052,-4.6894 l 0,-130.26057 c 0,-2.77876 -0.8684,-4.16821 -2.6052,-4.16834 l -27.35468,0 c -1.7369,1.3e-4 -2.6052,1.38958 -2.6052,4.16834 l 0,130.26057 m 142.05708,-137.03412 0,-45.85178 c -2e-4,-2.43133 0.9551,-3.6471 2.8658,-3.64729 l 27.0942,0 c 1.7366,1.9e-4 2.6051,1.21596 2.6052,3.64729 l 0,182.8859 c -10e-5,3.1264 -0.8686,4.6894 -2.6052,4.6894 l -76.8539,0 c -20.8418,0 -35.6914,-8.4234 -44.5491,-25.2706 -6.4261,-11.9838 -9.7261,-26.3993 -9.8997,-43.2465 -0.1737,-19.6258 2.0842,-34.1281 6.7735,-43.507 9.205,-17.7153 24.5758,-26.65988 46.1123,-26.83369 l 45.8517,-0.26052 c 1.7368,1.3e-4 2.605,-0.86827 2.6052,-2.60521 m 0,38.03612 c -2e-4,-1.9104 -0.8684,-2.8656 -2.6052,-2.8657 l -28.9178,0 c -18.584,10e-5 -30.047,6.2526 -34.3888,18.7575 -1.9105,5.0368 -2.8658,11.463 -2.8658,19.2785 0,9.7262 2.171,17.8025 6.5131,24.2286 5.2103,7.8156 15.4575,11.7234 30.7415,11.7234 l 28.9178,0 c 1.7368,0 2.605,-0.8684 2.6052,-2.6052 l 0,-68.5171 m 122.2575,-29.69945 0,90.40095 c 0,3.1263 -2.6921,5.8183 -8.0761,8.0761 -4.8631,2.0841 -10.7684,3.1263 -17.7155,3.1263 -7.1209,0 -13.1129,-1.0422 -17.9759,-3.1263 -5.2106,-2.4315 -7.8158,-5.1236 -7.8158,-8.0761 l 0,-90.40095 c -0.1737,-3.82083 -1.042,-5.73133 -2.6052,-5.73146 l -26.5731,0 c -1.9104,1.3e-4 -2.7789,1.91063 -2.6051,5.73146 l 0,101.60335 c 0,5.5578 1.7367,10.334 5.2103,14.3287 6.5998,7.8155 17.0207,13.026 31.2626,15.6312 6.9472,1.2157 13.9813,1.8236 21.1022,1.8236 6.9471,0 13.8075,-0.6079 20.5812,-1.8236 14.5891,-2.6052 25.1837,-7.8157 31.7836,-15.6312 3.4735,-3.9947 5.2103,-8.7709 5.2104,-14.3287 l 0,-101.60335 c -0.1737,-3.82083 -1.0422,-5.73133 -2.6052,-5.73146 l -26.5731,0 c -1.9106,0.17382 -2.779,2.0843 -2.6053,5.73146 m 162.5211,130.00005 -39.8598,-62.2645 c -2.6052,-3.8209 -2.5185,-7.8156 0.2606,-11.984 l 37.515,-59.13831 c 1.042,-1.73668 0.7814,-2.60509 -0.7814,-2.60522 l -36.2126,0 c -2.2579,1.3e-4 -3.908,0.86854 -4.9499,2.60522 l -14.8497,25.01001 c -2.9526,5.0369 -5.9921,5.0369 -9.1183,0 l -15.1103,-25.01001 c -1.042,-1.73668 -2.6052,-2.60509 -4.6893,-2.60522 l -36.473,0 c -1.5632,1.3e-4 -1.8236,0.86854 -0.7816,2.60522 l 37.7756,59.13831 c 2.7789,4.1684 2.8657,8.1631 0.2606,11.984 l -40.3808,63.0461 c -1.0422,1.5632 -0.9553,2.3448 0.2604,2.3448 l 34.1284,0 c 2.0841,0 3.5603,-0.6947 4.4288,-2.0842 l 20.8418,-32.3046 c 2.7787,-4.3421 5.5576,-4.3421 8.3367,0 l 21.1022,32.3046 c 0.8683,1.3895 2.2577,2.0842 4.1683,2.0842 l 33.8678,0 c 1.5631,0 1.6497,-1.0422 0.2605,-3.1264"
         id="path3342"
         sodipodi:nodetypes="csccccssccccsccccccccscccscccccccscccccccccsccccccccccccsccccccscsccccccsccscccccccccccccccccccccccccccccccc" />
      <path
         sodipodi:nodetypes="csccccssccccsccccccccscccscccccccscccccccccsccccccccccccsccccccscsccccccsccscccccccccccccccccccccccccccccccc"
         id="path4783"
         d="m 865.18417,944.50745 0,27.3547 c 0,1.7369 0.86844,2.6052 2.60518,2.6052 l 87.27467,0 c 6.0788,0 11.0288,-1.4762 14.8498,-4.4288 3.8208,-3.1263 6.7734,-6.7735 8.8577,-10.9419 3.821,-7.2945 5.7314,-15.0233 5.7316,-23.1865 -2e-4,-9.3787 -0.7818,-17.1074 -2.3448,-23.1863 -1.5633,-6.0787 -3.9079,-10.855 -7.0341,-14.3287 -3.1263,-3.6472 -7.2078,-6.2524 -12.2445,-7.8156 -4.8632,-1.563 -10.7683,-2.3446 -17.7154,-2.3447 l -35.17044,0 c -7.8157,10e-5 -11.72348,-3.4735 -11.72348,-10.4208 0,-6.5998 3.90778,-9.8997 11.72348,-9.8998 l 66.17254,0 c 1.7366,10e-5 2.605,-0.8683 2.6051,-2.6053 l 0,-27.09418 c -10e-5,-1.91034 -0.8685,-2.8656 -2.6051,-2.86573 l -57.5754,0 c -9.20501,1.3e-4 -17.0207,0.60802 -23.44681,1.82364 -13.0262,2.08431 -21.44962,8.33687 -25.27068,18.75757 -2.08418,5.5579 -3.1262,12.7656 -3.1262,21.6232 0,12.8525 2.60519,22.7523 7.8157,29.6994 5.90509,7.8157 14.84966,11.7236 26.83357,11.7235 l 39.85977,0 c 7.29455,10e-5 10.94195,3.4736 10.94205,10.4209 -1e-4,8.3366 -3.6475,12.505 -10.94205,12.505 l -73.46702,0 c -1.73674,0 -2.60518,0.8685 -2.60518,2.6052 m 129.03115,25.2705 c 0,3.1264 0.8683,4.6894 2.6052,4.6894 l 27.35468,0 c 1.7368,0 2.6052,-1.563 2.6052,-4.6894 l 0,-130.26057 c 0,-2.77876 -0.8684,-4.16821 -2.6052,-4.16834 l -27.35468,0 c -1.7369,1.3e-4 -2.6052,1.38958 -2.6052,4.16834 l 0,130.26057 m 142.05708,-137.03412 0,-45.85178 c -2e-4,-2.43133 0.9551,-3.6471 2.8658,-3.64729 l 27.0942,0 c 1.7366,1.9e-4 2.6051,1.21596 2.6052,3.64729 l 0,182.8859 c -10e-5,3.1264 -0.8686,4.6894 -2.6052,4.6894 l -76.8539,0 c -20.8418,0 -35.6914,-8.4234 -44.5491,-25.2706 -6.4261,-11.9838 -9.7261,-26.3993 -9.8997,-43.2465 -0.1737,-19.6258 2.0842,-34.1281 6.7735,-43.507 9.205,-17.7153 24.5758,-26.65988 46.1123,-26.83369 l 45.8517,-0.26052 c 1.7368,1.3e-4 2.605,-0.86827 2.6052,-2.60521 m 0,38.03612 c -2e-4,-1.9104 -0.8684,-2.8656 -2.6052,-2.8657 l -28.9178,0 c -18.584,10e-5 -30.047,6.2526 -34.3888,18.7575 -1.9105,5.0368 -2.8658,11.463 -2.8658,19.2785 0,9.7262 2.171,17.8025 6.5131,24.2286 5.2103,7.8156 15.4575,11.7234 30.7415,11.7234 l 28.9178,0 c 1.7368,0 2.605,-0.8684 2.6052,-2.6052 l 0,-68.5171 m 122.2575,-29.69945 0,90.40095 c 0,3.1263 -2.6921,5.8183 -8.0761,8.0761 -4.8631,2.0841 -10.7684,3.1263 -17.7155,3.1263 -7.1209,0 -13.1129,-1.0422 -17.9759,-3.1263 -5.2106,-2.4315 -7.8158,-5.1236 -7.8158,-8.0761 l 0,-90.40095 c -0.1737,-3.82083 -1.042,-5.73133 -2.6052,-5.73146 l -26.5731,0 c -1.9104,1.3e-4 -2.7789,1.91063 -2.6051,5.73146 l 0,101.60335 c 0,5.5578 1.7367,10.334 5.2103,14.3287 6.5998,7.8155 17.0207,13.026 31.2626,15.6312 6.9472,1.2157 13.9813,1.8236 21.1022,1.8236 6.9471,0 13.8075,-0.6079 20.5812,-1.8236 14.5891,-2.6052 25.1837,-7.8157 31.7836,-15.6312 3.4735,-3.9947 5.2103,-8.7709 5.2104,-14.3287 l 0,-101.60335 c -0.1737,-3.82083 -1.0422,-5.73133 -2.6052,-5.73146 l -26.5731,0 c -1.9106,0.17382 -2.779,2.0843 -2.6053,5.73146 m 162.5211,130.00005 -39.8598,-62.2645 c -2.6052,-3.8209 -2.5185,-7.8156 0.2606,-11.984 l 37.515,-59.13831 c 1.042,-1.73668 0.7814,-2.60509 -0.7814,-2.60522 l -36.2126,0 c -2.2579,1.3e-4 -3.908,0.86854 -4.9499,2.60522 l -14.8497,25.01001 c -2.9526,5.0369 -5.9921,5.0369 -9.1183,0 l -15.1103,-25.01001 c -1.042,-1.73668 -2.6052,-2.60509 -4.6893,-2.60522 l -36.473,0 c -1.5632,1.3e-4 -1.8236,0.86854 -0.7816,2.60522 l 37.7756,59.13831 c 2.7789,4.1684 2.8657,8.1631 0.2606,11.984 l -40.3808,63.0461 c -1.0422,1.5632 -0.9553,2.3448 0.2604,2.3448 l 34.1284,0 c 2.0841,0 3.5603,-0.6947 4.4288,-2.0842 l 20.8418,-32.3046 c 2.7787,-4.3421 5.5576,-4.3421 8.3367,0 l 21.1022,32.3046 c 0.8683,1.3895 2.2577,2.0842 4.1683,2.0842 l 33.8678,0 c 1.5631,0 1.6497,-1.0422 0.2605,-3.1264"
         style="font-size:184.58837891px;font-style:normal;font-variant:normal;font-weight:bold;font-stretch:normal;fill:url(#linearGradient12725);fill-opacity:1;stroke:#ffffff;font-family:sidux;-inkscape-font-specification:sidux Bold" />
    </g>
    <path
       style="fill:url(#linearGradient12706);fill-opacity:1;stroke:none;filter:url(#filter5077)"
       d="m 814.125,1013 0,1 651.3125,0 0,-1 -651.3125,0 0,0 z"
       id="path5055"
       transform="matrix(0.59901798,0,0,2.1100832,1970.945,-1402.8524)" />
  </g>
  <g
     inkscape:groupmode="layer"
     id="layer3"
     inkscape:label="sun"
     style="display:inline">
    <rect
       y="-30.051847"
       x="-89.058128"
       height="679.27069"
       width="1098.0459"
       id="rect13502"
       style="opacity:0.69082121;fill:#000000;display:inline" />
  </g>
</svg>
