<?xml version="1.0" encoding="UTF-8" standalone="no"?>
<!-- Created with Inkscape (http://www.inkscape.org/) -->

<svg
   xmlns:dc="http://purl.org/dc/elements/1.1/"
   xmlns:cc="http://creativecommons.org/ns#"
   xmlns:rdf="http://www.w3.org/1999/02/22-rdf-syntax-ns#"
   xmlns:svg="http://www.w3.org/2000/svg"
   xmlns="http://www.w3.org/2000/svg"
   xmlns:xlink="http://www.w3.org/1999/xlink"
   xmlns:sodipodi="http://sodipodi.sourceforge.net/DTD/sodipodi-0.dtd"
   xmlns:inkscape="http://www.inkscape.org/namespaces/inkscape"
   width="800"
   height="600"
   id="svg2"
   version="1.1"
   inkscape:version="0.48+devel r"
   sodipodi:docname="welcome.svg"
   inkscape:export-filename="welcome.png"
   inkscape:export-xdpi="90"
   inkscape:export-ydpi="90"
   style="display:inline">
  <defs
     id="defs4">
    <linearGradient
       id="linearGradient4175">
      <stop
         style="stop-color:#1b1b1b;stop-opacity:1;"
         offset="0"
         id="stop4177" />
      <stop
         style="stop-color:#0d0d0d;stop-opacity:1;"
         offset="1"
         id="stop4179" />
    </linearGradient>
    <linearGradient
       id="linearGradient5941">
      <stop
         style="stop-color:#ffffff;stop-opacity:0;"
         offset="0"
         id="stop5943" />
      <stop
         style="stop-color:#ffffff;stop-opacity:0.40000001;"
         offset="1"
         id="stop5945" />
    </linearGradient>
    <linearGradient
       id="linearGradient3980">
      <stop
         style="stop-color:#4b0000;stop-opacity:1;"
         offset="0"
         id="stop3982" />
      <stop
         style="stop-color:#190000;stop-opacity:1;"
         offset="1"
         id="stop3984" />
    </linearGradient>
    <radialGradient
       inkscape:collect="always"
       xlink:href="#linearGradient3980"
       id="radialGradient3986"
       cx="961.25"
       cy="372.66779"
       fx="961.25"
       fy="372.66779"
       r="961.25"
       gradientTransform="matrix(0.52331735,0,0,0.40249806,-103.03879,555.40403)"
       gradientUnits="userSpaceOnUse" />
    <linearGradient
       inkscape:collect="always"
       xlink:href="#linearGradient5941"
       id="linearGradient4659"
       gradientUnits="userSpaceOnUse"
       x1="1109.9078"
       y1="1477.2035"
       x2="1109.9078"
       y2="1557.9581" />
    <linearGradient
       inkscape:collect="always"
       xlink:href="#linearGradient5941"
       id="linearGradient4661"
       gradientUnits="userSpaceOnUse"
       x1="1109.9078"
       y1="1477.2035"
       x2="1109.9078"
       y2="1557.9581" />
    <linearGradient
       inkscape:collect="always"
       xlink:href="#linearGradient5941"
       id="linearGradient4663"
       gradientUnits="userSpaceOnUse"
       x1="1109.9078"
       y1="1477.2035"
       x2="1109.9078"
       y2="1557.9581" />
    <linearGradient
       inkscape:collect="always"
       xlink:href="#linearGradient5941"
       id="linearGradient4665"
       gradientUnits="userSpaceOnUse"
       x1="1109.9078"
       y1="1477.2035"
       x2="1109.9078"
       y2="1557.9581" />
    <linearGradient
       inkscape:collect="always"
       xlink:href="#linearGradient5941"
       id="linearGradient4667"
       gradientUnits="userSpaceOnUse"
       x1="1109.9078"
       y1="1477.2035"
       x2="1109.9078"
       y2="1557.9581" />
    <linearGradient
       inkscape:collect="always"
       xlink:href="#linearGradient5941"
       id="linearGradient4669"
       gradientUnits="userSpaceOnUse"
       x1="1109.9078"
       y1="1477.2035"
       x2="1109.9078"
       y2="1557.9581" />
    <filter
       id="filter5179"
       inkscape:label="Text Cubes"
       inkscape:menu="Scatter"
       inkscape:menu-tooltip="Scattered cubes; adjust the Morphology primitive to vary size"
       color-interpolation-filters="sRGB">
      <feTurbulence
         id="feTurbulence5181"
         baseFrequency="0.33300000000000002"
         numOctaves="10"
         type="fractalNoise" />
      <feColorMatrix
         id="feColorMatrix5183"
         values="1 0 0 0 0 0 1 0 0 0 0 0 1 0 0 0 0 0 6 -3 "
         result="result5" />
      <feComposite
         id="feComposite5185"
         in2="result5"
         operator="in"
         in="SourceGraphic"
         result="result6" />
      <feMorphology
         id="feMorphology5187"
         result="result3"
         radius="1"
         operator="dilate"
         in="result6" />
      <feDisplacementMap
         id="feDisplacementMap5189"
         in2="result3"
         result="result4"
         scale="0"
         yChannelSelector="A"
         xChannelSelector="R"
         in="result3" />
      <feComposite
         id="feComposite5191"
         in2="result4"
         operator="arithmetic"
         result="result2"
         k1="2.2564103"
         k3="1"
         k2="-1.025641"
         k4="0" />
      <feBlend
         id="feBlend5193"
         in2="result2"
         mode="screen"
         in="result2" />
      <feConvolveMatrix
         id="feConvolveMatrix5195"
         order="3 3"
         kernelMatrix="2 0 0 0 1 0 0 0 -1 "
         targetX="1"
         targetY="1"
         divisor="0"
         edgeMode="duplicate"
         bias="0" />
    </filter>
    <filter
       inkscape:collect="always"
       id="filter5417"
       color-interpolation-filters="sRGB">
      <feGaussianBlur
         inkscape:collect="always"
         stdDeviation="0.59722356"
         id="feGaussianBlur5419" />
    </filter>
    <filter
       inkscape:collect="always"
       id="filter5425"
       x="-0.028220024"
       width="1.05644"
       y="-0.18633997"
       height="1.3726799"
       color-interpolation-filters="sRGB">
      <feGaussianBlur
         inkscape:collect="always"
         stdDeviation="12.226094"
         id="feGaussianBlur5427" />
    </filter>
    <linearGradient
       id="linearGradient4066">
      <stop
         id="stop4068"
         offset="0"
         style="stop-color:#ffffff;stop-opacity:0;" />
      <stop
         style="stop-color:#ffffff;stop-opacity:0.49803922;"
         offset="0.28367546"
         id="stop4074" />
      <stop
         style="stop-color:#ffffff;stop-opacity:1;"
         offset="0.56735092"
         id="stop4070" />
      <stop
         id="stop4072"
         offset="1"
         style="stop-color:#ffffff;stop-opacity:0;" />
    </linearGradient>
    <linearGradient
       id="linearGradient3962">
      <stop
         style="stop-color:#000000;stop-opacity:0.40112993;"
         offset="0"
         id="stop3964" />
      <stop
         id="stop3966"
         offset="0.5"
         style="stop-color:#000000;stop-opacity:1;" />
      <stop
         style="stop-color:#000000;stop-opacity:0.50282484;"
         offset="1"
         id="stop3968" />
    </linearGradient>
    <linearGradient
       id="linearGradient3946">
      <stop
         id="stop3948"
         offset="0"
         style="stop-color:#ffffff;stop-opacity:0;" />
      <stop
         style="stop-color:#ffffff;stop-opacity:1;"
         offset="0.5"
         id="stop3952" />
      <stop
         id="stop3950"
         offset="1"
         style="stop-color:#ffffff;stop-opacity:0;" />
    </linearGradient>
    <linearGradient
       inkscape:collect="always"
       xlink:href="#linearGradient3946"
       id="linearGradient4128"
       gradientUnits="userSpaceOnUse"
       gradientTransform="matrix(1,0,0,0.1917442,-1.6369367e-6,447.41409)"
       x1="242"
       y1="162.50485"
       x2="778.28485"
       y2="162.50485" />
    <linearGradient
       inkscape:collect="always"
       xlink:href="#linearGradient3962"
       id="linearGradient4130"
       gradientUnits="userSpaceOnUse"
       gradientTransform="matrix(1,0,0,0.1917442,-0.80038164,132.43396)"
       x1="242"
       y1="162.50485"
       x2="778.28485"
       y2="162.50485" />
    <radialGradient
       inkscape:collect="always"
       xlink:href="#linearGradient4066"
       id="radialGradient4132"
       gradientUnits="userSpaceOnUse"
       gradientTransform="matrix(0.68544167,-188.51808,4.0475573,0.01471685,-1219.3652,44092.871)"
       cx="232.21544"
       cy="320.78857"
       fx="232.21544"
       fy="320.78857"
       r="0.5" />
    <linearGradient
       inkscape:collect="always"
       xlink:href="#linearGradient5941"
       id="linearGradient4169"
       gradientUnits="userSpaceOnUse"
       x1="1109.9078"
       y1="1477.2035"
       x2="1109.9078"
       y2="1557.9581" />
    <linearGradient
       inkscape:collect="always"
       xlink:href="#linearGradient5941"
       id="linearGradient4171"
       gradientUnits="userSpaceOnUse"
       x1="1109.9078"
       y1="1477.2035"
       x2="1109.9078"
       y2="1557.9581" />
    <radialGradient
       inkscape:collect="always"
       xlink:href="#linearGradient4175"
       id="radialGradient4181"
       cx="514.37103"
       cy="321.00488"
       fx="514.37103"
       fy="321.00488"
       r="272.37106"
       gradientTransform="matrix(1,0,0,0.57273025,0,137.15567)"
       gradientUnits="userSpaceOnUse" />
    <radialGradient
       inkscape:collect="always"
       xlink:href="#linearGradient4175"
       id="radialGradient4517"
       gradientUnits="userSpaceOnUse"
       gradientTransform="matrix(1,0,0,0.57273025,11,140.15567)"
       cx="514.37103"
       cy="321.00488"
       fx="514.37103"
       fy="321.00488"
       r="272.37106" />
  </defs>
  <sodipodi:namedview
     id="base"
     pagecolor="#000000"
     bordercolor="#666666"
     borderopacity="1.0"
     inkscape:pageopacity="1"
     inkscape:pageshadow="2"
     inkscape:zoom="1"
     inkscape:cx="422.70649"
     inkscape:cy="341.27484"
     inkscape:document-units="px"
     inkscape:current-layer="layer2"
     showgrid="false"
     inkscape:window-width="1920"
     inkscape:window-height="1148"
     inkscape:window-x="-4"
     inkscape:window-y="-3"
     inkscape:window-maximized="1"
     showguides="true"
     inkscape:guide-bbox="true"
     borderlayer="true" />
  <metadata
     id="metadata7">
    <rdf:RDF>
      <cc:Work
         rdf:about="">
        <dc:format>image/svg+xml</dc:format>
        <dc:type
           rdf:resource="http://purl.org/dc/dcmitype/StillImage" />
        <dc:title></dc:title>
      </cc:Work>
    </rdf:RDF>
  </metadata>
  <g
     inkscape:label="Background"
     inkscape:groupmode="layer"
     id="layer1"
     transform="translate(0,-452.36218)"
     style="display:inline"
     sodipodi:insensitive="true">
    <rect
       style="fill:url(#radialGradient3986);fill-opacity:1;stroke:none"
       id="red_background"
       width="800"
       height="600"
       x="0"
       y="452.36218" />
  </g>
  <g
     inkscape:groupmode="layer"
     id="layer3"
     inkscape:label="Claws"
     style="display:inline"
     transform="translate(0,-600)"
     sodipodi:insensitive="true">
    <path
       style="opacity:0.15;color:#000000;fill:#ffffff;fill-opacity:1;stroke:none;stroke-width:20;marker:none;visibility:visible;display:inline;overflow:visible"
       d="m 430.06902,419.0681 c 0,0 -46.9301,51.73856 -31.04611,183.6371 15.88397,131.89855 130.16398,224.10788 130.16398,224.10788 0,0 -47.72509,-187.00746 4.53647,-215.819 52.43748,-28.90814 135.77587,21.39809 185.79007,112.1218 18.75616,34.02121 30.13484,69.00744 34.34975,100.88879 27.51776,-43.57538 33.24769,-108.35677 14.9065,-182.01071 -9.06172,-32.82946 -20.26062,-61.21043 -35.64626,-89.11544 -20.36615,-36.94596 -45.34023,-68.72468 -72.37126,-94.19139 z m -570.45155,133.65275 -3.59525,211.44157 c -7.70492,105.01824 77.276968,233.65217 218.196053,314.76308 136.522057,78.5803 284.949937,88.8427 373.091527,35.4297 -43.8143,-6.6176 -91.86918,-23.2008 -138.26176,-49.9043 C 185.33061,993.24163 118.39347,877.36358 159.55146,805.85715 c 41.02041,-71.26747 297.48035,-1.07999 297.48035,-1.07999 0,0 -90.73848,-89.58413 -150.79278,-128.97294 C 250.5388,639.27106 142.54792,570.43436 -60.326737,554.37956 z M 441.69333,447.66941 c -32.81944,86.33826 48.82349,318.00293 48.82349,318.00293 0,0 -52.02993,-59.67237 -73.88355,-165.48216 -22.19437,-107.45964 25.06006,-152.52077 25.06006,-152.52077 z m 253.4081,151.00836 c 1.79122,-0.0925 3.5367,-0.0481 5.40078,0 6.88444,0.12634 14.16621,1.22866 21.8202,3.67274 30.85091,69.49821 28.74511,131.59555 28.74511,131.59555 0,0 -21.85392,-54.65663 -47.75638,-84.06811 -25.90341,-29.41001 -50.11962,-37.37394 -50.11962,-37.37394 -3.2321,2.45766 15.04412,-12.41488 41.90991,-13.82624 z m -484.15927,86.99545 c 55.6765,2.0989 113.22771,59.26032 113.22771,59.26032 0,0 -50.38547,-14.24767 -103.83491,-9.59389 -53.44944,4.65378 -68.10878,21.3295 -68.10878,21.3295 0,0 -10.42346,-73.60212 58.71598,-70.99593 z m -328.56275,29.23137 c 47.21062,185.56316 434.45791,408.01631 434.45791,408.01631 0,0 -162.80054,-2.4607 -313.971247,-139.24357 C -148.26323,846.93194 -117.62059,714.90459 -117.62059,714.90459 z"
       id="path5222"
       inkscape:connector-curvature="0"
       sodipodi:nodetypes="czcsccccccccsccscsccccsccccccccsczcsccsc" />
  </g>
  <g
     inkscape:groupmode="layer"
     id="layer2"
     inkscape:label="Text"
     style="display:inline"
     transform="translate(0,-600)"
     sodipodi:insensitive="true">
    <g
       id="g4134"
       transform="matrix(0.59391913,0,0,0.59391913,-272.23144,81.762392)">
      <g
         inkscape:label="aptosid"
         id="g4040"
         transform="matrix(0.92539346,0,0,0.87464526,445.79777,-297.54894)"
         style="fill:#000000;fill-opacity:1;stroke:#000000;stroke-width:12;stroke-miterlimit:4;stroke-opacity:1;stroke-dasharray:none;display:inline;filter:url(#filter5425)">
        <text
           inkscape:export-ydpi="90"
           inkscape:export-xdpi="90"
           inkscape:export-filename="logo-current.png"
           sodipodi:linespacing="125%"
           id="text4042"
           y="1555.3855"
           x="246.53732"
           style="font-size:144px;font-style:normal;font-variant:normal;font-weight:bold;font-stretch:normal;text-align:start;line-height:125%;letter-spacing:0px;word-spacing:0px;writing-mode:lr-tb;text-anchor:start;fill:#000000;fill-opacity:1;stroke:#000000;stroke-width:12;stroke-miterlimit:4;stroke-opacity:1;stroke-dasharray:none;font-family:Dustismo;-inkscape-font-specification:Dustismo Bold"
           xml:space="preserve"><tspan
             dx="0 0 26.252148"
             y="1555.3855"
             x="246.53732"
             id="tspan4044"
             sodipodi:role="line"><tspan
               id="tspan4046"
               style="font-size:144px;font-style:normal;font-variant:normal;font-weight:bold;font-stretch:normal;text-align:start;line-height:125%;writing-mode:lr-tb;text-anchor:start;fill:#000000;fill-opacity:1;stroke:#000000;stroke-width:12;stroke-miterlimit:4;stroke-opacity:1;stroke-dasharray:none;font-family:Dustismo;-inkscape-font-specification:Dustismo Bold"
               dx="-0.98228282 -4.3535538 121.26881">to  : <tspan
   id="tspan3258"
   style="font-weight:normal;-inkscape-font-specification:Dustismo">Ἀπάτη</tspan></tspan></tspan></text>
        <path
           style="fill:#000000;fill-opacity:1;fill-rule:nonzero;stroke:#000000;stroke-width:12;stroke-miterlimit:4;stroke-opacity:1;stroke-dasharray:none"
           d="m 448.25844,1456.6341 9.895,9.894 -9.895,9.895 -9.894,-9.895 z"
           id="path4050"
           inkscape:connector-curvature="0"
           sodipodi:nodetypes="ccccc" />
        <path
           style="fill:#000000;fill-opacity:1;fill-rule:nonzero;stroke:#000000;stroke-width:12;stroke-miterlimit:4;stroke-opacity:1;stroke-dasharray:none"
           d="m 207.94439,1485.6954 c -9.0469,10e-5 -16.51565,3.5156 -22.375,10.5 l 0,-9 -11.32858,0 0,83.875 -13.21875,0 0,11.5937 24.54733,0 0,-36.2812 c 5.85935,6.9844 13.3281,10.4687 22.375,10.4687 9.4687,0 17.54682,-3.5625 24.25,-10.6875 6.56243,-7.0313 9.84368,-15.2968 9.84375,-24.8125 -7e-5,-9.5155 -3.28132,-17.7968 -9.84375,-24.875 -6.70318,-7.1718 -14.7813,-10.7811 -24.25,-10.7812 z m 0,11.625 c 6.28121,0 11.62495,2.4531 16.03125,7.375 4.26557,4.7813 6.37494,10.3282 6.375,16.6562 -6e-5,6.2813 -2.15631,11.7969 -6.46875,16.5313 -4.45318,4.9219 -9.75004,7.375 -15.9375,7.375 -6.23441,0 -11.53128,-2.4531 -15.84375,-7.375 -4.12502,-4.6875 -6.18752,-10.2031 -6.1875,-16.5313 -2e-5,-6.3749 2.04685,-11.9218 6.125,-16.6562 4.31247,-4.9219 9.62497,-7.375 15.90625,-7.375 z"
           id="path4052"
           inkscape:connector-curvature="0"
           sodipodi:nodetypes="cccccccccsccccscccscscs"
           inkscape:export-filename="logo-current.png"
           inkscape:export-xdpi="90"
           inkscape:export-ydpi="90" />
        <path
           style="fill:#000000;fill-opacity:1;fill-rule:nonzero;stroke:#000000;stroke-width:12;stroke-miterlimit:4;stroke-opacity:1;stroke-dasharray:none"
           d="m 508.45717,1459.9767 0,11.5937 13.25,0 0,24.625 c -5.5313,-6.9844 -12.89068,-10.4999 -22.125,-10.5 -9.51566,10e-5 -17.90627,3.5626 -25.125,10.6875 -7.17188,7.1251 -10.75,15.4532 -10.75,24.9687 0,9.5157 3.54687,17.8282 10.625,24.9063 7.0781,7.0781 15.35935,10.5937 24.875,10.5937 9.14058,0 16.64057,-3.4843 22.5,-10.4687 l 0,9 11.35225,0 0,-95.4062 z m -10.0625,37.3437 c 0.39002,-0.019 0.79199,0 1.1875,0 6.2812,0 11.53119,2.4531 15.75,7.375 4.03119,4.7344 6.03119,10.2813 6.03125,16.6562 -6e-5,6.3282 -2.07819,11.8594 -6.25,16.5938 -4.35943,4.875 -9.67192,7.3125 -15.90625,7.3125 -6.32815,0 -11.89065,-2.375 -16.71875,-7.1563 -4.78127,-4.8281 -7.18751,-10.4218 -7.1875,-16.75 -1e-5,-6.328 2.48435,-11.8906 7.40625,-16.7187 4.61423,-4.5704 9.83725,-7.0269 15.6875,-7.3125 z"
           id="path4054"
           inkscape:connector-curvature="0"
           sodipodi:nodetypes="ccccccssscccccsscccscscs"
           inkscape:export-filename="logo-current.png"
           inkscape:export-xdpi="90"
           inkscape:export-ydpi="90" />
        <path
           inkscape:connector-curvature="0"
           id="path4056"
           style="font-size:144px;font-style:normal;font-variant:normal;font-weight:bold;font-stretch:normal;text-align:start;line-height:125%;letter-spacing:0px;word-spacing:0px;writing-mode:lr-tb;text-anchor:start;fill:#000000;fill-opacity:1;stroke:#000000;stroke-width:12;stroke-miterlimit:4;stroke-opacity:1;stroke-dasharray:none;font-family:Dustismo;-inkscape-font-specification:Dustismo Bold"
           d="m 414.17377,1509.6121 c -0.2813,-4.3126 -2.7422,-7.5235 -7.3829,-9.6328 -3.6093,-1.6407 -7.8749,-2.461 -12.7968,-2.461 -3.5625,0 -6.9844,0.6563 -10.2657,1.9688 -4.3124,1.6875 -6.4687,4.0078 -6.4687,6.9609 0,3.1406 2.4141,5.5547 7.2422,7.2422 3.0469,1.0781 7.0473,1.1402 14.8125,2.1078 15.0809,1.8793 25.2899,7.7759 25.5469,20.3922 0.1345,6.608 -3.2813,11.8359 -9.8438,15.6797 -5.4843,3.2343 -11.8125,4.8515 -18.9844,4.8515 -7.8749,0 -14.578,-1.5938 -20.1093,-4.7812 -6.4687,-3.7032 -10.2187,-9.1641 -11.25,-16.3828 l 11.3203,-2.3906 c 1.1719,5.1093 4.4297,8.6015 9.1524,10.1015 4.7226,1.5 8.0365,1.9757 11.7382,1.875 4.5938,-0.125 9.0781,-1.3672 11.6524,-2.836 2.7293,-1.5573 4.5495,-3.0879 4.6523,-5.6952 0.1829,-4.6371 -3.9067,-7.2691 -12.2504,-8.7691 -6.0938,-0.75 -12.519,-1.2319 -18.6168,-2.6919 -4.9423,-1.1833 -9.4489,-3.0019 -12.5859,-6.539 -2.874,-3.2406 -4.5703,-6.586 -4.5703,-12.1641 0,-5.6719 2.4141,-10.1484 7.8164,-14.1328 5.4024,-3.9844 12.7852,-6.3281 21.5039,-6.3281 7.8282,0 14.4844,1.5937 19.9688,4.7812 6.4218,3.75 10.1484,9.2109 11.1796,16.3828 l -11.4609,2.461"
           sodipodi:nodetypes="ccscccsscscccsssscsaczsccc"
           inkscape:export-filename="logo-current.png"
           inkscape:export-xdpi="90"
           inkscape:export-ydpi="90" />
        <path
           sodipodi:nodetypes="ccssscccccccccscccscscs"
           inkscape:connector-curvature="0"
           id="path4058"
           d="m 126.30444,1485.6954 c -9.51565,10e-5 -17.87502,3.5626 -25.09375,10.6875 -7.17188,7.1251 -10.78126,15.4219 -10.78125,24.9375 -1e-5,9.5156 3.54687,17.8281 10.625,24.9062 7.07811,7.0781 15.39059,10.625 24.90625,10.625 9.11103,0 16.58644,-3.4982 22.4375,-10.4375 l 0,8.9375 15.99556,0 0,-11.5937 -4.65625,0 0,-55.8125 -11.27681,0 0,8.2187 c -5.53131,-6.9843 -12.92192,-10.4686 -22.15625,-10.4687 z m 0,11.5937 c 6.28121,0 11.5312,2.4532 15.75,7.375 4.03119,4.7344 6.03118,10.2813 6.03125,16.6563 -7e-5,6.3281 -2.07818,11.8594 -6.25,16.5937 -4.35942,4.875 -9.64067,7.3125 -15.875,7.3125 -6.32816,0 -11.9219,-2.3749 -16.75,-7.1562 -4.78126,-4.8281 -7.15627,-10.4219 -7.15625,-16.75 -2e-5,-6.3281 2.45311,-11.8906 7.375,-16.7188 4.92185,-4.875 10.54684,-7.3125 16.875,-7.3125 z"
           style="font-size:144px;font-style:normal;font-variant:normal;font-weight:bold;font-stretch:normal;text-align:center;line-height:125%;letter-spacing:0px;word-spacing:0px;writing-mode:lr-tb;text-anchor:middle;fill:#000000;fill-opacity:1;stroke:#000000;stroke-width:12;stroke-miterlimit:4;stroke-opacity:1;stroke-dasharray:none;font-family:Dustismo;-inkscape-font-specification:Dustismo Bold" />
        <path
           inkscape:connector-curvature="0"
           id="path4060"
           style="font-size:144px;font-style:normal;font-variant:normal;font-weight:bold;font-stretch:normal;text-align:start;line-height:125%;letter-spacing:0px;word-spacing:0px;writing-mode:lr-tb;text-anchor:start;fill:#000000;fill-opacity:1;stroke:#000000;stroke-width:12;stroke-miterlimit:4;stroke-opacity:1;stroke-dasharray:none;font-family:Dustismo;-inkscape-font-specification:Dustismo Bold"
           d="m 433.60678,1487.1824 20.32031,0 0,68.2031 -11.60156,0 0,-56.6016 -8.71875,0 0,-11.6015"
           sodipodi:nodetypes="ccccccc" />
      </g>
      <g
         style="fill:url(#linearGradient4171);fill-opacity:1;stroke:none;display:inline;filter:url(#filter5179)"
         transform="matrix(0.87641099,0,0,0.87641099,475.43875,-301.22009)"
         id="g4197"
         inkscape:label="aptosid">
        <text
           xml:space="preserve"
           style="font-size:144px;font-style:normal;font-variant:normal;font-weight:bold;font-stretch:normal;text-align:start;line-height:125%;letter-spacing:0px;word-spacing:0px;writing-mode:lr-tb;text-anchor:start;fill:url(#linearGradient4169);fill-opacity:1;stroke:none;font-family:Dustismo;-inkscape-font-specification:Dustismo Bold"
           x="246.53732"
           y="1555.3855"
           id="text4199"
           sodipodi:linespacing="125%"
           inkscape:export-filename="logo-current.png"
           inkscape:export-xdpi="90"
           inkscape:export-ydpi="90"><tspan
             style="fill:url(#linearGradient4169);fill-opacity:1;stroke:none"
             sodipodi:role="line"
             id="tspan4201"
             x="246.53732"
             y="1555.3855"
             dx="0 0 26.252148"><tspan
               dx="-0.98228282 -4.3535538 121.26881"
               style="font-size:144px;font-style:normal;font-variant:normal;font-weight:bold;font-stretch:normal;text-align:start;line-height:125%;writing-mode:lr-tb;text-anchor:start;fill:url(#linearGradient4169);fill-opacity:1;stroke:none;font-family:Dustismo;-inkscape-font-specification:Dustismo Bold"
               id="tspan4203">to  : <tspan
   id="tspan3262"
   style="font-weight:normal;fill:url(#linearGradient4169);-inkscape-font-specification:Dustismo">Ἀπάτη </tspan></tspan></tspan></text>
        <path
           sodipodi:nodetypes="ccccc"
           inkscape:connector-curvature="0"
           id="path4207"
           d="m 448.25844,1456.6341 9.895,9.894 -9.895,9.895 -9.894,-9.895 z"
           style="fill:url(#linearGradient4659);fill-opacity:1;stroke:none" />
        <path
           inkscape:export-ydpi="90"
           inkscape:export-xdpi="90"
           inkscape:export-filename="logo-current.png"
           sodipodi:nodetypes="cccccccccsccccscccscscs"
           inkscape:connector-curvature="0"
           id="path4209"
           d="m 207.94439,1485.6954 c -9.0469,10e-5 -16.51565,3.5156 -22.375,10.5 l 0,-9 -11.32858,0 0,83.875 -13.21875,0 0,11.5937 24.54733,0 0,-36.2812 c 5.85935,6.9844 13.3281,10.4687 22.375,10.4687 9.4687,0 17.54682,-3.5625 24.25,-10.6875 6.56243,-7.0313 9.84368,-15.2968 9.84375,-24.8125 -7e-5,-9.5155 -3.28132,-17.7968 -9.84375,-24.875 -6.70318,-7.1718 -14.7813,-10.7811 -24.25,-10.7812 z m 0,11.625 c 6.28121,0 11.62495,2.4531 16.03125,7.375 4.26557,4.7813 6.37494,10.3282 6.375,16.6562 -6e-5,6.2813 -2.15631,11.7969 -6.46875,16.5313 -4.45318,4.9219 -9.75004,7.375 -15.9375,7.375 -6.23441,0 -11.53128,-2.4531 -15.84375,-7.375 -4.12502,-4.6875 -6.18752,-10.2031 -6.1875,-16.5313 -2e-5,-6.3749 2.04685,-11.9218 6.125,-16.6562 4.31247,-4.9219 9.62497,-7.375 15.90625,-7.375 z"
           style="fill:url(#linearGradient4661);fill-opacity:1;stroke:none" />
        <path
           inkscape:export-ydpi="90"
           inkscape:export-xdpi="90"
           inkscape:export-filename="logo-current.png"
           sodipodi:nodetypes="ccccccssscccccsscccscscs"
           inkscape:connector-curvature="0"
           id="path4211"
           d="m 508.45717,1459.9767 0,11.5937 13.25,0 0,24.625 c -5.5313,-6.9844 -12.89068,-10.4999 -22.125,-10.5 -9.51566,10e-5 -17.90627,3.5626 -25.125,10.6875 -7.17188,7.1251 -10.75,15.4532 -10.75,24.9687 0,9.5157 3.54687,17.8282 10.625,24.9063 7.0781,7.0781 15.35935,10.5937 24.875,10.5937 9.14058,0 16.64057,-3.4843 22.5,-10.4687 l 0,9 11.35225,0 0,-95.4062 z m -10.0625,37.3437 c 0.39002,-0.019 0.79199,0 1.1875,0 6.2812,0 11.53119,2.4531 15.75,7.375 4.03119,4.7344 6.03119,10.2813 6.03125,16.6562 -6e-5,6.3282 -2.07819,11.8594 -6.25,16.5938 -4.35943,4.875 -9.67192,7.3125 -15.90625,7.3125 -6.32815,0 -11.89065,-2.375 -16.71875,-7.1563 -4.78127,-4.8281 -7.18751,-10.4218 -7.1875,-16.75 -1e-5,-6.328 2.48435,-11.8906 7.40625,-16.7187 4.61423,-4.5704 9.83725,-7.0269 15.6875,-7.3125 z"
           style="fill:url(#linearGradient4663);fill-opacity:1;stroke:none" />
        <path
           inkscape:export-ydpi="90"
           inkscape:export-xdpi="90"
           inkscape:export-filename="logo-current.png"
           sodipodi:nodetypes="ccscccsscscccsssscsaczsccc"
           d="m 414.17377,1509.6121 c -0.2813,-4.3126 -2.7422,-7.5235 -7.3829,-9.6328 -3.6093,-1.6407 -7.8749,-2.461 -12.7968,-2.461 -3.5625,0 -6.9844,0.6563 -10.2657,1.9688 -4.3124,1.6875 -6.4687,4.0078 -6.4687,6.9609 0,3.1406 2.4141,5.5547 7.2422,7.2422 3.0469,1.0781 7.0473,1.1402 14.8125,2.1078 15.0809,1.8793 25.2899,7.7759 25.5469,20.3922 0.1345,6.608 -3.2813,11.8359 -9.8438,15.6797 -5.4843,3.2343 -11.8125,4.8515 -18.9844,4.8515 -7.8749,0 -14.578,-1.5938 -20.1093,-4.7812 -6.4687,-3.7032 -10.2187,-9.1641 -11.25,-16.3828 l 11.3203,-2.3906 c 1.1719,5.1093 4.4297,8.6015 9.1524,10.1015 4.7226,1.5 8.0365,1.9757 11.7382,1.875 4.5938,-0.125 9.0781,-1.3672 11.6524,-2.836 2.7293,-1.5573 4.5495,-3.0879 4.6523,-5.6952 0.1829,-4.6371 -3.9067,-7.2691 -12.2504,-8.7691 -6.0938,-0.75 -12.519,-1.2319 -18.6168,-2.6919 -4.9423,-1.1833 -9.4489,-3.0019 -12.5859,-6.539 -2.874,-3.2406 -4.5703,-6.586 -4.5703,-12.1641 0,-5.6719 2.4141,-10.1484 7.8164,-14.1328 5.4024,-3.9844 12.7852,-6.3281 21.5039,-6.3281 7.8282,0 14.4844,1.5937 19.9688,4.7812 6.4218,3.75 10.1484,9.2109 11.1796,16.3828 l -11.4609,2.461"
           style="font-size:144px;font-style:normal;font-variant:normal;font-weight:bold;font-stretch:normal;text-align:start;line-height:125%;letter-spacing:0px;word-spacing:0px;writing-mode:lr-tb;text-anchor:start;fill:url(#linearGradient4665);fill-opacity:1;stroke:none;font-family:Dustismo;-inkscape-font-specification:Dustismo Bold"
           id="path4213"
           inkscape:connector-curvature="0" />
        <path
           style="font-size:144px;font-style:normal;font-variant:normal;font-weight:bold;font-stretch:normal;text-align:center;line-height:125%;letter-spacing:0px;word-spacing:0px;writing-mode:lr-tb;text-anchor:middle;fill:url(#linearGradient4667);fill-opacity:1;stroke:none;font-family:Dustismo;-inkscape-font-specification:Dustismo Bold"
           d="m 126.30444,1485.6954 c -9.51565,10e-5 -17.87502,3.5626 -25.09375,10.6875 -7.17188,7.1251 -10.78126,15.4219 -10.78125,24.9375 -1e-5,9.5156 3.54687,17.8281 10.625,24.9062 7.07811,7.0781 15.39059,10.625 24.90625,10.625 9.11103,0 16.58644,-3.4982 22.4375,-10.4375 l 0,8.9375 15.99556,0 0,-11.5937 -4.65625,0 0,-55.8125 -11.27681,0 0,8.2187 c -5.53131,-6.9843 -12.92192,-10.4686 -22.15625,-10.4687 z m 0,11.5937 c 6.28121,0 11.5312,2.4532 15.75,7.375 4.03119,4.7344 6.03118,10.2813 6.03125,16.6563 -7e-5,6.3281 -2.07818,11.8594 -6.25,16.5937 -4.35942,4.875 -9.64067,7.3125 -15.875,7.3125 -6.32816,0 -11.9219,-2.3749 -16.75,-7.1562 -4.78126,-4.8281 -7.15627,-10.4219 -7.15625,-16.75 -2e-5,-6.3281 2.45311,-11.8906 7.375,-16.7188 4.92185,-4.875 10.54684,-7.3125 16.875,-7.3125 z"
           id="path4215"
           inkscape:connector-curvature="0"
           sodipodi:nodetypes="ccssscccccccccscccscscs" />
        <path
           sodipodi:nodetypes="ccccccc"
           d="m 433.60678,1487.1824 20.32031,0 0,68.2031 -11.60156,0 0,-56.6016 -8.71875,0 0,-11.6015"
           style="font-size:144px;font-style:normal;font-variant:normal;font-weight:bold;font-stretch:normal;text-align:start;line-height:125%;letter-spacing:0px;word-spacing:0px;writing-mode:lr-tb;text-anchor:start;fill:url(#linearGradient4669);fill-opacity:1;stroke:none;font-family:Dustismo;-inkscape-font-specification:Dustismo Bold"
           id="path4217"
           inkscape:connector-curvature="0" />
      </g>
      <g
         inkscape:label="aptosid"
         id="g5109"
         transform="matrix(0.87641099,0,0,0.87641099,475.43875,-301.22009)"
         style="fill:none;stroke:#ffffff;stroke-width:2;stroke-miterlimit:4;stroke-opacity:1;stroke-dasharray:none;display:inline;filter:url(#filter5417)">
        <text
           inkscape:export-ydpi="90"
           inkscape:export-xdpi="90"
           inkscape:export-filename="logo-current.png"
           sodipodi:linespacing="125%"
           id="text5111"
           y="1555.3855"
           x="246.53732"
           style="font-size:144px;font-style:normal;font-variant:normal;font-weight:bold;font-stretch:normal;text-align:start;line-height:125%;letter-spacing:0px;word-spacing:0px;writing-mode:lr-tb;text-anchor:start;fill:none;stroke:#ffffff;stroke-width:2;stroke-miterlimit:4;stroke-opacity:1;stroke-dasharray:none;font-family:Dustismo;-inkscape-font-specification:Dustismo Bold"
           xml:space="preserve"><tspan
             dx="0 0 26.252148"
             y="1555.3855"
             x="246.53732"
             id="tspan5113"
             sodipodi:role="line"
             style="fill:none;stroke:#ffffff;stroke-opacity:1"><tspan
               id="tspan5115"
               style="font-size:144px;font-style:normal;font-variant:normal;font-weight:bold;font-stretch:normal;text-align:start;line-height:125%;writing-mode:lr-tb;text-anchor:start;fill:none;stroke:#ffffff;stroke-width:2;stroke-miterlimit:4;stroke-opacity:1;stroke-dasharray:none;font-family:Dustismo;-inkscape-font-specification:Dustismo Bold"
               dx="-0.98228282 -4.3535538 121.26881">to  : <tspan
   id="tspan3260"
   style="font-weight:normal;-inkscape-font-specification:Dustismo">Ἀπάτη </tspan></tspan></tspan></text>
        <path
           style="fill:#7d0000;fill-opacity:1;stroke:#ffffff;stroke-width:2;stroke-miterlimit:4;stroke-opacity:1;stroke-dasharray:none"
           d="m 448.25844,1456.6341 9.895,9.894 -9.895,9.895 -9.894,-9.895 z"
           id="path5117"
           inkscape:connector-curvature="0"
           sodipodi:nodetypes="ccccc" />
        <path
           style="fill:none;stroke:#ffffff;stroke-width:2;stroke-miterlimit:4;stroke-opacity:1;stroke-dasharray:none"
           d="m 207.94439,1485.6954 c -9.0469,10e-5 -16.51565,3.5156 -22.375,10.5 l 0,-9 -11.32858,0 0,83.875 -13.21875,0 0,11.5937 24.54733,0 0,-36.2812 c 5.85935,6.9844 13.3281,10.4687 22.375,10.4687 9.4687,0 17.54682,-3.5625 24.25,-10.6875 6.56243,-7.0313 9.84368,-15.2968 9.84375,-24.8125 -7e-5,-9.5155 -3.28132,-17.7968 -9.84375,-24.875 -6.70318,-7.1718 -14.7813,-10.7811 -24.25,-10.7812 z m 0,11.625 c 6.28121,0 11.62495,2.4531 16.03125,7.375 4.26557,4.7813 6.37494,10.3282 6.375,16.6562 -6e-5,6.2813 -2.15631,11.7969 -6.46875,16.5313 -4.45318,4.9219 -9.75004,7.375 -15.9375,7.375 -6.23441,0 -11.53128,-2.4531 -15.84375,-7.375 -4.12502,-4.6875 -6.18752,-10.2031 -6.1875,-16.5313 -2e-5,-6.3749 2.04685,-11.9218 6.125,-16.6562 4.31247,-4.9219 9.62497,-7.375 15.90625,-7.375 z"
           id="path5119"
           inkscape:connector-curvature="0"
           sodipodi:nodetypes="cccccccccsccccscccscscs"
           inkscape:export-filename="logo-current.png"
           inkscape:export-xdpi="90"
           inkscape:export-ydpi="90" />
        <path
           style="fill:none;stroke:#ffffff;stroke-width:2;stroke-miterlimit:4;stroke-opacity:1;stroke-dasharray:none"
           d="m 508.45717,1459.9767 0,11.5937 13.25,0 0,24.625 c -5.5313,-6.9844 -12.89068,-10.4999 -22.125,-10.5 -9.51566,10e-5 -17.90627,3.5626 -25.125,10.6875 -7.17188,7.1251 -10.75,15.4532 -10.75,24.9687 0,9.5157 3.54687,17.8282 10.625,24.9063 7.0781,7.0781 15.35935,10.5937 24.875,10.5937 9.14058,0 16.64057,-3.4843 22.5,-10.4687 l 0,9 11.35225,0 0,-95.4062 z m -10.0625,37.3437 c 0.39002,-0.019 0.79199,0 1.1875,0 6.2812,0 11.53119,2.4531 15.75,7.375 4.03119,4.7344 6.03119,10.2813 6.03125,16.6562 -6e-5,6.3282 -2.07819,11.8594 -6.25,16.5938 -4.35943,4.875 -9.67192,7.3125 -15.90625,7.3125 -6.32815,0 -11.89065,-2.375 -16.71875,-7.1563 -4.78127,-4.8281 -7.18751,-10.4218 -7.1875,-16.75 -1e-5,-6.328 2.48435,-11.8906 7.40625,-16.7187 4.61423,-4.5704 9.83725,-7.0269 15.6875,-7.3125 z"
           id="path5121"
           inkscape:connector-curvature="0"
           sodipodi:nodetypes="ccccccssscccccsscccscscs"
           inkscape:export-filename="logo-current.png"
           inkscape:export-xdpi="90"
           inkscape:export-ydpi="90" />
        <path
           inkscape:connector-curvature="0"
           id="path5123"
           style="font-size:144px;font-style:normal;font-variant:normal;font-weight:bold;font-stretch:normal;text-align:start;line-height:125%;letter-spacing:0px;word-spacing:0px;writing-mode:lr-tb;text-anchor:start;fill:none;stroke:#ffffff;stroke-width:2;stroke-miterlimit:4;stroke-opacity:1;stroke-dasharray:none;font-family:Dustismo;-inkscape-font-specification:Dustismo Bold"
           d="m 414.17377,1509.6121 c -0.2813,-4.3126 -2.7422,-7.5235 -7.3829,-9.6328 -3.6093,-1.6407 -7.8749,-2.461 -12.7968,-2.461 -3.5625,0 -6.9844,0.6563 -10.2657,1.9688 -4.3124,1.6875 -6.4687,4.0078 -6.4687,6.9609 0,3.1406 2.4141,5.5547 7.2422,7.2422 3.0469,1.0781 7.0473,1.1402 14.8125,2.1078 15.0809,1.8793 25.2899,7.7759 25.5469,20.3922 0.1345,6.608 -3.2813,11.8359 -9.8438,15.6797 -5.4843,3.2343 -11.8125,4.8515 -18.9844,4.8515 -7.8749,0 -14.578,-1.5938 -20.1093,-4.7812 -6.4687,-3.7032 -10.2187,-9.1641 -11.25,-16.3828 l 11.3203,-2.3906 c 1.1719,5.1093 4.4297,8.6015 9.1524,10.1015 4.7226,1.5 8.0365,1.9757 11.7382,1.875 4.5938,-0.125 9.0781,-1.3672 11.6524,-2.836 2.7293,-1.5573 4.5495,-3.0879 4.6523,-5.6952 0.1829,-4.6371 -3.9067,-7.2691 -12.2504,-8.7691 -6.0938,-0.75 -12.519,-1.2319 -18.6168,-2.6919 -4.9423,-1.1833 -9.4489,-3.0019 -12.5859,-6.539 -2.874,-3.2406 -4.5703,-6.586 -4.5703,-12.1641 0,-5.6719 2.4141,-10.1484 7.8164,-14.1328 5.4024,-3.9844 12.7852,-6.3281 21.5039,-6.3281 7.8282,0 14.4844,1.5937 19.9688,4.7812 6.4218,3.75 10.1484,9.2109 11.1796,16.3828 l -11.4609,2.461"
           sodipodi:nodetypes="ccscccsscscccsssscsaczsccc"
           inkscape:export-filename="logo-current.png"
           inkscape:export-xdpi="90"
           inkscape:export-ydpi="90" />
        <path
           sodipodi:nodetypes="ccssscccccccccscccscscs"
           inkscape:connector-curvature="0"
           id="path5125"
           d="m 126.30444,1485.6954 c -9.51565,10e-5 -17.87502,3.5626 -25.09375,10.6875 -7.17188,7.1251 -10.78126,15.4219 -10.78125,24.9375 -1e-5,9.5156 3.54687,17.8281 10.625,24.9062 7.07811,7.0781 15.39059,10.625 24.90625,10.625 9.11103,0 16.58644,-3.4982 22.4375,-10.4375 l 0,8.9375 15.99556,0 0,-11.5937 -4.65625,0 0,-55.8125 -11.27681,0 0,8.2187 c -5.53131,-6.9843 -12.92192,-10.4686 -22.15625,-10.4687 z m 0,11.5937 c 6.28121,0 11.5312,2.4532 15.75,7.375 4.03119,4.7344 6.03118,10.2813 6.03125,16.6563 -7e-5,6.3281 -2.07818,11.8594 -6.25,16.5937 -4.35942,4.875 -9.64067,7.3125 -15.875,7.3125 -6.32816,0 -11.9219,-2.3749 -16.75,-7.1562 -4.78126,-4.8281 -7.15627,-10.4219 -7.15625,-16.75 -2e-5,-6.3281 2.45311,-11.8906 7.375,-16.7188 4.92185,-4.875 10.54684,-7.3125 16.875,-7.3125 z"
           style="font-size:144px;font-style:normal;font-variant:normal;font-weight:bold;font-stretch:normal;text-align:center;line-height:125%;letter-spacing:0px;word-spacing:0px;writing-mode:lr-tb;text-anchor:middle;fill:none;stroke:#ffffff;stroke-width:2;stroke-miterlimit:4;stroke-opacity:1;stroke-dasharray:none;font-family:Dustismo;-inkscape-font-specification:Dustismo Bold" />
        <path
           inkscape:connector-curvature="0"
           id="path5127"
           style="font-size:144px;font-style:normal;font-variant:normal;font-weight:bold;font-stretch:normal;text-align:start;line-height:125%;letter-spacing:0px;word-spacing:0px;writing-mode:lr-tb;text-anchor:start;fill:none;stroke:#ffffff;stroke-width:2;stroke-miterlimit:4;stroke-opacity:1;stroke-dasharray:none;font-family:Dustismo;-inkscape-font-specification:Dustismo Bold"
           d="m 433.60678,1487.1824 20.32031,0 0,68.2031 -11.60156,0 0,-56.6016 -8.71875,0 0,-11.6015"
           sodipodi:nodetypes="ccccccc" />
      </g>
    </g>
  </g>
</svg>
